<svg width="1228" height="1381" viewBox="0 0 1228 1381" fill="none" xmlns="http://www.w3.org/2000/svg">
<path d="M899.241 1381C897.281 1380.73 895.327 1380.3 893.359 1380.22C865.984 1379.22 838.592 1378.55 811.233 1377.24C770.302 1375.26 729.386 1373.07 688.661 1368.11C657.114 1364.27 625.636 1360.11 594.534 1353.45C578.245 1349.96 562.348 1345.47 548.066 1336.51C546.543 1335.55 545.04 1334.55 543.466 1333.69C538.462 1330.94 535.987 1327.05 536.432 1321.05C536.786 1316.3 536.395 1311.45 535.944 1306.68C535.558 1302.59 536.887 1299.26 539.183 1296.08C546.738 1285.63 556.956 1278.74 569.132 1275.2C584.081 1270.86 599.248 1267.26 614.355 1263.48C618.639 1262.41 622.705 1261.11 626.572 1258.83C633.851 1254.53 641.888 1252.14 650.576 1250.83C650.772 1249.21 651.084 1247.68 651.122 1246.14C652.271 1200.27 657.476 1154.88 666.954 1109.96C672.089 1085.62 679.863 1062.18 689.35 1039.23C693 1030.41 698.327 1022.79 704.772 1015.85C706.248 1014.26 707.661 1012.62 709.086 1011.02C705.791 1005.82 702.841 1000.83 699.565 996.069C692.783 986.209 694.789 976.241 699.414 966.521C700.681 963.86 701.367 961.522 701.289 958.697C700.826 941.911 700.292 925.124 700.099 908.334C700.035 902.767 700.739 897.169 701.43 891.628C701.771 888.893 702.237 885.799 703.759 883.657C708.512 876.968 706.284 870.639 703.991 863.955C701.274 856.037 698.652 848.038 696.785 839.891C695.557 834.536 693.527 829.668 691.176 824.813C681.256 804.326 671.164 783.919 661.606 763.264C657.768 754.969 655.099 746.126 652 737.497C651.234 735.364 649.803 734.058 648.252 732.473C643.812 727.934 638.975 723.296 636.223 717.742C633.794 712.84 633.894 706.663 633.017 701.026C632.711 699.064 632.904 697.029 632.73 695.039C632.363 690.837 631.047 687.706 627.282 684.657C607.269 668.451 596.271 647.421 595.926 621.36C595.804 612.171 595.247 602.849 596.506 593.813C598.486 579.605 601.656 565.549 604.669 551.503C606.804 541.548 609.522 531.719 611.949 521.826C612.278 520.485 612.43 519.101 612.805 516.917C610.161 517.395 607.943 517.902 605.696 518.186C577.29 521.775 548.766 523.277 520.138 523.241C515.367 523.235 513.038 520.311 510.504 517.293C504.278 518.885 498.484 524.517 491.266 518.706C491.742 521.05 492.218 523.395 492.828 526.394C488.562 528.534 484.405 530.859 480.061 532.756C462.601 540.379 444.342 545.465 425.761 549.467C409.946 552.873 393.913 552.692 377.989 551.187C360.098 549.495 342.322 546.627 324.468 544.499C296.825 541.203 269.055 540.437 241.243 540.774C234.844 540.851 228.447 541.047 222.049 541.101C219.784 541.121 217.421 541.748 216.174 538.478C215.752 537.374 212.776 537.244 210.767 536.604C209.575 538.624 208.388 540.244 207.601 542.039C204.033 550.193 197.901 556.13 190.994 561.37C187.193 564.255 182.935 566.593 179.386 569.744C175.846 572.887 172.527 576.458 169.846 580.347C166.006 585.916 162.99 592.044 159.316 597.736C157.298 600.862 154.651 603.582 151.785 607.105C153.958 607.617 155.747 608.123 157.568 608.452C162.251 609.297 166.436 611.082 169.204 615.116C170.236 616.621 170.672 618.534 171.657 620.935C160.912 623.312 150.679 621.025 139.532 623.071C141.468 624.745 142.531 625.684 143.615 626.597C147.115 629.546 150.889 632.229 154.038 635.513C156.273 637.843 157.43 640.991 155.258 644.289C153.875 646.388 152.152 647.347 149.679 646.229C147.677 645.324 145.743 644.204 143.663 643.549C137.789 641.699 131.922 639.737 125.921 638.414C122.234 637.601 119.172 636.306 116.61 633.524C112.682 629.26 108.622 625.116 104.561 620.977C103.069 619.455 101.417 618.092 99.0118 615.906C98.4578 621.749 99.5376 626.37 100.736 630.785C101.176 632.403 103.85 633.611 105.716 634.612C113.677 638.886 118.902 645.454 122.055 653.765C122.604 655.212 122.911 656.923 122.736 658.444C122.163 663.424 116.577 665.651 112.592 662.603C106.411 657.876 99.9271 653.478 94.1854 648.263C90.7498 645.143 87.9702 641.004 85.7986 636.85C81.1733 628.003 77.1045 618.863 72.8813 609.809C71.8106 607.514 71.8904 605.106 71.8003 602.522C71.4954 593.781 76.8776 586.636 77.4838 577.922C73.0506 578.621 68.6066 579.314 64.1662 580.031C63.8091 580.089 63.3625 580.207 63.1512 580.46C57.67 587.023 49.4321 589.169 42.4864 593.378C35.3282 597.715 28.1802 602.072 20.9398 606.27C16.9159 608.602 12.5727 609.975 7.79202 609.747C4.25194 609.577 1.78925 608.082 0 604.294C27.7696 580.423 55.9786 557.495 91.4827 544.866C90.3501 540.866 93.4892 539.399 96.1211 537.696C98.1271 536.397 100.245 535.231 102.418 534.237C125.676 523.599 148.854 512.817 170.899 499.755C175.338 497.124 179.968 494.924 185.563 495.28C187.918 495.429 190.763 494.215 192.723 492.739C195.727 490.479 198.884 489.629 202.479 489.015C205.066 488.573 209.095 488.592 208.075 483.49C213.973 482.92 219.563 482.737 225.019 481.786C242.333 478.767 259.726 476.03 276.851 472.133C301.767 466.462 326.421 459.768 350.395 450.682C367.368 444.249 384.559 438.336 401.871 432.884C408.251 430.874 415.245 430.173 421.979 430.055C436.957 429.793 451.95 430.191 466.931 430.541C469.365 430.598 471.807 432.407 474.182 432.274C476.629 432.139 478.945 430.395 481.424 429.786C483.101 429.374 484.961 429.708 486.629 429.708C487.49 427.06 487.67 423.892 489.329 422.07C491.361 419.839 494.486 418.379 497.388 417.202C533.656 402.482 569.974 387.884 606.268 373.228C612.191 370.837 618.087 368.372 623.935 365.804C625.122 365.283 626.296 364.322 627.032 363.258C629.296 359.982 631.345 356.557 633.953 352.441C619.797 338.302 605.586 324.11 591.458 309.998C583.511 315.911 575.527 321.903 567.488 327.82C559.57 333.648 551.249 338.949 541.943 342.127C524.484 348.088 507.278 339.779 504.228 321.128C503.616 317.383 503.187 313.602 502.423 309.888C501.398 304.907 501.088 304.462 496.024 305.194C489.318 306.164 485.56 302.635 486.93 295.146C487.137 294.012 487.311 292.872 487.56 291.371C485.699 291.141 484.157 291.01 482.637 290.753C476.705 289.751 473.77 286.156 473.461 280.098C473.27 276.356 472.869 272.592 472.143 268.921C471.58 266.07 469.555 264.779 466.436 264.76C461.452 264.728 456.472 264.272 451.49 264.002C443.479 263.567 438.97 257.939 441.036 250.391C445.356 234.612 447.759 218.321 453.875 203.016C456.534 196.362 453.903 190.567 448.968 186.391C444.067 182.244 442.159 177.64 442.129 171.337C442.094 164.17 441.137 156.988 440.287 149.848C437.292 124.687 441.727 100.822 453.113 78.3274C458.218 68.2432 466.323 60.2892 474.165 52.3093C500.399 25.6154 532.679 10.3734 568.958 2.96425C574.219 1.88994 579.66 1.70149 585.015 1.07371C587.772 0.748416 590.525 0.359504 593.28 0C595.28 0 597.279 0 599.279 0C601.22 0.328895 603.156 0.696801 605.103 0.980082C613.981 2.27285 623.095 2.67017 631.7 4.97543C663.336 13.4511 689.147 30.4546 707.054 58.4826C714.001 69.3566 718.976 80.9537 722.225 93.4835C730.378 124.926 730.683 155.511 713.937 184.623C711.29 189.225 710.693 193.987 712.796 198.985C713.084 199.671 713.067 200.485 713.224 201.443C710.307 203.378 707.503 205.237 704.159 207.456C707.446 213.569 710.716 219.65 714.178 226.089C719.427 223.455 722.014 226.667 724.419 230.37C726.051 232.883 727.881 235.268 729.457 237.814C740.076 254.976 750.658 272.161 761.232 289.351C763.517 293.066 765.718 296.833 767.877 300.443C771.052 299.853 773.791 299.391 776.51 298.83C787.234 296.618 798.215 295.795 808.717 292.278C811.932 291.201 815.841 291.307 819.245 291.916C823.114 292.608 826.868 294.256 830.504 295.868C837.439 298.944 844.233 302.336 851.125 305.511C864.212 311.538 875.179 320.362 885.185 330.612C889.62 335.155 894.497 339.328 899.515 343.229C909.837 351.255 919.675 359.681 925.874 371.484C927.408 374.403 929.61 377.206 928.806 380.97C928.639 381.749 929.151 383.101 929.797 383.554C933.344 386.045 936.336 389.692 941.742 387.915C943.945 387.19 947.294 387.446 949.13 388.704C951.789 390.526 954.412 391.088 957.395 391.47C959.113 391.69 960.939 392.404 962.358 393.404C973.386 401.177 982.843 410.136 984.179 424.652C984.329 426.282 984.168 428.55 983.175 429.569C978.956 433.896 978.53 438.89 979.391 444.442C979.817 447.189 980.037 450.076 979.663 452.806C979.358 455.028 978.633 457.953 977.04 459.095C972.497 462.351 972.176 466.702 971.743 471.63C970.548 485.241 972.734 498.573 973.963 512.572C979.632 512.207 984.957 511.865 990.719 511.494C991.611 512.64 992.83 513.961 993.775 515.455C1001.14 527.103 1008.95 538.501 1015.66 550.515C1029.52 575.323 1041.62 600.913 1046.44 629.302C1048.1 639.039 1049.18 648.564 1039.8 655.083C1039.8 655.892 1039.71 656.308 1039.81 656.676C1045.98 680.333 1054.06 703.246 1065.81 724.789C1068.76 730.21 1071.04 736.003 1073.61 741.634C1074.57 743.734 1074.58 745.623 1073.38 747.854C1069.58 754.9 1070.14 757.086 1076.83 761.712C1090.29 771.013 1098.72 783.778 1102.44 799.526C1105.63 812.996 1103.96 826.071 1097.32 838.339C1096.16 840.488 1095.53 842.426 1097.68 844.176C1100.77 846.703 1101.43 850.373 1101.74 853.857C1102.91 866.982 1103.96 880.128 1104.55 893.289C1104.74 897.671 1105.42 901.362 1108.31 904.807C1111.38 908.471 1113.84 912.454 1114.02 917.667C1115.37 956.614 1112.66 995.091 1102.67 1032.97C1092.54 1071.4 1083.52 1110.09 1077.69 1149.48C1074.76 1169.22 1070.77 1188.8 1067.1 1208.43C1066.69 1210.64 1065.77 1213.4 1064.14 1214.58C1061.77 1216.28 1061.33 1218.1 1061.29 1220.6C1061.22 1225.13 1060.99 1229.65 1060.83 1234.01C1053.77 1235.42 1051.82 1238.04 1051.07 1246.88C1052.43 1247.22 1053.87 1247.73 1055.35 1247.94C1061.09 1248.75 1066.85 1249.39 1072.58 1250.24C1091.57 1253.09 1110.39 1256.68 1128.42 1263.51C1132.27 1264.96 1135.68 1267.56 1139.35 1269.52C1141.04 1270.43 1142.8 1271.38 1144.65 1271.78C1156.36 1274.3 1168.17 1276.37 1179.8 1279.18C1191.66 1282.04 1203.19 1286 1213.87 1292.08C1219.65 1295.38 1224.86 1299.3 1228 1305.41V1342.6C1223.49 1345.07 1219.17 1348 1214.45 1349.93C1201.65 1355.14 1188.17 1357.99 1174.66 1360.6C1131.48 1368.92 1087.78 1372.91 1044 1376.04C1018.92 1377.84 993.791 1378.81 968.686 1380.19C967.125 1380.27 965.584 1380.72 964.034 1381H899.243L899.241 1381ZM954.499 795.384C954.03 795.555 953.562 795.726 953.093 795.897C952.813 799.044 952.269 802.193 952.293 805.338C952.508 834.297 952.969 863.255 952.981 892.213C952.984 897.821 954.554 901.651 959.344 904.541C962.222 906.278 965.038 908.423 967.208 910.96C970.407 914.701 973.024 918.942 975.843 923.002C976.429 923.847 976.815 924.83 977.338 925.836C978.946 911.821 980.603 898.204 982.032 884.564C982.717 878.031 983.126 871.458 983.353 864.893C983.47 861.51 983.5 857.925 982.527 854.751C981.134 850.211 978.756 845.978 976.851 841.591C972.368 831.266 971.728 820.442 972.74 809.426C969.59 807.336 966.315 805.418 963.334 803.118C960.241 800.732 957.432 797.977 954.499 795.384Z" fill="black"/>
</svg>
