<?xml version="1.0" encoding="UTF-8"?>
<svg id="Layer_1" data-name="Layer 1" xmlns="http://www.w3.org/2000/svg" viewBox="0 0 2045.929 2301">
  <defs>
    <style>
      .cls-1 {
        fill: #000;
        stroke-width: 0px;
      }
    </style>
  </defs>
  <path class="cls-1" d="M1498.197,2301c-3.266-.444-6.522-1.169-9.8-1.289-45.609-1.671-91.245-2.781-136.828-4.979-68.193-3.289-136.362-6.949-204.212-15.209-52.56-6.399-105.004-13.32-156.822-24.42-27.139-5.813-53.624-13.3-77.419-28.234-2.538-1.593-5.041-3.254-7.663-4.695-8.337-4.58-12.462-11.063-11.719-21.055.589-7.925-.063-16.001-.814-23.949-.643-6.807,1.571-12.363,5.397-17.657,12.586-17.416,29.61-28.891,49.897-34.786,24.905-7.237,50.175-13.23,75.344-19.533,7.137-1.787,13.912-3.944,20.354-7.751,12.127-7.167,25.517-11.141,39.992-13.323.327-2.71.847-5.257.911-7.816,1.913-76.438,10.585-152.064,26.376-226.909,8.556-40.552,21.508-79.611,37.313-117.836,6.081-14.708,14.956-27.406,25.695-38.963,2.458-2.645,4.812-5.387,7.187-8.055-5.489-8.657-10.404-16.967-15.863-24.904-11.299-16.428-7.956-33.038-.251-49.233,2.11-4.434,3.254-8.329,3.124-13.036-.772-27.969-1.662-55.938-1.983-83.914-.106-9.275,1.067-18.603,2.218-27.836.567-4.556,1.344-9.712,3.879-13.28,7.919-11.146,4.208-21.69.387-32.827-4.527-13.194-8.895-26.522-12.006-40.095-2.046-8.923-5.427-17.034-9.345-25.124-16.527-34.134-33.341-68.137-49.264-102.551-6.395-13.822-10.842-28.555-16.005-42.934-1.276-3.553-3.661-5.73-6.245-8.371-7.397-7.562-15.455-15.289-20.041-24.544-4.047-8.167-3.88-18.46-5.341-27.851-.509-3.27-.188-6.661-.478-9.976-.612-7.001-2.804-12.218-9.077-17.298-33.342-27.003-51.667-62.042-52.241-105.465-.203-15.31-1.131-30.843.967-45.898,3.299-23.673,8.58-47.093,13.599-70.497,3.557-16.587,8.086-32.964,12.13-49.448.548-2.234.801-4.54,1.425-8.179-4.405.796-8.1,1.641-11.843,2.114-47.327,5.98-94.849,8.484-142.546,8.424-7.948-.01-11.829-4.882-16.051-9.911-10.372,2.652-20.025,12.036-32.052,2.354.794,3.906,1.587,7.812,2.603,12.809-7.108,3.566-14.033,7.441-21.271,10.601-29.089,12.701-59.509,21.175-90.466,27.843-26.35,5.676-53.061,5.374-79.592,2.866-29.807-2.818-59.424-7.597-89.169-11.143-46.055-5.491-92.322-6.768-138.659-6.207-10.66.129-21.318.456-31.978.546-3.773.032-7.711,1.077-9.789-4.371-.702-1.84-5.66-2.057-9.008-3.122-1.985,3.365-3.964,6.064-5.274,9.056-5.945,13.586-16.161,23.477-27.668,32.209-6.334,4.807-13.428,8.702-19.34,13.952-5.898,5.237-11.428,11.186-15.895,17.667-6.397,9.278-11.422,19.489-17.544,28.973-3.362,5.209-7.771,9.741-12.547,15.61,3.621.854,6.601,1.696,9.635,2.244,7.803,1.409,14.775,4.382,19.386,11.104,1.72,2.507,2.447,5.695,4.087,9.695-17.901,3.962-34.95.15-53.521,3.559,3.225,2.79,4.995,4.355,6.801,5.876,5.832,4.913,12.12,9.384,17.367,14.856,3.723,3.882,5.651,9.127,2.031,14.622-2.304,3.497-5.174,5.095-9.294,3.232-3.335-1.508-6.558-3.373-10.024-4.465-9.786-3.083-19.561-6.351-29.559-8.556-6.143-1.355-11.244-3.512-15.512-8.147-6.544-7.106-13.309-14.01-20.074-20.907-2.486-2.535-5.239-4.807-9.246-8.449-.923,9.736.876,17.435,2.873,24.791.732,2.697,5.187,4.709,8.296,6.377,13.264,7.121,21.97,18.065,27.222,31.912.915,2.412,1.426,5.262,1.135,7.796-.954,8.299-10.261,12.009-16.9,6.931-10.299-7.877-21.101-15.205-30.667-23.893-5.724-5.199-10.355-12.096-13.973-19.017-7.706-14.741-14.485-29.969-21.521-45.055-1.784-3.825-1.651-7.836-1.801-12.142-.508-14.564,8.459-26.469,9.469-40.988-7.386,1.164-14.79,2.32-22.188,3.514-.595.096-1.339.294-1.691.715-9.132,10.935-22.857,14.511-34.429,21.523-11.926,7.227-23.835,14.487-35.898,21.481-6.704,3.886-13.94,6.174-21.905,5.793-5.898-.283-10.001-2.773-12.982-9.085,46.266-39.774,93.264-77.977,152.416-99.019-1.887-6.664,3.343-9.108,7.728-11.946,3.342-2.164,6.87-4.108,10.491-5.764,38.75-17.724,77.366-35.689,114.093-57.453,7.397-4.384,15.111-8.049,24.432-7.456,3.923.249,8.664-1.775,11.929-4.233,5.004-3.766,10.264-5.183,16.254-6.206,4.31-.736,11.023-.704,9.324-9.205,9.826-.95,19.139-1.255,28.229-2.84,28.847-5.03,57.825-9.59,86.355-16.084,41.513-9.448,82.587-20.602,122.53-35.741,28.278-10.718,56.919-20.57,85.762-29.655,10.63-3.348,22.282-4.517,33.502-4.713,24.953-.437,49.932.227,74.892.809,4.055.095,8.123,3.109,12.08,2.889,4.078-.226,7.936-3.131,12.067-4.146,2.794-.686,5.893-.131,8.671-.131,1.434-4.411,1.734-9.69,4.499-12.725,3.385-3.717,8.591-6.15,13.427-8.112,60.425-24.525,120.932-48.848,181.4-73.268,9.868-3.985,19.691-8.092,29.435-12.37,1.978-.869,3.933-2.469,5.159-4.243,3.773-5.458,7.187-11.164,11.532-18.022-23.586-23.559-47.261-47.206-70.8-70.719-13.24,9.853-26.542,19.837-39.936,29.696-13.191,9.71-27.055,18.542-42.559,23.837-29.088,9.933-57.755-3.912-62.835-34.987-1.02-6.241-1.735-12.541-3.008-18.728-1.708-8.3-2.224-9.041-10.661-7.821-11.172,1.616-17.433-4.265-15.151-16.742.345-1.89.634-3.79,1.05-6.291-3.102-.383-5.67-.601-8.203-1.029-9.882-1.67-14.773-7.659-15.288-17.754-.318-6.234-.986-12.506-2.195-18.622-.939-4.75-4.312-6.901-9.509-6.934-8.303-.052-16.601-.813-24.901-1.263-13.346-.724-20.859-10.102-17.417-22.678,7.197-26.291,11.201-53.435,21.391-78.936,4.43-11.086.047-20.742-8.176-27.7-8.165-6.909-11.343-14.58-11.394-25.082-.058-11.942-1.653-23.908-3.069-35.805-4.989-41.923,2.399-81.686,21.37-119.167,8.505-16.802,22.008-30.055,35.074-43.351,43.707-44.477,97.488-69.873,157.93-82.218,8.766-1.79,17.831-2.104,26.752-3.15C979.269,1.247,983.855.599,988.446,0c3.332,0,6.663,0,9.995,0,3.234.548,6.458,1.161,9.703,1.633,14.791,2.154,29.976,2.816,44.312,6.657,52.707,14.122,95.71,42.453,125.545,89.153,11.574,18.118,19.863,37.441,25.276,58.318,13.583,52.389,14.091,103.349-13.809,151.855-4.41,7.668-5.405,15.603-1.901,23.931.48,1.142.451,2.498.713,4.094-4.86,3.224-9.531,6.323-15.103,10.019,5.477,10.186,10.924,20.318,16.692,31.046,8.746-4.389,13.056.963,17.062,7.133,2.719,4.187,5.769,8.162,8.394,12.404,17.692,28.595,35.323,57.228,52.939,85.87,3.807,6.19,7.474,12.467,11.072,18.481,5.29-.983,9.853-1.753,14.383-2.687,17.866-3.686,36.162-5.058,53.658-10.917,5.357-1.794,11.869-1.618,17.541-.603,6.446,1.152,12.701,3.899,18.758,6.585,11.554,5.124,22.873,10.777,34.356,16.066,21.804,10.043,40.075,24.745,56.746,41.823,7.389,7.57,15.515,14.522,23.875,21.022,17.197,13.373,33.588,27.413,43.916,47.079,2.555,4.864,6.224,9.533,4.884,15.805-.277,1.298.576,3.551,1.651,4.306,5.91,4.15,10.895,10.226,19.902,7.265,3.67-1.207,9.249-.78,12.308,1.316,4.431,3.035,8.801,3.971,13.77,4.608,2.863.367,5.906,1.556,8.27,3.222,18.372,12.951,34.128,27.879,36.355,52.066.25,2.715-.019,6.494-1.674,8.192-7.028,7.21-7.738,15.53-6.304,24.781.71,4.578,1.077,9.388.453,13.936-.508,3.703-1.716,8.576-4.37,10.479-7.568,5.425-8.103,12.674-8.824,20.885-1.991,22.679,1.651,44.892,3.698,68.218,9.445-.608,18.316-1.179,27.916-1.796,1.487,1.909,3.518,4.11,5.092,6.6,12.265,19.407,25.287,38.398,36.469,58.415,23.09,41.335,43.242,83.973,51.281,131.275,2.757,16.224,4.564,32.094-11.076,42.955,0,1.349-.14,2.041.02,2.655,10.279,39.416,23.739,77.594,43.316,113.489,4.926,9.032,8.718,18.685,13.001,28.066,1.598,3.5,1.619,6.647-.386,10.365-6.33,11.739-5.4,15.382,5.753,23.089,22.427,15.497,36.467,36.766,42.668,63.005,5.304,22.444,2.537,44.23-8.531,64.671-1.939,3.58-2.977,6.809.59,9.725,5.153,4.211,6.262,10.325,6.779,16.13,1.947,21.869,3.686,43.773,4.671,65.701.328,7.302,1.45,13.452,6.266,19.192,5.123,6.105,9.212,12.741,9.513,21.427,2.254,64.893-2.261,129.002-18.904,192.108-16.888,64.036-31.907,128.497-41.63,194.128-4.873,32.894-11.524,65.529-17.636,98.231-.688,3.68-2.211,8.282-4.939,10.244-3.933,2.829-4.678,5.869-4.739,10.035-.111,7.543-.504,15.083-.768,22.34-11.757,2.35-15.01,6.72-16.26,21.44,2.272.575,4.67,1.414,7.137,1.765,9.556,1.357,19.156,2.414,28.7,3.845,31.63,4.741,63.001,10.729,93.027,22.095,6.414,2.428,12.094,6.754,18.21,10.025,2.819,1.508,5.759,3.1,8.836,3.763,19.503,4.2,39.184,7.641,58.566,12.326,19.748,4.773,38.968,11.361,56.753,21.503,9.632,5.493,18.315,12.027,23.547,22.204v61.973c-7.508,4.114-14.706,8.989-22.582,12.198-21.312,8.68-43.782,13.435-66.293,17.778-71.929,13.875-144.743,20.515-217.682,25.741-41.776,2.993-83.651,4.602-125.477,6.903-2.6.143-5.168.889-7.75,1.354h-107.947ZM1590.259,1325.258c-.781.285-1.561.57-2.341.855-.468,5.243-1.373,10.49-1.334,15.73.359,48.251,1.126,96.501,1.147,144.751.004,9.344,2.621,15.725,10.6,20.541,4.796,2.894,9.487,6.467,13.102,10.695,5.33,6.233,9.69,13.299,14.387,20.064.977,1.407,1.619,3.045,2.491,4.722,2.679-23.352,5.44-46.04,7.821-68.768,1.14-10.885,1.822-21.836,2.201-32.775.195-5.636.245-11.61-1.377-16.898-2.32-7.564-6.282-14.618-9.456-21.928-7.47-17.202-8.535-35.237-6.849-53.593-5.249-3.481-10.705-6.678-15.672-10.51-5.153-3.975-9.833-8.565-14.72-12.886Z"/>
</svg>