<svg width="305" height="108" viewBox="0 0 305 108" fill="none" xmlns="http://www.w3.org/2000/svg">
<path d="M186.43 1.65771C207.008 1.65771 222.422 4.26231 232.434 9.67529H232.435C242.633 15.0525 248.217 23.2809 248.967 34.2407L249.088 36.0122H202.148V34.354C202.148 32.8459 201.759 31.6745 201.057 30.7437C200.344 29.7988 199.213 28.9754 197.524 28.3472L197.479 28.3306L197.434 28.311C194.711 27.1098 191.07 26.4624 186.43 26.4624C181.179 26.4624 177.671 27.0873 175.653 28.1333L175.643 28.1382L175.632 28.144C174.66 28.6301 174.038 29.1656 173.66 29.7036C173.294 30.2247 173.1 30.8268 173.1 31.5688C173.1 32.6483 173.401 33.3053 173.841 33.7456C174.254 34.1587 174.944 34.534 176.064 34.7505L176.571 34.8335L176.582 34.8345L176.593 34.8364L221.293 41.4683H221.292C231.211 42.9114 239.062 46.0029 244.685 50.8755C250.396 55.8251 253.216 62.4947 253.216 70.6987C253.216 82.8598 248.003 91.9976 237.652 97.8726L237.643 97.8784C227.447 103.573 211.709 106.313 190.675 106.313C182.311 106.313 174.641 105.912 167.67 105.108H167.668C160.736 104.298 154.362 102.764 148.555 100.496C142.659 98.1924 137.858 94.805 134.209 90.314L134.203 90.3071L134.198 90.3013C130.472 85.6199 128.664 79.7511 128.664 72.8208V71.1626H176.986L177.076 72.7261C177.223 75.2934 178.263 77.0021 180.167 78.1118C182.667 79.2641 186.598 79.9165 192.134 79.9165C197.584 79.9165 201.027 79.2392 202.82 78.1636C204.557 77.1217 205.332 75.7462 205.332 73.8813C205.332 72.6986 204.953 71.7314 204.18 70.894C203.482 70.1383 202.188 69.4816 199.982 69.1548H199.98L157.27 62.7876H157.266C148.283 61.4266 141.374 58.3059 136.787 53.2417L136.781 53.2358L136.776 53.23C132.236 48.122 129.991 41.8377 129.991 34.4868C129.991 28.3016 131.425 22.9658 134.386 18.5718C137.309 14.2334 141.353 10.8626 146.459 8.44873C151.583 5.97998 157.448 4.26028 164.032 3.26807C170.677 2.19185 178.145 1.65773 186.43 1.65771ZM92.3291 4.97412L92.7588 5.98291L133.082 100.689L134.064 102.997H90.6045L90.207 101.909L86.626 92.1196H49.9463L46.3652 101.909L45.9678 102.997H2.50781L3.49023 100.689L43.8135 5.98291L44.2432 4.97412H92.3291ZM303.343 4.97412V102.997H262.622V4.97412H303.343ZM59.3428 65.7241H77.2295L68.2861 39.9565L59.3428 65.7241Z" stroke="url(#paint0_linear_306_184)" stroke-width="3.31606"/>
<defs>
<linearGradient id="paint0_linear_306_184" x1="9.39355" y1="52.4839" x2="311.818" y2="52.4839" gradientUnits="userSpaceOnUse">
<stop stop-color="#B8B2F2"/>
<stop offset="1" stop-color="#DCC58D"/>
</linearGradient>
</defs>
</svg>
