<svg width="716" height="32" viewBox="0 0 716 32" fill="none" xmlns="http://www.w3.org/2000/svg">
<path d="M3.24158 27.8076L0 15.4307H1.81023L4.01619 25.2143C4.05548 25.3771 4.08636 25.5343 4.10881 25.6858C4.13687 25.8318 4.15091 25.9356 4.15091 25.9974C4.15091 25.9244 4.16494 25.8121 4.19301 25.6606C4.22107 25.509 4.25475 25.3603 4.29404 25.2143L6.91256 15.4307H8.79857L11.4003 25.1638C11.4452 25.3154 11.4816 25.4697 11.5097 25.6269C11.5378 25.7841 11.5518 25.8991 11.5518 25.9721C11.5518 25.9104 11.563 25.8009 11.5855 25.6437C11.6136 25.4866 11.6472 25.3266 11.6865 25.1638L13.9177 15.4307H15.7196L12.478 27.8076H10.6762L7.99028 18.2344C7.94538 18.0716 7.90609 17.9117 7.87241 17.7545C7.83873 17.5973 7.82189 17.4879 7.82189 17.4261C7.82189 17.4991 7.80786 17.6142 7.77979 17.7713C7.75173 17.9229 7.71524 18.0773 7.67034 18.2344L5.04339 27.8076H3.24158Z" fill="#898893"/>
<path d="M20.7966 28.0518C19.5225 28.0518 18.5205 27.6476 17.7908 26.8393C17.0611 26.0311 16.6962 24.914 16.6962 23.4883C16.6962 21.9728 17.0807 20.7687 17.8497 19.8763C18.6243 18.9782 19.6628 18.5291 20.965 18.5291C22.1438 18.5291 23.0952 18.9669 23.8193 19.8426C24.5434 20.7182 24.9054 21.8689 24.9054 23.2947L24.8886 23.8335H18.3044C18.3661 24.7316 18.571 25.4164 18.919 25.8879C19.3456 26.4605 20.0192 26.7467 20.9398 26.7467C21.5179 26.7467 22.0231 26.5839 22.4553 26.2584C22.8875 25.9328 23.1513 25.5175 23.2468 25.0123H24.7455C24.5209 26.0002 24.0719 26.7551 23.3983 27.2772C22.7247 27.7936 21.8575 28.0518 20.7966 28.0518ZM23.3225 22.6127C23.2776 21.7763 23.0699 21.1252 22.6995 20.6593C22.2897 20.1429 21.6891 19.8847 20.8977 19.8847C20.1006 19.8847 19.4635 20.1822 18.9864 20.7772C18.6103 21.2431 18.383 21.8549 18.3044 22.6127H23.3225Z" fill="#898893"/>
<path d="M33.8977 28.0518C33.0164 28.0518 32.3176 27.816 31.8012 27.3445C31.2848 26.873 31.0266 26.2359 31.0266 25.4333C31.0266 24.625 31.2679 23.9823 31.7506 23.5051C32.239 23.028 32.9491 22.7305 33.8808 22.6127L35.9437 22.3516C36.112 22.3348 36.272 22.3067 36.4236 22.2675C36.62 22.2169 36.7716 22.1159 36.8782 21.9643C36.9849 21.8128 37.0382 21.6219 37.0382 21.3918V21.316C37.0382 20.8333 36.8558 20.4572 36.4909 20.1878C36.1261 19.9127 35.6181 19.7752 34.967 19.7752C34.3439 19.7752 33.8556 19.9212 33.5019 20.213C33.1539 20.4993 32.9434 20.9287 32.8705 21.5013H31.4728C31.5458 20.5133 31.8938 19.7724 32.5168 19.2785C33.1399 18.7789 34.0324 18.5291 35.1943 18.5291C36.2889 18.5291 37.1224 18.7677 37.6949 19.2448C38.2675 19.7163 38.5538 20.4067 38.5538 21.316V26.2668C38.5538 26.4184 38.5987 26.5418 38.6885 26.6373C38.7839 26.7271 38.9102 26.772 39.0674 26.772C39.1123 26.772 39.1768 26.7664 39.261 26.7551C39.3508 26.7439 39.4462 26.7271 39.5473 26.7046V27.7992C39.4013 27.8553 39.247 27.9002 39.0842 27.9339C38.9214 27.9676 38.7839 27.9844 38.6716 27.9844C38.0991 27.9844 37.6837 27.8273 37.4255 27.5129C37.2571 27.3052 37.1364 27.0105 37.0635 26.6288C36.9512 26.7692 36.8221 26.9039 36.6762 27.033C35.9184 27.7122 34.9922 28.0518 33.8977 28.0518ZM37.0382 24.2377V23.261C36.7576 23.3957 36.446 23.4883 36.1036 23.5388L34.7144 23.7409C33.9847 23.8419 33.4514 24.0131 33.1146 24.2545C32.7778 24.4902 32.6095 24.813 32.6095 25.2228C32.6095 25.7279 32.747 26.1181 33.022 26.3931C33.2971 26.6625 33.6872 26.7972 34.1924 26.7972C34.9894 26.7972 35.663 26.5811 36.2131 26.1489C36.5892 25.8458 36.8389 25.5034 36.9624 25.1217C36.9849 25.0488 37.0017 24.9337 37.013 24.7765C37.0298 24.6137 37.0382 24.4341 37.0382 24.2377Z" fill="#898893"/>
<path d="M41.3323 27.8076V18.7985H42.772V20.3393C42.9011 20.098 43.0386 19.8791 43.1846 19.6826C43.7571 18.9136 44.4616 18.5291 45.2979 18.5291C45.4383 18.5291 45.5814 18.5544 45.7273 18.6049V20.1541L45.4158 20.1457C44.5963 20.1457 43.962 20.3927 43.513 20.8866C43.0695 21.375 42.8478 22.0738 42.8478 22.9831V27.8076H41.3323Z" fill="#898893"/>
<path d="M50.535 28.0518C49.2608 28.0518 48.2589 27.6476 47.5291 26.8393C46.7994 26.0311 46.4346 24.914 46.4346 23.4883C46.4346 21.9728 46.8191 20.7687 47.5881 19.8763C48.3627 18.9782 49.4011 18.5291 50.7034 18.5291C51.8821 18.5291 52.8335 18.9669 53.5576 19.8426C54.2817 20.7182 54.6438 21.8689 54.6438 23.2947L54.6269 23.8335H48.0427C48.1045 24.7316 48.3094 25.4164 48.6574 25.8879C49.084 26.4605 49.7576 26.7467 50.6781 26.7467C51.2563 26.7467 51.7614 26.5839 52.1937 26.2584C52.6259 25.9328 52.8897 25.5175 52.9851 25.0123H54.4838C54.2593 26.0002 53.8102 26.7551 53.1367 27.2772C52.4631 27.7936 51.5959 28.0518 50.535 28.0518ZM53.0609 22.6127C53.016 21.7763 52.8083 21.1252 52.4378 20.6593C52.0281 20.1429 51.4275 19.8847 50.636 19.8847C49.8389 19.8847 49.2019 20.1822 48.7247 20.7772C48.3487 21.2431 48.1213 21.8549 48.0427 22.6127H53.0609Z" fill="#898893"/>
<path d="M61.2617 27.8076V18.7985H62.7014V20.1289L63.0382 19.6826C63.6949 18.9136 64.5173 18.5291 65.5052 18.5291C66.4987 18.5291 67.2649 18.7985 67.8038 19.3374C68.3426 19.8763 68.612 20.6425 68.612 21.636V27.8076H67.0965V22.1496C67.0965 21.3581 66.9421 20.7884 66.6334 20.4404C66.3303 20.0868 65.8363 19.9099 65.1516 19.9099C64.4218 19.9099 63.8437 20.1878 63.4171 20.7435C62.9905 21.2936 62.7772 22.0401 62.7772 22.9831V27.8076H61.2617Z" fill="#898893"/>
<path d="M74.5311 28.0518C73.285 28.0518 72.2746 27.614 71.5 26.7383C70.731 25.8627 70.3465 24.7148 70.3465 23.2947C70.3465 21.8689 70.731 20.7182 71.5 19.8426C72.2746 18.9669 73.285 18.5291 74.5311 18.5291C75.7884 18.5291 76.8016 18.9669 77.5706 19.8426C78.3396 20.7182 78.7241 21.8689 78.7241 23.2947C78.7241 24.7148 78.3396 25.8627 77.5706 26.7383C76.8016 27.614 75.7884 28.0518 74.5311 28.0518ZM74.5311 26.7467C75.3282 26.7467 75.9624 26.4352 76.4339 25.8121C76.9054 25.1891 77.1412 24.3499 77.1412 23.2947C77.1412 22.2394 76.9054 21.4002 76.4339 20.7772C75.9624 20.1485 75.3282 19.8342 74.5311 19.8342C73.734 19.8342 73.0997 20.1485 72.6282 20.7772C72.1624 21.4002 71.9294 22.2394 71.9294 23.2947C71.9294 24.3499 72.1624 25.1891 72.6282 25.8121C73.0997 26.4352 73.734 26.7467 74.5311 26.7467Z" fill="#898893"/>
<path d="M83.7675 27.7992C83.2511 27.8778 82.875 27.9171 82.6392 27.9171C81.9769 27.9171 81.5082 27.7711 81.2332 27.4792C80.9637 27.1874 80.829 26.685 80.829 25.9721V20.0362H79.5829V18.7985H80.829V16.2726H82.3446V18.7985H83.7675V20.0362H82.3446V25.9721C82.3446 26.1742 82.4231 26.3342 82.5803 26.452C82.7431 26.5699 82.9592 26.6288 83.2286 26.6288H83.7675V27.7992Z" fill="#898893"/>
<path d="M90.0822 18.7985H91.5978V29.0369C91.5978 29.8732 91.4182 30.4766 91.0589 30.8471C90.6997 31.2176 90.1159 31.4028 89.3076 31.4028C89.0775 31.4028 88.8642 31.3888 88.6677 31.3607V30.0388H88.9624C89.4003 30.0388 89.6949 29.9687 89.8465 29.8283C90.0037 29.6936 90.0822 29.4298 90.0822 29.0369V18.7985ZM90.0654 15.4307H91.6146V17.1483H90.0654V15.4307Z" fill="#898893"/>
<path d="M95.4624 18.7985V24.6081C95.4624 25.3659 95.6084 25.9132 95.9003 26.25C96.1921 26.5811 96.6664 26.7467 97.3232 26.7467C98.0529 26.7467 98.631 26.4661 99.0576 25.9048C99.4842 25.3378 99.6975 24.5716 99.6975 23.6062V18.7985H101.213V27.8076H99.7733V26.4352C99.6723 26.598 99.56 26.7523 99.4365 26.8983C98.791 27.6673 97.9827 28.0518 97.0117 28.0518C95.9901 28.0518 95.2239 27.7964 94.7131 27.2856C94.2023 26.7748 93.9469 26.0086 93.9469 24.987V18.7985H95.4624Z" fill="#898893"/>
<path d="M108.656 21.4086C108.611 20.9091 108.406 20.5218 108.041 20.2467C107.682 19.9717 107.197 19.8342 106.585 19.8342C105.956 19.8342 105.476 19.9436 105.145 20.1625C104.82 20.3814 104.657 20.7014 104.657 21.1224C104.657 21.4423 104.772 21.6837 105.002 21.8465C105.232 22.0092 105.69 22.172 106.374 22.3348L107.94 22.7053C108.816 22.9186 109.442 23.2133 109.818 23.5893C110.188 23.9598 110.374 24.479 110.374 25.147C110.374 26.0395 110.051 26.7467 109.405 27.2687C108.766 27.7908 107.898 28.0518 106.804 28.0518C105.535 28.0518 104.589 27.802 103.966 27.3024C103.343 26.7972 102.998 26.0058 102.931 24.9281H104.387C104.46 25.568 104.685 26.0311 105.061 26.3173C105.443 26.6036 106.024 26.7467 106.804 26.7467C107.483 26.7467 107.997 26.6176 108.345 26.3594C108.698 26.1012 108.875 25.7251 108.875 25.2312C108.875 24.9168 108.76 24.6783 108.53 24.5155C108.3 24.3527 107.837 24.1899 107.141 24.0272L105.574 23.6567C104.727 23.4546 104.123 23.1712 103.764 22.8063C103.405 22.4471 103.225 21.9419 103.225 21.2908C103.225 20.4432 103.526 19.7724 104.126 19.2785C104.733 18.7789 105.552 18.5291 106.585 18.5291C107.634 18.5291 108.468 18.7845 109.085 19.2953C109.709 19.8061 110.04 20.5105 110.079 21.4086H108.656Z" fill="#898893"/>
<path d="M115.426 27.7992C114.909 27.8778 114.533 27.9171 114.297 27.9171C113.635 27.9171 113.166 27.7711 112.891 27.4792C112.622 27.1874 112.487 26.685 112.487 25.9721V20.0362H111.241V18.7985H112.487V16.2726H114.003V18.7985H115.426V20.0362H114.003V25.9721C114.003 26.1742 114.081 26.3342 114.238 26.452C114.401 26.5699 114.617 26.6288 114.887 26.6288H115.426V27.7992Z" fill="#898893"/>
<path d="M121.597 18.7985H123.037V20.0783L123.113 19.9689C123.764 19.009 124.62 18.5291 125.681 18.5291C126.859 18.5291 127.791 18.9361 128.476 19.75C129.166 20.5583 129.512 21.6528 129.512 23.0336C129.512 24.5997 129.164 25.829 128.468 26.7215C127.777 27.6083 126.817 28.0518 125.588 28.0518C124.572 28.0518 123.764 27.6617 123.163 26.8814L123.113 26.8141V31.3691H121.597V18.7985ZM125.512 26.7383C126.304 26.7383 126.904 26.4408 127.314 25.8458C127.724 25.2452 127.929 24.3724 127.929 23.2273C127.929 22.0991 127.732 21.2655 127.339 20.7266C126.946 20.1822 126.34 19.9099 125.521 19.9099C124.684 19.9099 124.073 20.2159 123.685 20.8277C123.304 21.4395 123.113 22.4078 123.113 23.7325C123.113 24.6923 123.32 25.4333 123.736 25.9553C124.151 26.4773 124.743 26.7383 125.512 26.7383Z" fill="#898893"/>
<path d="M131.524 27.8076V18.7985H132.964V20.3393C133.093 20.098 133.23 19.8791 133.376 19.6826C133.949 18.9136 134.653 18.5291 135.49 18.5291C135.63 18.5291 135.773 18.5544 135.919 18.6049V20.1541L135.608 20.1457C134.788 20.1457 134.154 20.3927 133.705 20.8866C133.261 21.375 133.04 22.0738 133.04 22.9831V27.8076H131.524Z" fill="#898893"/>
<path d="M140.727 28.0518C139.452 28.0518 138.451 27.6476 137.721 26.8393C136.991 26.0311 136.626 24.914 136.626 23.4883C136.626 21.9728 137.011 20.7687 137.78 19.8763C138.554 18.9782 139.593 18.5291 140.895 18.5291C142.074 18.5291 143.025 18.9669 143.749 19.8426C144.473 20.7182 144.835 21.8689 144.835 23.2947L144.819 23.8335H138.234C138.296 24.7316 138.501 25.4164 138.849 25.8879C139.276 26.4605 139.949 26.7467 140.87 26.7467C141.448 26.7467 141.953 26.5839 142.385 26.2584C142.818 25.9328 143.081 25.5175 143.177 25.0123H144.676C144.451 26.0002 144.002 26.7551 143.328 27.2772C142.655 27.7936 141.788 28.0518 140.727 28.0518ZM143.253 22.6127C143.208 21.7763 143 21.1252 142.63 20.6593C142.22 20.1429 141.619 19.8847 140.828 19.8847C140.031 19.8847 139.394 20.1822 138.916 20.7772C138.54 21.2431 138.313 21.8549 138.234 22.6127H143.253Z" fill="#898893"/>
<path d="M151.815 21.4086C151.77 20.9091 151.566 20.5218 151.201 20.2467C150.842 19.9717 150.356 19.8342 149.744 19.8342C149.115 19.8342 148.636 19.9436 148.304 20.1625C147.979 20.3814 147.816 20.7014 147.816 21.1224C147.816 21.4423 147.931 21.6837 148.161 21.8465C148.391 22.0092 148.849 22.172 149.534 22.3348L151.1 22.7053C151.975 22.9186 152.601 23.2133 152.977 23.5893C153.348 23.9598 153.533 24.479 153.533 25.147C153.533 26.0395 153.21 26.7467 152.565 27.2687C151.925 27.7908 151.058 28.0518 149.963 28.0518C148.695 28.0518 147.749 27.802 147.126 27.3024C146.503 26.7972 146.157 26.0058 146.09 24.9281H147.547C147.62 25.568 147.844 26.0311 148.22 26.3173C148.602 26.6036 149.183 26.7467 149.963 26.7467C150.642 26.7467 151.156 26.6176 151.504 26.3594C151.857 26.1012 152.034 25.7251 152.034 25.2312C152.034 24.9168 151.919 24.6783 151.689 24.5155C151.459 24.3527 150.996 24.1899 150.3 24.0272L148.734 23.6567C147.886 23.4546 147.283 23.1712 146.924 22.8063C146.564 22.4471 146.385 21.9419 146.385 21.2908C146.385 20.4432 146.685 19.7724 147.286 19.2785C147.892 18.7789 148.711 18.5291 149.744 18.5291C150.794 18.5291 151.627 18.7845 152.245 19.2953C152.868 19.8061 153.199 20.5105 153.238 21.4086H151.815Z" fill="#898893"/>
<path d="M158.947 28.0518C157.673 28.0518 156.671 27.6476 155.941 26.8393C155.211 26.0311 154.846 24.914 154.846 23.4883C154.846 21.9728 155.231 20.7687 156 19.8763C156.775 18.9782 157.813 18.5291 159.115 18.5291C160.294 18.5291 161.245 18.9669 161.97 19.8426C162.694 20.7182 163.056 21.8689 163.056 23.2947L163.039 23.8335H156.455C156.516 24.7316 156.721 25.4164 157.069 25.8879C157.496 26.4605 158.169 26.7467 159.09 26.7467C159.668 26.7467 160.173 26.5839 160.606 26.2584C161.038 25.9328 161.302 25.5175 161.397 25.0123H162.896C162.671 26.0002 162.222 26.7551 161.549 27.2772C160.875 27.7936 160.008 28.0518 158.947 28.0518ZM161.473 22.6127C161.428 21.7763 161.22 21.1252 160.85 20.6593C160.44 20.1429 159.839 19.8847 159.048 19.8847C158.251 19.8847 157.614 20.1822 157.137 20.7772C156.761 21.2431 156.533 21.8549 156.455 22.6127H161.473Z" fill="#898893"/>
<path d="M164.874 27.8076V18.7985H166.314V20.1289L166.651 19.6826C167.308 18.9136 168.13 18.5291 169.118 18.5291C170.111 18.5291 170.878 18.7985 171.416 19.3374C171.955 19.8763 172.225 20.6425 172.225 21.636V27.8076H170.709V22.1496C170.709 21.3581 170.555 20.7884 170.246 20.4404C169.943 20.0868 169.449 19.9099 168.764 19.9099C168.035 19.9099 167.456 20.1878 167.03 20.7435C166.603 21.2936 166.39 22.0401 166.39 22.9831V27.8076H164.874Z" fill="#898893"/>
<path d="M177.782 27.7992C177.265 27.8778 176.889 27.9171 176.654 27.9171C175.991 27.9171 175.522 27.7711 175.247 27.4792C174.978 27.1874 174.843 26.685 174.843 25.9721V20.0362H173.597V18.7985H174.843V16.2726H176.359V18.7985H177.782V20.0362H176.359V25.9721C176.359 26.1742 176.437 26.3342 176.595 26.452C176.757 26.5699 176.973 26.6288 177.243 26.6288H177.782V27.7992Z" fill="#898893"/>
<path d="M179.323 27.8076V18.7985H180.838V27.8076H179.323ZM179.306 15.4307H180.855V17.1483H179.306V15.4307Z" fill="#898893"/>
<path d="M183.111 27.8076V18.7985H184.551V20.1289L184.888 19.6826C185.545 18.9136 186.367 18.5291 187.355 18.5291C188.348 18.5291 189.115 18.7985 189.653 19.3374C190.192 19.8763 190.462 20.6425 190.462 21.636V27.8076H188.946V22.1496C188.946 21.3581 188.792 20.7884 188.483 20.4404C188.18 20.0868 187.686 19.9099 187.001 19.9099C186.272 19.9099 185.693 20.1878 185.267 20.7435C184.84 21.2936 184.627 22.0401 184.627 22.9831V27.8076H183.111Z" fill="#898893"/>
<path d="M196.01 30.3588C196.88 30.3588 197.543 30.0837 197.997 29.5336C198.452 28.9892 198.679 28.1921 198.679 27.1425V26.8478L198.671 26.8562C198.048 27.6532 197.234 28.0518 196.229 28.0518C195.022 28.0518 194.063 27.6027 193.35 26.7046C192.637 25.8009 192.28 24.5829 192.28 23.0505C192.28 21.6977 192.631 20.606 193.333 19.7752C194.035 18.9445 194.952 18.5291 196.086 18.5291C197.169 18.5291 198.028 18.9978 198.663 19.9352L198.772 20.0952V18.7985H200.195V27.1425C200.189 28.6636 199.847 29.789 199.168 30.5187C198.489 31.2485 197.445 31.6133 196.036 31.6133C195.014 31.6133 194.203 31.3776 193.602 30.9061C193.002 30.4345 192.64 29.7497 192.516 28.8516H194.065C194.155 29.3344 194.369 29.7048 194.705 29.963C195.048 30.2269 195.483 30.3588 196.01 30.3588ZM196.305 19.9099C195.457 19.9099 194.837 20.1794 194.444 20.7182C194.057 21.2571 193.863 22.1131 193.863 23.2862C193.863 24.392 194.074 25.2452 194.495 25.8458C194.921 26.4408 195.525 26.7383 196.305 26.7383C197.04 26.7383 197.633 26.4633 198.082 25.9132C198.531 25.3631 198.755 24.6362 198.755 23.7325C198.755 22.4583 198.55 21.5041 198.141 20.8698C197.736 20.2299 197.125 19.9099 196.305 19.9099Z" fill="#898893"/>
<path d="M209.482 28.0518C208.601 28.0518 207.902 27.816 207.385 27.3445C206.869 26.873 206.611 26.2359 206.611 25.4333C206.611 24.625 206.852 23.9823 207.335 23.5051C207.823 23.028 208.533 22.7305 209.465 22.6127L211.528 22.3516C211.696 22.3348 211.856 22.3067 212.008 22.2675C212.204 22.2169 212.356 22.1159 212.462 21.9643C212.569 21.8128 212.622 21.6219 212.622 21.3918V21.316C212.622 20.8333 212.44 20.4572 212.075 20.1878C211.71 19.9127 211.202 19.7752 210.551 19.7752C209.928 19.7752 209.44 19.9212 209.086 20.213C208.738 20.4993 208.528 20.9287 208.455 21.5013H207.057C207.13 20.5133 207.478 19.7724 208.101 19.2785C208.724 18.7789 209.617 18.5291 210.778 18.5291C211.873 18.5291 212.707 18.7677 213.279 19.2448C213.852 19.7163 214.138 20.4067 214.138 21.316V26.2668C214.138 26.4184 214.183 26.5418 214.273 26.6373C214.368 26.7271 214.494 26.772 214.652 26.772C214.696 26.772 214.761 26.7664 214.845 26.7551C214.935 26.7439 215.03 26.7271 215.131 26.7046V27.7992C214.986 27.8553 214.831 27.9002 214.668 27.9339C214.506 27.9676 214.368 27.9844 214.256 27.9844C213.683 27.9844 213.268 27.8273 213.01 27.5129C212.841 27.3052 212.721 27.0105 212.648 26.6288C212.535 26.7692 212.406 26.9039 212.26 27.033C211.503 27.7122 210.576 28.0518 209.482 28.0518ZM212.622 24.2377V23.261C212.342 23.3957 212.03 23.4883 211.688 23.5388L210.299 23.7409C209.569 23.8419 209.036 24.0131 208.699 24.2545C208.362 24.4902 208.194 24.813 208.194 25.2228C208.194 25.7279 208.331 26.1181 208.606 26.3931C208.881 26.6625 209.271 26.7972 209.777 26.7972C210.574 26.7972 211.247 26.5811 211.797 26.1489C212.173 25.8458 212.423 25.5034 212.547 25.1217C212.569 25.0488 212.586 24.9337 212.597 24.7765C212.614 24.6137 212.622 24.4341 212.622 24.2377Z" fill="#898893"/>
<path d="M221.505 27.8076V18.7985H222.945V20.1289L223.282 19.6826C223.938 18.9136 224.761 18.5291 225.749 18.5291C226.742 18.5291 227.508 18.7985 228.047 19.3374C228.586 19.8763 228.856 20.6425 228.856 21.636V27.8076H227.34V22.1496C227.34 21.3581 227.186 20.7884 226.877 20.4404C226.574 20.0868 226.08 19.9099 225.395 19.9099C224.665 19.9099 224.087 20.1878 223.661 20.7435C223.234 21.2936 223.021 22.0401 223.021 22.9831V27.8076H221.505Z" fill="#898893"/>
<path d="M234.775 28.0518C233.5 28.0518 232.498 27.6476 231.769 26.8393C231.039 26.0311 230.674 24.914 230.674 23.4883C230.674 21.9728 231.059 20.7687 231.828 19.8763C232.602 18.9782 233.641 18.5291 234.943 18.5291C236.122 18.5291 237.073 18.9669 237.797 19.8426C238.521 20.7182 238.883 21.8689 238.883 23.2947L238.867 23.8335H232.282C232.344 24.7316 232.549 25.4164 232.897 25.8879C233.324 26.4605 233.997 26.7467 234.918 26.7467C235.496 26.7467 236.001 26.5839 236.433 26.2584C236.865 25.9328 237.129 25.5175 237.225 25.0123H238.723C238.499 26.0002 238.05 26.7551 237.376 27.2772C236.703 27.7936 235.835 28.0518 234.775 28.0518ZM237.301 22.6127C237.256 21.7763 237.048 21.1252 236.677 20.6593C236.268 20.1429 235.667 19.8847 234.876 19.8847C234.079 19.8847 233.441 20.1822 232.964 20.7772C232.588 21.2431 232.361 21.8549 232.282 22.6127H237.301Z" fill="#898893"/>
<path d="M242.386 27.8076L239.826 18.7985H241.494L243.22 25.9721L244.979 18.7985H246.663L248.473 26.0226L250.301 18.7985H251.808L249.256 27.8076H247.631L245.771 20.7687L244.011 27.8076H242.386Z" fill="#898893"/>
<path d="M261.271 27.7992C260.755 27.8778 260.379 27.9171 260.143 27.9171C259.481 27.9171 259.012 27.7711 258.737 27.4792C258.468 27.1874 258.333 26.685 258.333 25.9721V20.0362H257.087V18.7985H258.333V16.2726H259.848V18.7985H261.271V20.0362H259.848V25.9721C259.848 26.1742 259.927 26.3342 260.084 26.452C260.247 26.5699 260.463 26.6288 260.733 26.6288H261.271V27.7992Z" fill="#898893"/>
<path d="M266.433 28.0518C265.158 28.0518 264.157 27.6476 263.427 26.8393C262.697 26.0311 262.332 24.914 262.332 23.4883C262.332 21.9728 262.717 20.7687 263.486 19.8763C264.26 18.9782 265.299 18.5291 266.601 18.5291C267.78 18.5291 268.731 18.9669 269.455 19.8426C270.179 20.7182 270.541 21.8689 270.541 23.2947L270.525 23.8335H263.94C264.002 24.7316 264.207 25.4164 264.555 25.8879C264.982 26.4605 265.655 26.7467 266.576 26.7467C267.154 26.7467 267.659 26.5839 268.091 26.2584C268.524 25.9328 268.787 25.5175 268.883 25.0123H270.381C270.157 26.0002 269.708 26.7551 269.034 27.2772C268.361 27.7936 267.494 28.0518 266.433 28.0518ZM268.959 22.6127C268.914 21.7763 268.706 21.1252 268.336 20.6593C267.926 20.1429 267.325 19.8847 266.534 19.8847C265.737 19.8847 265.1 20.1822 264.622 20.7772C264.246 21.2431 264.019 21.8549 263.94 22.6127H268.959Z" fill="#898893"/>
<path d="M279.466 24.566C279.309 25.6999 278.908 26.5643 278.262 27.1593C277.617 27.7543 276.758 28.0518 275.686 28.0518C274.49 28.0518 273.536 27.6224 272.823 26.7636C272.11 25.9048 271.754 24.7485 271.754 23.2947C271.754 21.8409 272.122 20.6845 272.857 19.8257C273.598 18.9613 274.591 18.5291 275.837 18.5291C276.921 18.5291 277.785 18.8266 278.431 19.4216C279.076 20.011 279.421 20.8249 279.466 21.8633H278.01C277.948 21.2178 277.723 20.7182 277.336 20.3646C276.949 20.011 276.432 19.8342 275.787 19.8342C275.023 19.8342 274.423 20.1429 273.985 20.7603C273.553 21.3722 273.337 22.2169 273.337 23.2947C273.337 24.4397 273.539 25.3013 273.943 25.8795C274.347 26.4576 274.948 26.7467 275.745 26.7467C276.334 26.7467 276.825 26.5587 277.218 26.1826C277.617 25.8009 277.881 25.2621 278.01 24.566H279.466Z" fill="#898893"/>
<path d="M280.982 27.8076V15.4307H282.497V20.0194L282.758 19.6826C283.415 18.9136 284.237 18.5291 285.225 18.5291C286.219 18.5291 286.985 18.7985 287.524 19.3374C288.063 19.8763 288.332 20.6425 288.332 21.636V27.8076H286.817V22.0149C286.817 21.2683 286.674 20.7323 286.387 20.4067C286.101 20.0755 285.635 19.9099 284.99 19.9099C284.226 19.9099 283.62 20.1878 283.171 20.7435C282.722 21.2936 282.497 22.0401 282.497 22.9831V27.8076H280.982Z" fill="#898893"/>
<path d="M290.58 27.8076V18.7985H292.02V20.1289L292.357 19.6826C293.014 18.9136 293.836 18.5291 294.824 18.5291C295.817 18.5291 296.584 18.7985 297.122 19.3374C297.661 19.8763 297.931 20.6425 297.931 21.636V27.8076H296.415V22.1496C296.415 21.3581 296.261 20.7884 295.952 20.4404C295.649 20.0868 295.155 19.9099 294.47 19.9099C293.74 19.9099 293.162 20.1878 292.736 20.7435C292.309 21.2936 292.096 22.0401 292.096 22.9831V27.8076H290.58Z" fill="#898893"/>
<path d="M303.85 28.0518C302.604 28.0518 301.593 27.614 300.819 26.7383C300.05 25.8627 299.665 24.7148 299.665 23.2947C299.665 21.8689 300.05 20.7182 300.819 19.8426C301.593 18.9669 302.604 18.5291 303.85 18.5291C305.107 18.5291 306.12 18.9669 306.889 19.8426C307.658 20.7182 308.043 21.8689 308.043 23.2947C308.043 24.7148 307.658 25.8627 306.889 26.7383C306.12 27.614 305.107 28.0518 303.85 28.0518ZM303.85 26.7467C304.647 26.7467 305.281 26.4352 305.753 25.8121C306.224 25.1891 306.46 24.3499 306.46 23.2947C306.46 22.2394 306.224 21.4002 305.753 20.7772C305.281 20.1485 304.647 19.8342 303.85 19.8342C303.053 19.8342 302.418 20.1485 301.947 20.7772C301.481 21.4002 301.248 22.2394 301.248 23.2947C301.248 24.3499 301.481 25.1891 301.947 25.8121C302.418 26.4352 303.053 26.7467 303.85 26.7467Z" fill="#898893"/>
<path d="M309.811 27.8076V15.4307H311.326V27.8076H309.811Z" fill="#898893"/>
<path d="M317.288 28.0518C316.041 28.0518 315.031 27.614 314.256 26.7383C313.487 25.8627 313.103 24.7148 313.103 23.2947C313.103 21.8689 313.487 20.7182 314.256 19.8426C315.031 18.9669 316.041 18.5291 317.288 18.5291C318.545 18.5291 319.558 18.9669 320.327 19.8426C321.096 20.7182 321.481 21.8689 321.481 23.2947C321.481 24.7148 321.096 25.8627 320.327 26.7383C319.558 27.614 318.545 28.0518 317.288 28.0518ZM317.288 26.7467C318.085 26.7467 318.719 26.4352 319.19 25.8121C319.662 25.1891 319.898 24.3499 319.898 23.2947C319.898 22.2394 319.662 21.4002 319.19 20.7772C318.719 20.1485 318.085 19.8342 317.288 19.8342C316.491 19.8342 315.856 20.1485 315.385 20.7772C314.919 21.4002 314.686 22.2394 314.686 23.2947C314.686 24.3499 314.919 25.1891 315.385 25.8121C315.856 26.4352 316.491 26.7467 317.288 26.7467Z" fill="#898893"/>
<path d="M326.516 30.3588C327.386 30.3588 328.048 30.0837 328.503 29.5336C328.957 28.9892 329.185 28.1921 329.185 27.1425V26.8478L329.176 26.8562C328.553 27.6532 327.739 28.0518 326.734 28.0518C325.528 28.0518 324.568 27.6027 323.855 26.7046C323.142 25.8009 322.786 24.5829 322.786 23.0505C322.786 21.6977 323.136 20.606 323.838 19.7752C324.54 18.9445 325.457 18.5291 326.591 18.5291C327.675 18.5291 328.533 18.9978 329.168 19.9352L329.277 20.0952V18.7985H330.7V27.1425C330.695 28.6636 330.352 29.789 329.673 30.5187C328.994 31.2485 327.95 31.6133 326.541 31.6133C325.519 31.6133 324.708 31.3776 324.108 30.9061C323.507 30.4345 323.145 29.7497 323.021 28.8516H324.571C324.66 29.3344 324.874 29.7048 325.211 29.963C325.553 30.2269 325.988 30.3588 326.516 30.3588ZM326.81 19.9099C325.963 19.9099 325.342 20.1794 324.949 20.7182C324.562 21.2571 324.369 22.1131 324.369 23.2862C324.369 24.392 324.579 25.2452 325 25.8458C325.427 26.4408 326.03 26.7383 326.81 26.7383C327.546 26.7383 328.138 26.4633 328.587 25.9132C329.036 25.3631 329.26 24.6362 329.26 23.7325C329.26 22.4583 329.055 21.5041 328.646 20.8698C328.242 20.2299 327.63 19.9099 326.81 19.9099Z" fill="#898893"/>
<path d="M340.122 18.7985L336.695 28.1023C336.167 29.4887 335.696 30.3953 335.28 30.8219C334.871 31.2485 334.253 31.4618 333.428 31.4618C333.159 31.4674 332.914 31.4365 332.696 31.3691V29.963C332.926 30.0472 333.215 30.0921 333.563 30.0978C333.905 30.0978 334.191 29.9574 334.422 29.6768C334.652 29.3961 334.913 28.8713 335.205 28.1023L335.23 27.9592L331.887 18.7985H333.613L336.021 26.25L338.463 18.7985H340.122Z" fill="#898893"/>
<path d="M341.814 25.9721H343.607V27.5045C343.607 28.3801 343.47 29.0341 343.195 29.4663C342.92 29.9041 342.46 30.2016 341.814 30.3588V29.5673C342.168 29.5056 342.412 29.3091 342.547 28.9779C342.653 28.7197 342.715 28.3296 342.732 27.8076H341.814V25.9721ZM341.814 18.8912H343.616V20.7182H341.814V18.8912Z" fill="#898893"/>
<path d="M352.718 27.8076L350.158 18.7985H351.825L353.551 25.9721L355.311 18.7985H356.995L358.805 26.0226L360.632 18.7985H362.139L359.588 27.8076H357.963L356.102 20.7687L354.343 27.8076H352.718Z" fill="#898893"/>
<path d="M367.166 28.0518C365.892 28.0518 364.89 27.6476 364.16 26.8393C363.43 26.0311 363.065 24.914 363.065 23.4883C363.065 21.9728 363.45 20.7687 364.219 19.8763C364.993 18.9782 366.032 18.5291 367.334 18.5291C368.513 18.5291 369.464 18.9669 370.188 19.8426C370.913 20.7182 371.275 21.8689 371.275 23.2947L371.258 23.8335H364.674C364.735 24.7316 364.94 25.4164 365.288 25.8879C365.715 26.4605 366.388 26.7467 367.309 26.7467C367.887 26.7467 368.392 26.5839 368.824 26.2584C369.257 25.9328 369.521 25.5175 369.616 25.0123H371.115C370.89 26.0002 370.441 26.7551 369.767 27.2772C369.094 27.7936 368.227 28.0518 367.166 28.0518ZM369.692 22.6127C369.647 21.7763 369.439 21.1252 369.069 20.6593C368.659 20.1429 368.058 19.8847 367.267 19.8847C366.47 19.8847 365.833 20.1822 365.356 20.7772C364.979 21.2431 364.752 21.8549 364.674 22.6127H369.692Z" fill="#898893"/>
<path d="M380.267 28.0518C379.386 28.0518 378.687 27.816 378.17 27.3445C377.654 26.873 377.396 26.2359 377.396 25.4333C377.396 24.625 377.637 23.9823 378.12 23.5051C378.608 23.028 379.318 22.7305 380.25 22.6127L382.313 22.3516C382.481 22.3348 382.641 22.3067 382.793 22.2675C382.989 22.2169 383.141 22.1159 383.247 21.9643C383.354 21.8128 383.407 21.6219 383.407 21.3918V21.316C383.407 20.8333 383.225 20.4572 382.86 20.1878C382.495 19.9127 381.987 19.7752 381.336 19.7752C380.713 19.7752 380.225 19.9212 379.871 20.213C379.523 20.4993 379.313 20.9287 379.24 21.5013H377.842C377.915 20.5133 378.263 19.7724 378.886 19.2785C379.509 18.7789 380.402 18.5291 381.563 18.5291C382.658 18.5291 383.492 18.7677 384.064 19.2448C384.637 19.7163 384.923 20.4067 384.923 21.316V26.2668C384.923 26.4184 384.968 26.5418 385.058 26.6373C385.153 26.7271 385.279 26.772 385.437 26.772C385.481 26.772 385.546 26.7664 385.63 26.7551C385.72 26.7439 385.815 26.7271 385.916 26.7046V27.7992C385.771 27.8553 385.616 27.9002 385.453 27.9339C385.291 27.9676 385.153 27.9844 385.041 27.9844C384.468 27.9844 384.053 27.8273 383.795 27.5129C383.626 27.3052 383.506 27.0105 383.433 26.6288C383.32 26.7692 383.191 26.9039 383.045 27.033C382.288 27.7122 381.361 28.0518 380.267 28.0518ZM383.407 24.2377V23.261C383.127 23.3957 382.815 23.4883 382.473 23.5388L381.084 23.7409C380.354 23.8419 379.821 24.0131 379.484 24.2545C379.147 24.4902 378.979 24.813 378.979 25.2228C378.979 25.7279 379.116 26.1181 379.391 26.3931C379.666 26.6625 380.056 26.7972 380.562 26.7972C381.359 26.7972 382.032 26.5811 382.582 26.1489C382.958 25.8458 383.208 25.5034 383.332 25.1217C383.354 25.0488 383.371 24.9337 383.382 24.7765C383.399 24.6137 383.407 24.4341 383.407 24.2377Z" fill="#898893"/>
<path d="M387.701 27.8076V18.7985H389.141V20.3393C389.27 20.098 389.408 19.8791 389.554 19.6826C390.126 18.9136 390.831 18.5291 391.667 18.5291C391.807 18.5291 391.951 18.5544 392.096 18.6049V20.1541L391.785 20.1457C390.965 20.1457 390.331 20.3927 389.882 20.8866C389.439 21.375 389.217 22.0738 389.217 22.9831V27.8076H387.701Z" fill="#898893"/>
<path d="M396.904 28.0518C395.63 28.0518 394.628 27.6476 393.898 26.8393C393.169 26.0311 392.804 24.914 392.804 23.4883C392.804 21.9728 393.188 20.7687 393.957 19.8763C394.732 18.9782 395.77 18.5291 397.073 18.5291C398.251 18.5291 399.203 18.9669 399.927 19.8426C400.651 20.7182 401.013 21.8689 401.013 23.2947L400.996 23.8335H394.412C394.474 24.7316 394.679 25.4164 395.027 25.8879C395.453 26.4605 396.127 26.7467 397.047 26.7467C397.625 26.7467 398.131 26.5839 398.563 26.2584C398.995 25.9328 399.259 25.5175 399.354 25.0123H400.853C400.628 26.0002 400.179 26.7551 399.506 27.2772C398.832 27.7936 397.965 28.0518 396.904 28.0518ZM399.43 22.6127C399.385 21.7763 399.177 21.1252 398.807 20.6593C398.397 20.1429 397.797 19.8847 397.005 19.8847C396.208 19.8847 395.571 20.1822 395.094 20.7772C394.718 21.2431 394.491 21.8549 394.412 22.6127H399.43Z" fill="#898893"/>
<path d="M407.681 27.8076V18.7985H409.197V27.8076H407.681ZM407.664 15.4307H409.214V17.1483H407.664V15.4307Z" fill="#898893"/>
<path d="M411.47 27.8076V18.7985H412.91V20.1289L413.247 19.6826C413.903 18.9136 414.726 18.5291 415.714 18.5291C416.707 18.5291 417.473 18.7985 418.012 19.3374C418.551 19.8763 418.821 20.6425 418.821 21.636V27.8076H417.305V22.1496C417.305 21.3581 417.151 20.7884 416.842 20.4404C416.539 20.0868 416.045 19.9099 415.36 19.9099C414.63 19.9099 414.052 20.1878 413.626 20.7435C413.199 21.2936 412.986 22.0401 412.986 22.9831V27.8076H411.47Z" fill="#898893"/>
<path d="M424.378 27.7992C423.861 27.8778 423.485 27.9171 423.249 27.9171C422.587 27.9171 422.118 27.7711 421.843 27.4792C421.574 27.1874 421.439 26.685 421.439 25.9721V20.0362H420.193V18.7985H421.439V16.2726H422.955V18.7985H424.378V20.0362H422.955V25.9721C422.955 26.1742 423.033 26.3342 423.19 26.452C423.353 26.5699 423.569 26.6288 423.839 26.6288H424.378V27.7992Z" fill="#898893"/>
<path d="M426.078 27.8076V18.7985H427.518V20.3393C427.647 20.098 427.785 19.8791 427.931 19.6826C428.503 18.9136 429.208 18.5291 430.044 18.5291C430.184 18.5291 430.327 18.5544 430.473 18.6049V20.1541L430.162 20.1457C429.342 20.1457 428.708 20.3927 428.259 20.8866C427.816 21.375 427.594 22.0738 427.594 22.9831V27.8076H426.078Z" fill="#898893"/>
<path d="M435.281 28.0518C434.035 28.0518 433.025 27.614 432.25 26.7383C431.481 25.8627 431.096 24.7148 431.096 23.2947C431.096 21.8689 431.481 20.7182 432.25 19.8426C433.025 18.9669 434.035 18.5291 435.281 18.5291C436.538 18.5291 437.552 18.9669 438.321 19.8426C439.09 20.7182 439.474 21.8689 439.474 23.2947C439.474 24.7148 439.09 25.8627 438.321 26.7383C437.552 27.614 436.538 28.0518 435.281 28.0518ZM435.281 26.7467C436.078 26.7467 436.712 26.4352 437.184 25.8121C437.655 25.1891 437.891 24.3499 437.891 23.2947C437.891 22.2394 437.655 21.4002 437.184 20.7772C436.712 20.1485 436.078 19.8342 435.281 19.8342C434.484 19.8342 433.85 20.1485 433.378 20.7772C432.912 21.4002 432.679 22.2394 432.679 23.2947C432.679 24.3499 432.912 25.1891 433.378 25.8121C433.85 26.4352 434.484 26.7467 435.281 26.7467Z" fill="#898893"/>
<path d="M444.644 28.0518C443.437 28.0518 442.477 27.6027 441.764 26.7046C441.051 25.8009 440.695 24.5829 440.695 23.0505C440.695 21.6977 441.04 20.606 441.731 19.7752C442.421 18.9445 443.322 18.5291 444.433 18.5291C445.539 18.5291 446.415 18.9978 447.06 19.9352L447.178 20.1036V15.4307H448.694V27.8076H447.288V26.5783L447.094 26.8562C446.471 27.6532 445.654 28.0518 444.644 28.0518ZM444.728 19.8931C443.88 19.8931 443.26 20.1653 442.867 20.7098C442.474 21.2487 442.278 22.1075 442.278 23.2862C442.278 24.3976 442.488 25.2536 442.909 25.8542C443.336 26.4548 443.942 26.7551 444.728 26.7551C445.463 26.7551 446.055 26.4801 446.505 25.93C446.954 25.3743 447.178 24.6418 447.178 23.7325C447.178 22.5032 446.965 21.5574 446.538 20.895C446.117 20.2271 445.514 19.8931 444.728 19.8931Z" fill="#898893"/>
<path d="M452.373 18.7985V24.6081C452.373 25.3659 452.519 25.9132 452.811 26.25C453.103 26.5811 453.577 26.7467 454.234 26.7467C454.964 26.7467 455.542 26.4661 455.968 25.9048C456.395 25.3378 456.608 24.5716 456.608 23.6062V18.7985H458.124V27.8076H456.684V26.4352C456.583 26.598 456.471 26.7523 456.347 26.8983C455.702 27.6673 454.893 28.0518 453.922 28.0518C452.901 28.0518 452.134 27.7964 451.624 27.2856C451.113 26.7748 450.858 26.0086 450.858 24.987V18.7985H452.373Z" fill="#898893"/>
<path d="M467.512 24.566C467.354 25.6999 466.953 26.5643 466.308 27.1593C465.662 27.7543 464.803 28.0518 463.731 28.0518C462.536 28.0518 461.581 27.6224 460.868 26.7636C460.156 25.9048 459.799 24.7485 459.799 23.2947C459.799 21.8409 460.167 20.6845 460.902 19.8257C461.643 18.9613 462.637 18.5291 463.883 18.5291C464.966 18.5291 465.831 18.8266 466.476 19.4216C467.122 20.011 467.467 20.8249 467.512 21.8633H466.055C465.993 21.2178 465.769 20.7182 465.381 20.3646C464.994 20.011 464.478 19.8342 463.832 19.8342C463.069 19.8342 462.468 20.1429 462.03 20.7603C461.598 21.3722 461.382 22.2169 461.382 23.2947C461.382 24.4397 461.584 25.3013 461.988 25.8795C462.392 26.4576 462.993 26.7467 463.79 26.7467C464.38 26.7467 464.871 26.5587 465.264 26.1826C465.662 25.8009 465.926 25.2621 466.055 24.566H467.512Z" fill="#898893"/>
<path d="M469.078 27.8076V18.7985H470.593V27.8076H469.078ZM469.061 15.4307H470.61V17.1483H469.061V15.4307Z" fill="#898893"/>
<path d="M472.867 27.8076V18.7985H474.306V20.1289L474.643 19.6826C475.3 18.9136 476.122 18.5291 477.11 18.5291C478.104 18.5291 478.87 18.7985 479.409 19.3374C479.948 19.8763 480.217 20.6425 480.217 21.636V27.8076H478.701V22.1496C478.701 21.3581 478.547 20.7884 478.238 20.4404C477.935 20.0868 477.441 19.9099 476.756 19.9099C476.027 19.9099 475.449 20.1878 475.022 20.7435C474.595 21.2936 474.382 22.0401 474.382 22.9831V27.8076H472.867Z" fill="#898893"/>
<path d="M485.766 30.3588C486.636 30.3588 487.298 30.0837 487.753 29.5336C488.207 28.9892 488.435 28.1921 488.435 27.1425V26.8478L488.426 26.8562C487.803 27.6532 486.989 28.0518 485.984 28.0518C484.778 28.0518 483.818 27.6027 483.105 26.7046C482.392 25.8009 482.036 24.5829 482.036 23.0505C482.036 21.6977 482.386 20.606 483.088 19.7752C483.79 18.9445 484.707 18.5291 485.841 18.5291C486.925 18.5291 487.783 18.9978 488.418 19.9352L488.527 20.0952V18.7985H489.95V27.1425C489.944 28.6636 489.602 29.789 488.923 30.5187C488.244 31.2485 487.2 31.6133 485.791 31.6133C484.769 31.6133 483.958 31.3776 483.357 30.9061C482.757 30.4345 482.395 29.7497 482.271 28.8516H483.821C483.91 29.3344 484.124 29.7048 484.46 29.963C484.803 30.2269 485.238 30.3588 485.766 30.3588ZM486.06 19.9099C485.213 19.9099 484.592 20.1794 484.199 20.7182C483.812 21.2571 483.618 22.1131 483.618 23.2862C483.618 24.392 483.829 25.2452 484.25 25.8458C484.677 26.4408 485.28 26.7383 486.06 26.7383C486.796 26.7383 487.388 26.4633 487.837 25.9132C488.286 25.3631 488.51 24.6362 488.51 23.7325C488.51 22.4583 488.305 21.5041 487.896 20.8698C487.492 20.2299 486.88 19.9099 486.06 19.9099Z" fill="#898893"/>
<path d="M499.237 28.0518C498.356 28.0518 497.657 27.816 497.141 27.3445C496.624 26.873 496.366 26.2359 496.366 25.4333C496.366 24.625 496.607 23.9823 497.09 23.5051C497.578 23.028 498.288 22.7305 499.22 22.6127L501.283 22.3516C501.451 22.3348 501.611 22.3067 501.763 22.2675C501.959 22.2169 502.111 22.1159 502.218 21.9643C502.324 21.8128 502.378 21.6219 502.378 21.3918V21.316C502.378 20.8333 502.195 20.4572 501.83 20.1878C501.465 19.9127 500.957 19.7752 500.306 19.7752C499.683 19.7752 499.195 19.9212 498.841 20.213C498.493 20.4993 498.283 20.9287 498.21 21.5013H496.812C496.885 20.5133 497.233 19.7724 497.856 19.2785C498.479 18.7789 499.372 18.5291 500.534 18.5291C501.628 18.5291 502.462 18.7677 503.034 19.2448C503.607 19.7163 503.893 20.4067 503.893 21.316V26.2668C503.893 26.4184 503.938 26.5418 504.028 26.6373C504.123 26.7271 504.25 26.772 504.407 26.772C504.452 26.772 504.516 26.7664 504.6 26.7551C504.69 26.7439 504.786 26.7271 504.887 26.7046V27.7992C504.741 27.8553 504.586 27.9002 504.424 27.9339C504.261 27.9676 504.123 27.9844 504.011 27.9844C503.438 27.9844 503.023 27.8273 502.765 27.5129C502.596 27.3052 502.476 27.0105 502.403 26.6288C502.291 26.7692 502.161 26.9039 502.016 27.033C501.258 27.7122 500.332 28.0518 499.237 28.0518ZM502.378 24.2377V23.261C502.097 23.3957 501.785 23.4883 501.443 23.5388L500.054 23.7409C499.324 23.8419 498.791 24.0131 498.454 24.2545C498.117 24.4902 497.949 24.813 497.949 25.2228C497.949 25.7279 498.086 26.1181 498.361 26.3931C498.636 26.6625 499.027 26.7972 499.532 26.7972C500.329 26.7972 501.002 26.5811 501.552 26.1489C501.928 25.8458 502.178 25.5034 502.302 25.1217C502.324 25.0488 502.341 24.9337 502.352 24.7765C502.369 24.6137 502.378 24.4341 502.378 24.2377Z" fill="#898893"/>
<path d="M511.26 27.8076V18.7985H512.7V20.1289L513.037 19.6826C513.694 18.9136 514.516 18.5291 515.504 18.5291C516.497 18.5291 517.264 18.7985 517.802 19.3374C518.341 19.8763 518.611 20.6425 518.611 21.636V27.8076H517.095V22.1496C517.095 21.3581 516.941 20.7884 516.632 20.4404C516.329 20.0868 515.835 19.9099 515.15 19.9099C514.421 19.9099 513.842 20.1878 513.416 20.7435C512.989 21.2936 512.776 22.0401 512.776 22.9831V27.8076H511.26Z" fill="#898893"/>
<path d="M524.53 28.0518C523.256 28.0518 522.254 27.6476 521.524 26.8393C520.794 26.0311 520.429 24.914 520.429 23.4883C520.429 21.9728 520.814 20.7687 521.583 19.8763C522.357 18.9782 523.396 18.5291 524.698 18.5291C525.877 18.5291 526.828 18.9669 527.552 19.8426C528.277 20.7182 528.639 21.8689 528.639 23.2947L528.622 23.8335H522.038C522.099 24.7316 522.304 25.4164 522.652 25.8879C523.079 26.4605 523.752 26.7467 524.673 26.7467C525.251 26.7467 525.756 26.5839 526.188 26.2584C526.621 25.9328 526.885 25.5175 526.98 25.0123H528.479C528.254 26.0002 527.805 26.7551 527.131 27.2772C526.458 27.7936 525.591 28.0518 524.53 28.0518ZM527.056 22.6127C527.011 21.7763 526.803 21.1252 526.433 20.6593C526.023 20.1429 525.422 19.8847 524.631 19.8847C523.834 19.8847 523.197 20.1822 522.72 20.7772C522.343 21.2431 522.116 21.8549 522.038 22.6127H527.056Z" fill="#898893"/>
<path d="M532.141 27.8076L529.582 18.7985H531.249L532.975 25.9721L534.734 18.7985H536.418L538.229 26.0226L540.056 18.7985H541.563L539.012 27.8076H537.387L535.526 20.7687L533.766 27.8076H532.141Z" fill="#898893"/>
<path d="M543.297 25.9721H545.091V27.5045C545.091 28.3745 544.953 29.0257 544.678 29.4579C544.403 29.8957 543.943 30.1932 543.297 30.3504V29.5505C543.651 29.4887 543.895 29.2923 544.03 28.9611C544.136 28.7085 544.201 28.324 544.223 27.8076H543.297V25.9721Z" fill="#898893"/>
<path d="M555.826 27.7992C555.309 27.8778 554.933 27.9171 554.698 27.9171C554.035 27.9171 553.566 27.7711 553.291 27.4792C553.022 27.1874 552.887 26.685 552.887 25.9721V20.0362H551.641V18.7985H552.887V16.2726H554.403V18.7985H555.826V20.0362H554.403V25.9721C554.403 26.1742 554.481 26.3342 554.639 26.452C554.801 26.5699 555.018 26.6288 555.287 26.6288H555.826V27.7992Z" fill="#898893"/>
<path d="M557.316 27.8076V15.4307H558.832V20.0194L559.093 19.6826C559.749 18.9136 560.572 18.5291 561.56 18.5291C562.553 18.5291 563.319 18.7985 563.858 19.3374C564.397 19.8763 564.666 20.6425 564.666 21.636V27.8076H563.151V22.0149C563.151 21.2683 563.008 20.7323 562.721 20.4067C562.435 20.0755 561.969 19.9099 561.324 19.9099C560.56 19.9099 559.954 20.1878 559.505 20.7435C559.056 21.2936 558.832 22.0401 558.832 22.9831V27.8076H557.316Z" fill="#898893"/>
<path d="M566.965 27.8076V18.7985H568.481V27.8076H566.965ZM566.948 15.4307H568.497V17.1483H566.948V15.4307Z" fill="#898893"/>
<path d="M570.754 27.8076V18.7985H572.194V20.1289L572.53 19.6826C573.187 18.9136 574.009 18.5291 574.997 18.5291C575.991 18.5291 576.757 18.7985 577.296 19.3374C577.835 19.8763 578.104 20.6425 578.104 21.636V27.8076H576.589V22.1496C576.589 21.3581 576.434 20.7884 576.126 20.4404C575.823 20.0868 575.329 19.9099 574.644 19.9099C573.914 19.9099 573.336 20.1878 572.909 20.7435C572.483 21.2936 572.269 22.0401 572.269 22.9831V27.8076H570.754Z" fill="#898893"/>
<path d="M580.386 27.8076V15.4307H581.902V22.5621L585.707 18.7985H587.635L584.209 22.1412L587.863 27.8076H585.884L583.089 23.2273L581.902 24.3892V27.8076H580.386Z" fill="#898893"/>
<path d="M589.025 27.8076V18.7985H590.54V27.8076H589.025ZM589.008 15.4307H590.557V17.1483H589.008V15.4307Z" fill="#898893"/>
<path d="M592.813 27.8076V18.7985H594.253V20.1289L594.59 19.6826C595.247 18.9136 596.069 18.5291 597.057 18.5291C598.05 18.5291 598.817 18.7985 599.356 19.3374C599.894 19.8763 600.164 20.6425 600.164 21.636V27.8076H598.648V22.1496C598.648 21.3581 598.494 20.7884 598.185 20.4404C597.882 20.0868 597.388 19.9099 596.703 19.9099C595.974 19.9099 595.395 20.1878 594.969 20.7435C594.542 21.2936 594.329 22.0401 594.329 22.9831V27.8076H592.813Z" fill="#898893"/>
<path d="M605.712 30.3588C606.582 30.3588 607.245 30.0837 607.699 29.5336C608.154 28.9892 608.381 28.1921 608.381 27.1425V26.8478L608.373 26.8562C607.75 27.6532 606.936 28.0518 605.931 28.0518C604.724 28.0518 603.765 27.6027 603.052 26.7046C602.339 25.8009 601.982 24.5829 601.982 23.0505C601.982 21.6977 602.333 20.606 603.035 19.7752C603.737 18.9445 604.654 18.5291 605.788 18.5291C606.872 18.5291 607.73 18.9978 608.365 19.9352L608.474 20.0952V18.7985H609.897V27.1425C609.891 28.6636 609.549 29.789 608.87 30.5187C608.191 31.2485 607.147 31.6133 605.738 31.6133C604.716 31.6133 603.905 31.3776 603.304 30.9061C602.704 30.4345 602.342 29.7497 602.218 28.8516H603.767C603.857 29.3344 604.071 29.7048 604.407 29.963C604.75 30.2269 605.185 30.3588 605.712 30.3588ZM606.007 19.9099C605.159 19.9099 604.539 20.1794 604.146 20.7182C603.759 21.2571 603.565 22.1131 603.565 23.2862C603.565 24.392 603.776 25.2452 604.197 25.8458C604.623 26.4408 605.227 26.7383 606.007 26.7383C606.742 26.7383 607.335 26.4633 607.784 25.9132C608.233 25.3631 608.457 24.6362 608.457 23.7325C608.457 22.4583 608.252 21.5041 607.843 20.8698C607.438 20.2299 606.827 19.9099 606.007 19.9099Z" fill="#898893"/>
<path d="M620.481 28.0518C619.206 28.0518 618.204 27.6476 617.475 26.8393C616.745 26.0311 616.38 24.914 616.38 23.4883C616.38 21.9728 616.765 20.7687 617.534 19.8763C618.308 18.9782 619.347 18.5291 620.649 18.5291C621.828 18.5291 622.779 18.9669 623.503 19.8426C624.227 20.7182 624.589 21.8689 624.589 23.2947L624.573 23.8335H617.988C618.05 24.7316 618.255 25.4164 618.603 25.8879C619.03 26.4605 619.703 26.7467 620.624 26.7467C621.202 26.7467 621.707 26.5839 622.139 26.2584C622.571 25.9328 622.835 25.5175 622.931 25.0123H624.429C624.205 26.0002 623.756 26.7551 623.082 27.2772C622.409 27.7936 621.541 28.0518 620.481 28.0518ZM623.006 22.6127C622.961 21.7763 622.754 21.1252 622.383 20.6593C621.974 20.1429 621.373 19.8847 620.582 19.8847C619.784 19.8847 619.147 20.1822 618.67 20.7772C618.294 21.2431 618.067 21.8549 617.988 22.6127H623.006Z" fill="#898893"/>
<path d="M626.408 27.8076V18.7985H627.848V20.1289L628.185 19.6826C628.841 18.9136 629.664 18.5291 630.651 18.5291C631.645 18.5291 632.411 18.7985 632.95 19.3374C633.489 19.8763 633.758 20.6425 633.758 21.636V27.8076H632.243V22.1496C632.243 21.3581 632.089 20.7884 631.78 20.4404C631.477 20.0868 630.983 19.9099 630.298 19.9099C629.568 19.9099 628.99 20.1878 628.563 20.7435C628.137 21.2936 627.924 22.0401 627.924 22.9831V27.8076H626.408Z" fill="#898893"/>
<path d="M639.315 27.7992C638.799 27.8778 638.423 27.9171 638.187 27.9171C637.525 27.9171 637.056 27.7711 636.781 27.4792C636.512 27.1874 636.377 26.685 636.377 25.9721V20.0362H635.131V18.7985H636.377V16.2726H637.892V18.7985H639.315V20.0362H637.892V25.9721C637.892 26.1742 637.971 26.3342 638.128 26.452C638.291 26.5699 638.507 26.6288 638.777 26.6288H639.315V27.7992Z" fill="#898893"/>
<path d="M640.856 27.8076V18.7985H642.372V27.8076H640.856ZM640.839 15.4307H642.389V17.1483H640.839V15.4307Z" fill="#898893"/>
<path d="M647.954 27.7992C647.438 27.8778 647.062 27.9171 646.826 27.9171C646.163 27.9171 645.695 27.7711 645.42 27.4792C645.15 27.1874 645.016 26.685 645.016 25.9721V20.0362H643.769V18.7985H645.016V16.2726H646.531V18.7985H647.954V20.0362H646.531V25.9721C646.531 26.1742 646.61 26.3342 646.767 26.452C646.93 26.5699 647.146 26.6288 647.415 26.6288H647.954V27.7992Z" fill="#898893"/>
<path d="M656.753 18.7985L653.326 28.1023C652.798 29.4887 652.327 30.3953 651.911 30.8219C651.502 31.2485 650.884 31.4618 650.059 31.4618C649.79 31.4674 649.545 31.4365 649.326 31.3691V29.963C649.557 30.0472 649.846 30.0921 650.194 30.0978C650.536 30.0978 650.822 29.9574 651.052 29.6768C651.283 29.3961 651.544 28.8713 651.836 28.1023L651.861 27.9592L648.518 18.7985H650.244L652.652 26.25L655.094 18.7985H656.753Z" fill="#898893"/>
<path d="M658.445 25.9805H660.247V27.8076H658.445V25.9805Z" fill="#898893"/>
<path d="M265.473 0.176813H267.149V9.07642C267.149 10.2945 266.84 11.2347 266.223 11.897C265.611 12.5594 264.738 12.8905 263.604 12.8905C262.448 12.8905 261.555 12.5818 260.927 11.9644C260.298 11.3469 260.009 10.4965 260.06 9.41321V8.5544H261.626V9.41321C261.626 10.0699 261.788 10.5779 262.114 10.9372C262.44 11.2908 262.903 11.4676 263.503 11.4676C264.109 11.4676 264.589 11.2543 264.943 10.8277C265.297 10.3955 265.473 9.81174 265.473 9.07642V0.176813Z" fill="#898893"/>
<path d="M273.177 12.7979C271.931 12.7979 270.921 12.3601 270.146 11.4845C269.377 10.6088 268.993 9.46092 268.993 8.0408C268.993 6.61507 269.377 5.46438 270.146 4.58873C270.921 3.71308 271.931 3.27526 273.177 3.27526C274.435 3.27526 275.448 3.71308 276.217 4.58873C276.986 5.46438 277.37 6.61507 277.37 8.0408C277.37 9.46092 276.986 10.6088 276.217 11.4845C275.448 12.3601 274.435 12.7979 273.177 12.7979ZM273.177 11.4929C273.975 11.4929 274.609 11.1813 275.08 10.5583C275.552 9.93523 275.788 9.09607 275.788 8.0408C275.788 6.98554 275.552 6.14637 275.08 5.52332C274.609 4.89465 273.975 4.58031 273.177 4.58031C272.38 4.58031 271.746 4.89465 271.275 5.52332C270.809 6.14637 270.576 6.98554 270.576 8.0408C270.576 9.09607 270.809 9.93523 271.275 10.5583C271.746 11.1813 272.38 11.4929 273.177 11.4929Z" fill="#898893"/>
<path d="M279.155 12.5538V3.54469H280.671V12.5538H279.155ZM279.139 0.176813H280.688V1.89443H279.139V0.176813Z" fill="#898893"/>
<path d="M282.944 12.5538V3.54469H284.384V4.875L284.721 4.42876C285.378 3.65976 286.2 3.27526 287.188 3.27526C288.181 3.27526 288.948 3.54469 289.486 4.08355C290.025 4.62241 290.295 5.3886 290.295 6.38212V12.5538H288.779V6.89573C288.779 6.10427 288.625 5.53454 288.316 5.18653C288.013 4.8329 287.519 4.65609 286.834 4.65609C286.104 4.65609 285.526 4.93394 285.1 5.48964C284.673 6.03972 284.46 6.78627 284.46 7.72927V12.5538H282.944Z" fill="#898893"/>
<path d="M298.908 3.54469V9.35427C298.908 10.112 299.054 10.6593 299.346 10.9961C299.638 11.3273 300.112 11.4929 300.769 11.4929C301.499 11.4929 302.077 11.2122 302.503 10.6509C302.93 10.084 303.143 9.31779 303.143 8.35233V3.54469H304.659V12.5538H303.219V11.1813C303.118 11.3441 303.006 11.4985 302.882 11.6444C302.237 12.4134 301.428 12.7979 300.457 12.7979C299.436 12.7979 298.669 12.5425 298.159 12.0317C297.648 11.5209 297.392 10.7547 297.392 9.73316V3.54469H298.908Z" fill="#898893"/>
<path d="M312.102 6.15479C312.057 5.65522 311.852 5.26792 311.487 4.99288C311.128 4.71783 310.642 4.58031 310.03 4.58031C309.402 4.58031 308.922 4.68977 308.591 4.90868C308.265 5.12759 308.102 5.44754 308.102 5.86852C308.102 6.18847 308.217 6.42984 308.448 6.59262C308.678 6.7554 309.135 6.91818 309.82 7.08096L311.386 7.45142C312.262 7.66472 312.888 7.95941 313.264 8.33549C313.634 8.70596 313.819 9.22517 313.819 9.89313C313.819 10.7856 313.497 11.4929 312.851 12.0149C312.211 12.5369 311.344 12.7979 310.249 12.7979C308.981 12.7979 308.035 12.5481 307.412 12.0486C306.789 11.5434 306.444 10.7519 306.376 9.67422H307.833C307.906 10.3141 308.13 10.7772 308.506 11.0635C308.888 11.3497 309.469 11.4929 310.249 11.4929C310.929 11.4929 311.442 11.3638 311.79 11.1056C312.144 10.8474 312.321 10.4713 312.321 9.97733C312.321 9.663 312.206 9.42444 311.975 9.26166C311.745 9.09888 311.282 8.9361 310.586 8.77332L309.02 8.40285C308.172 8.20078 307.569 7.91731 307.21 7.55246C306.851 7.19322 306.671 6.68804 306.671 6.03692C306.671 5.18933 306.971 4.51857 307.572 4.02461C308.178 3.52504 308.998 3.27526 310.03 3.27526C311.08 3.27526 311.914 3.53066 312.531 4.04145C313.154 4.55225 313.485 5.25669 313.525 6.15479H312.102Z" fill="#898893"/>
<path d="M322.247 4.79922V12.5538H320.732V4.79922H319.486V3.54469H320.732V2.01231C320.732 1.34434 320.928 0.841969 321.321 0.505181C321.714 0.168394 322.304 0 323.089 0L323.755 0.0252591V1.38925L323.157 1.36399C322.865 1.36399 322.64 1.45941 322.483 1.65026C322.326 1.83549 322.247 2.10212 322.247 2.45013V3.54469H323.755V4.79922H322.247Z" fill="#898893"/>
<path d="M328.832 12.7979C327.585 12.7979 326.575 12.3601 325.801 11.4845C325.032 10.6088 324.647 9.46092 324.647 8.0408C324.647 6.61507 325.032 5.46438 325.801 4.58873C326.575 3.71308 327.585 3.27526 328.832 3.27526C330.089 3.27526 331.102 3.71308 331.871 4.58873C332.64 5.46438 333.025 6.61507 333.025 8.0408C333.025 9.46092 332.64 10.6088 331.871 11.4845C331.102 12.3601 330.089 12.7979 328.832 12.7979ZM328.832 11.4929C329.629 11.4929 330.263 11.1813 330.734 10.5583C331.206 9.93523 331.442 9.09607 331.442 8.0408C331.442 6.98554 331.206 6.14637 330.734 5.52332C330.263 4.89465 329.629 4.58031 328.832 4.58031C328.035 4.58031 327.4 4.89465 326.929 5.52332C326.463 6.14637 326.23 6.98554 326.23 8.0408C326.23 9.09607 326.463 9.93523 326.929 10.5583C327.4 11.1813 328.035 11.4929 328.832 11.4929Z" fill="#898893"/>
<path d="M334.97 12.5538V3.54469H336.409V5.08549C336.538 4.84413 336.676 4.62522 336.822 4.42876C337.394 3.65976 338.099 3.27526 338.935 3.27526C339.076 3.27526 339.219 3.30052 339.365 3.35104V4.90026L339.053 4.89184C338.234 4.89184 337.599 5.13882 337.15 5.63277C336.707 6.12111 336.485 6.81995 336.485 7.72927V12.5538H334.97Z" fill="#898893"/>
<path d="M348.609 12.5453C348.093 12.6239 347.717 12.6632 347.481 12.6632C346.819 12.6632 346.35 12.5173 346.075 12.2254C345.806 11.9335 345.671 11.4311 345.671 10.7183V4.78238H344.425V3.54469H345.671V1.01878H347.187V3.54469H348.609V4.78238H347.187V10.7183C347.187 10.9203 347.265 11.0803 347.422 11.1982C347.585 11.3161 347.801 11.375 348.071 11.375H348.609V12.5453Z" fill="#898893"/>
<path d="M350.1 12.5538V0.176813H351.615V4.76554L351.876 4.42876C352.533 3.65976 353.355 3.27526 354.343 3.27526C355.337 3.27526 356.103 3.54469 356.642 4.08355C357.181 4.62241 357.45 5.3886 357.45 6.38212V12.5538H355.935V6.76101C355.935 6.01446 355.791 5.47841 355.505 5.15285C355.219 4.82168 354.753 4.65609 354.108 4.65609C353.344 4.65609 352.738 4.93394 352.289 5.48964C351.84 6.03972 351.615 6.78627 351.615 7.72927V12.5538H350.1Z" fill="#898893"/>
<path d="M363.369 12.7979C362.095 12.7979 361.093 12.3938 360.363 11.5855C359.634 10.7772 359.269 9.66019 359.269 8.23446C359.269 6.71891 359.653 5.5149 360.422 4.62241C361.197 3.72431 362.235 3.27526 363.538 3.27526C364.716 3.27526 365.668 3.71308 366.392 4.58873C367.116 5.46438 367.478 6.61507 367.478 8.0408L367.461 8.57966H360.877C360.939 9.47776 361.144 10.1626 361.492 10.6341C361.918 11.2066 362.592 11.4929 363.512 11.4929C364.09 11.4929 364.596 11.3301 365.028 11.0045C365.46 10.679 365.724 10.2636 365.819 9.75842H367.318C367.093 10.7463 366.644 11.5013 365.971 12.0233C365.297 12.5397 364.43 12.7979 363.369 12.7979ZM365.895 7.35881C365.85 6.52245 365.642 5.87133 365.272 5.40544C364.862 4.88903 364.262 4.63083 363.47 4.63083C362.673 4.63083 362.036 4.92832 361.559 5.52332C361.183 5.98921 360.956 6.60104 360.877 7.35881H365.895Z" fill="#898893"/>
<path d="M375.78 12.5538L373.22 3.54469H374.887L376.613 10.7183L378.373 3.54469H380.057L381.867 10.7688L383.694 3.54469H385.201L382.65 12.5538H381.025L379.164 5.5149L377.405 12.5538H375.78Z" fill="#898893"/>
<path d="M388.931 12.7979C388.05 12.7979 387.351 12.5622 386.835 12.0907C386.318 11.6192 386.06 10.9821 386.06 10.1794C386.06 9.37111 386.302 8.72841 386.784 8.2513C387.273 7.77418 387.983 7.47668 388.914 7.35881L390.977 7.0978C391.146 7.08096 391.306 7.05289 391.457 7.0136C391.654 6.96308 391.805 6.86205 391.912 6.71049C392.019 6.55894 392.072 6.36809 392.072 6.13795V6.06218C392.072 5.57945 391.889 5.20337 391.525 4.93394C391.16 4.65889 390.652 4.52137 390.001 4.52137C389.378 4.52137 388.889 4.66731 388.536 4.9592C388.188 5.24547 387.977 5.67487 387.904 6.24741H386.506C386.579 5.2595 386.927 4.51857 387.551 4.02461C388.174 3.52504 389.066 3.27526 390.228 3.27526C391.323 3.27526 392.156 3.51382 392.729 3.99093C393.301 4.46244 393.587 5.15285 393.587 6.06218V11.013C393.587 11.1645 393.632 11.288 393.722 11.3834C393.818 11.4732 393.944 11.5181 394.101 11.5181C394.146 11.5181 394.21 11.5125 394.295 11.5013C394.384 11.4901 394.48 11.4732 394.581 11.4508V12.5453C394.435 12.6015 394.281 12.6464 394.118 12.6801C393.955 12.7137 393.818 12.7306 393.705 12.7306C393.133 12.7306 392.717 12.5734 392.459 12.2591C392.291 12.0514 392.17 11.7567 392.097 11.375C391.985 11.5153 391.856 11.65 391.71 11.7791C390.952 12.4583 390.026 12.7979 388.931 12.7979ZM392.072 8.98381V8.00712C391.791 8.14184 391.48 8.23446 391.137 8.28497L389.748 8.48705C389.018 8.58808 388.485 8.75928 388.148 9.00065C387.812 9.2364 387.643 9.55915 387.643 9.96891C387.643 10.4741 387.781 10.8642 388.056 11.1392C388.331 11.4087 388.721 11.5434 389.226 11.5434C390.023 11.5434 390.697 11.3273 391.247 10.8951C391.623 10.592 391.873 10.2496 391.996 9.86788C392.019 9.7949 392.035 9.67984 392.047 9.52267C392.063 9.35989 392.072 9.18027 392.072 8.98381Z" fill="#898893"/>
<path d="M399.464 12.5453C398.948 12.6239 398.572 12.6632 398.336 12.6632C397.674 12.6632 397.205 12.5173 396.93 12.2254C396.661 11.9335 396.526 11.4311 396.526 10.7183V4.78238H395.28V3.54469H396.526V1.01878H398.041V3.54469H399.464V4.78238H398.041V10.7183C398.041 10.9203 398.12 11.0803 398.277 11.1982C398.44 11.3161 398.656 11.375 398.926 11.375H399.464V12.5453Z" fill="#898893"/>
<path d="M404.626 12.7979C403.351 12.7979 402.35 12.3938 401.62 11.5855C400.89 10.7772 400.525 9.66019 400.525 8.23446C400.525 6.71891 400.91 5.5149 401.679 4.62241C402.453 3.72431 403.492 3.27526 404.794 3.27526C405.973 3.27526 406.924 3.71308 407.648 4.58873C408.372 5.46438 408.734 6.61507 408.734 8.0408L408.718 8.57966H402.133C402.195 9.47776 402.4 10.1626 402.748 10.6341C403.175 11.2066 403.848 11.4929 404.769 11.4929C405.347 11.4929 405.852 11.3301 406.284 11.0045C406.717 10.679 406.98 10.2636 407.076 9.75842H408.574C408.35 10.7463 407.901 11.5013 407.227 12.0233C406.554 12.5397 405.687 12.7979 404.626 12.7979ZM407.152 7.35881C407.107 6.52245 406.899 5.87133 406.529 5.40544C406.119 4.88903 405.518 4.63083 404.727 4.63083C403.93 4.63083 403.293 4.92832 402.815 5.52332C402.439 5.98921 402.212 6.60104 402.133 7.35881H407.152Z" fill="#898893"/>
<path d="M410.764 12.5538V3.54469H412.203V5.08549C412.332 4.84413 412.47 4.62522 412.616 4.42876C413.188 3.65976 413.893 3.27526 414.729 3.27526C414.87 3.27526 415.013 3.30052 415.159 3.35104V4.90026L414.847 4.89184C414.028 4.89184 413.393 5.13882 412.944 5.63277C412.501 6.12111 412.279 6.81995 412.279 7.72927V12.5538H410.764Z" fill="#898893"/>
<path d="M421.457 6.15479C421.412 5.65522 421.207 5.26792 420.842 4.99288C420.483 4.71783 419.997 4.58031 419.385 4.58031C418.757 4.58031 418.277 4.68977 417.946 4.90868C417.62 5.12759 417.457 5.44754 417.457 5.86852C417.457 6.18847 417.572 6.42984 417.802 6.59262C418.033 6.7554 418.49 6.91818 419.175 7.08096L420.741 7.45142C421.617 7.66472 422.242 7.95941 422.619 8.33549C422.989 8.70596 423.174 9.22517 423.174 9.89313C423.174 10.7856 422.851 11.4929 422.206 12.0149C421.566 12.5369 420.699 12.7979 419.604 12.7979C418.336 12.7979 417.39 12.5481 416.767 12.0486C416.144 11.5434 415.799 10.7519 415.731 9.67422H417.188C417.261 10.3141 417.485 10.7772 417.861 11.0635C418.243 11.3497 418.824 11.4929 419.604 11.4929C420.283 11.4929 420.797 11.3638 421.145 11.1056C421.499 10.8474 421.676 10.4713 421.676 9.97733C421.676 9.663 421.56 9.42444 421.33 9.26166C421.1 9.09888 420.637 8.9361 419.941 8.77332L418.375 8.40285C417.527 8.20078 416.924 7.91731 416.565 7.55246C416.206 7.19322 416.026 6.68804 416.026 6.03692C416.026 5.18933 416.326 4.51857 416.927 4.02461C417.533 3.52504 418.353 3.27526 419.385 3.27526C420.435 3.27526 421.269 3.53066 421.886 4.04145C422.509 4.55225 422.84 5.25669 422.88 6.15479H421.457Z" fill="#898893"/>
<path d="M424.917 12.5538V0.176813H426.433V4.76554L426.694 4.42876C427.35 3.65976 428.173 3.27526 429.161 3.27526C430.154 3.27526 430.92 3.54469 431.459 4.08355C431.998 4.62241 432.268 5.3886 432.268 6.38212V12.5538H430.752V6.76101C430.752 6.01446 430.609 5.47841 430.323 5.15285C430.036 4.82168 429.57 4.65609 428.925 4.65609C428.161 4.65609 427.555 4.93394 427.106 5.48964C426.657 6.03972 426.433 6.78627 426.433 7.72927V12.5538H424.917Z" fill="#898893"/>
<path d="M438.187 12.7979C436.912 12.7979 435.91 12.3938 435.181 11.5855C434.451 10.7772 434.086 9.66019 434.086 8.23446C434.086 6.71891 434.471 5.5149 435.24 4.62241C436.014 3.72431 437.053 3.27526 438.355 3.27526C439.534 3.27526 440.485 3.71308 441.209 4.58873C441.933 5.46438 442.295 6.61507 442.295 8.0408L442.279 8.57966H435.694C435.756 9.47776 435.961 10.1626 436.309 10.6341C436.736 11.2066 437.409 11.4929 438.33 11.4929C438.908 11.4929 439.413 11.3301 439.845 11.0045C440.277 10.679 440.541 10.2636 440.637 9.75842H442.135C441.911 10.7463 441.462 11.5013 440.788 12.0233C440.115 12.5397 439.247 12.7979 438.187 12.7979ZM440.712 7.35881C440.668 6.52245 440.46 5.87133 440.089 5.40544C439.68 4.88903 439.079 4.63083 438.288 4.63083C437.491 4.63083 436.853 4.92832 436.376 5.52332C436 5.98921 435.773 6.60104 435.694 7.35881H440.712Z" fill="#898893"/>
<path d="M447.549 12.7979C446.342 12.7979 445.383 12.3489 444.67 11.4508C443.957 10.5471 443.6 9.32901 443.6 7.79663C443.6 6.44387 443.946 5.35212 444.636 4.52137C445.326 3.69063 446.227 3.27526 447.339 3.27526C448.445 3.27526 449.32 3.74395 449.966 4.68135L450.084 4.84974V0.176813H451.599V12.5538H450.193V11.3245L449.999 11.6023C449.376 12.3994 448.56 12.7979 447.549 12.7979ZM447.633 4.63925C446.786 4.63925 446.166 4.91149 445.773 5.45596C445.38 5.99482 445.183 6.85363 445.183 8.03238C445.183 9.14378 445.394 9.99978 445.815 10.6004C446.241 11.201 446.848 11.5013 447.633 11.5013C448.369 11.5013 448.961 11.2263 449.41 10.6762C449.859 10.1205 450.084 9.38795 450.084 8.47863C450.084 7.24935 449.87 6.30354 449.444 5.64119C449.023 4.97323 448.419 4.63925 447.633 4.63925Z" fill="#898893"/>
<path d="M458.512 12.5538V3.54469H459.951V4.88342L460.263 4.47927C460.942 3.6766 461.753 3.27526 462.696 3.27526C463.505 3.27526 464.147 3.51382 464.624 3.99093C464.838 4.20423 465.003 4.4484 465.121 4.72345L465.365 4.41192C466.016 3.65414 466.794 3.27526 467.698 3.27526C468.641 3.27526 469.367 3.53346 469.878 4.04987C470.395 4.56067 470.653 5.28756 470.653 6.23057V12.5538H469.137V6.74417C469.137 6.05937 468.997 5.54015 468.716 5.18653C468.436 4.8329 468.026 4.65609 467.487 4.65609C466.83 4.65609 466.308 4.91148 465.921 5.42228C465.534 5.93307 465.34 6.62349 465.34 7.49352V12.5538H463.824V6.38212C463.824 5.82081 463.695 5.39421 463.437 5.10233C463.185 4.80484 462.814 4.65609 462.326 4.65609C461.652 4.65609 461.099 4.94236 460.667 5.5149C460.241 6.08744 460.027 6.82556 460.027 7.72927V12.5538H458.512Z" fill="#898893"/>
<path d="M476.547 12.7979C475.301 12.7979 474.29 12.3601 473.516 11.4845C472.747 10.6088 472.362 9.46092 472.362 8.0408C472.362 6.61507 472.747 5.46438 473.516 4.58873C474.29 3.71308 475.301 3.27526 476.547 3.27526C477.804 3.27526 478.817 3.71308 479.586 4.58873C480.355 5.46438 480.74 6.61507 480.74 8.0408C480.74 9.46092 480.355 10.6088 479.586 11.4845C478.817 12.3601 477.804 12.7979 476.547 12.7979ZM476.547 11.4929C477.344 11.4929 477.978 11.1813 478.449 10.5583C478.921 9.93523 479.157 9.09607 479.157 8.0408C479.157 6.98554 478.921 6.14637 478.449 5.52332C477.978 4.89465 477.344 4.58031 476.547 4.58031C475.75 4.58031 475.115 4.89465 474.644 5.52332C474.178 6.14637 473.945 6.98554 473.945 8.0408C473.945 9.09607 474.178 9.93523 474.644 10.5583C475.115 11.1813 475.75 11.4929 476.547 11.4929Z" fill="#898893"/>
<path d="M482.474 12.5538V3.54469H483.914V4.88342L484.225 4.47927C484.905 3.6766 485.716 3.27526 486.659 3.27526C487.467 3.27526 488.11 3.51382 488.587 3.99093C488.8 4.20423 488.966 4.4484 489.084 4.72345L489.328 4.41192C489.979 3.65414 490.756 3.27526 491.66 3.27526C492.603 3.27526 493.33 3.53346 493.841 4.04987C494.357 4.56067 494.615 5.28756 494.615 6.23057V12.5538H493.1V6.74417C493.1 6.05937 492.959 5.54015 492.679 5.18653C492.398 4.8329 491.988 4.65609 491.449 4.65609C490.793 4.65609 490.271 4.91148 489.883 5.42228C489.496 5.93307 489.302 6.62349 489.302 7.49352V12.5538H487.787V6.38212C487.787 5.82081 487.658 5.39421 487.4 5.10233C487.147 4.80484 486.777 4.65609 486.288 4.65609C485.615 4.65609 485.062 4.94236 484.63 5.5149C484.203 6.08744 483.99 6.82556 483.99 7.72927V12.5538H482.474Z" fill="#898893"/>
<path d="M500.509 12.7979C499.235 12.7979 498.233 12.3938 497.503 11.5855C496.774 10.7772 496.409 9.66019 496.409 8.23446C496.409 6.71891 496.793 5.5149 497.562 4.62241C498.337 3.72431 499.375 3.27526 500.677 3.27526C501.856 3.27526 502.808 3.71308 503.532 4.58873C504.256 5.46438 504.618 6.61507 504.618 8.0408L504.601 8.57966H498.017C498.079 9.47776 498.283 10.1626 498.631 10.6341C499.058 11.2066 499.732 11.4929 500.652 11.4929C501.23 11.4929 501.736 11.3301 502.168 11.0045C502.6 10.679 502.864 10.2636 502.959 9.75842H504.458C504.233 10.7463 503.784 11.5013 503.111 12.0233C502.437 12.5397 501.57 12.7979 500.509 12.7979ZM503.035 7.35881C502.99 6.52245 502.782 5.87133 502.412 5.40544C502.002 4.88903 501.402 4.63083 500.61 4.63083C499.813 4.63083 499.176 4.92832 498.699 5.52332C498.323 5.98921 498.095 6.60104 498.017 7.35881H503.035Z" fill="#898893"/>
<path d="M506.437 12.5538V3.54469H507.876V4.875L508.213 4.42876C508.87 3.65976 509.692 3.27526 510.68 3.27526C511.674 3.27526 512.44 3.54469 512.979 4.08355C513.518 4.62241 513.787 5.3886 513.787 6.38212V12.5538H512.271V6.89573C512.271 6.10427 512.117 5.53454 511.808 5.18653C511.505 4.8329 511.011 4.65609 510.326 4.65609C509.597 4.65609 509.019 4.93394 508.592 5.48964C508.165 6.03972 507.952 6.78627 507.952 7.72927V12.5538H506.437Z" fill="#898893"/>
<path d="M519.344 12.5453C518.828 12.6239 518.451 12.6632 518.216 12.6632C517.553 12.6632 517.085 12.5173 516.81 12.2254C516.54 11.9335 516.405 11.4311 516.405 10.7183V4.78238H515.159V3.54469H516.405V1.01878H517.921V3.54469H519.344V4.78238H517.921V10.7183C517.921 10.9203 518 11.0803 518.157 11.1982C518.32 11.3161 518.536 11.375 518.805 11.375H519.344V12.5453Z" fill="#898893"/>
<path d="M528.942 12.5453C528.426 12.6239 528.05 12.6632 527.814 12.6632C527.152 12.6632 526.683 12.5173 526.408 12.2254C526.139 11.9335 526.004 11.4311 526.004 10.7183V4.78238H524.758V3.54469H526.004V1.01878H527.519V3.54469H528.942V4.78238H527.519V10.7183C527.519 10.9203 527.598 11.0803 527.755 11.1982C527.918 11.3161 528.134 11.375 528.404 11.375H528.942V12.5453Z" fill="#898893"/>
<path d="M530.433 12.5538V0.176813H531.948V4.76554L532.209 4.42876C532.866 3.65976 533.688 3.27526 534.676 3.27526C535.67 3.27526 536.436 3.54469 536.975 4.08355C537.514 4.62241 537.783 5.3886 537.783 6.38212V12.5538H536.267V6.76101C536.267 6.01446 536.124 5.47841 535.838 5.15285C535.552 4.82168 535.086 4.65609 534.44 4.65609C533.677 4.65609 533.071 4.93394 532.622 5.48964C532.173 6.03972 531.948 6.78627 531.948 7.72927V12.5538H530.433Z" fill="#898893"/>
<path d="M542.405 12.7979C541.524 12.7979 540.825 12.5622 540.309 12.0907C539.793 11.6192 539.534 10.9821 539.534 10.1794C539.534 9.37111 539.776 8.72841 540.258 8.2513C540.747 7.77418 541.457 7.47668 542.389 7.35881L544.451 7.0978C544.62 7.08096 544.78 7.05289 544.931 7.0136C545.128 6.96308 545.279 6.86205 545.386 6.71049C545.493 6.55894 545.546 6.36809 545.546 6.13795V6.06218C545.546 5.57945 545.364 5.20337 544.999 4.93394C544.634 4.65889 544.126 4.52137 543.475 4.52137C542.852 4.52137 542.363 4.66731 542.01 4.9592C541.662 5.24547 541.451 5.67487 541.378 6.24741H539.981C540.054 5.2595 540.402 4.51857 541.025 4.02461C541.648 3.52504 542.54 3.27526 543.702 3.27526C544.797 3.27526 545.63 3.51382 546.203 3.99093C546.775 4.46244 547.062 5.15285 547.062 6.06218V11.013C547.062 11.1645 547.106 11.288 547.196 11.3834C547.292 11.4732 547.418 11.5181 547.575 11.5181C547.62 11.5181 547.685 11.5125 547.769 11.5013C547.859 11.4901 547.954 11.4732 548.055 11.4508V12.5453C547.909 12.6015 547.755 12.6464 547.592 12.6801C547.429 12.7137 547.292 12.7306 547.179 12.7306C546.607 12.7306 546.191 12.5734 545.933 12.2591C545.765 12.0514 545.644 11.7567 545.571 11.375C545.459 11.5153 545.33 11.65 545.184 11.7791C544.426 12.4583 543.5 12.7979 542.405 12.7979ZM545.546 8.98381V8.00712C545.265 8.14184 544.954 8.23446 544.611 8.28497L543.222 8.48705C542.492 8.58808 541.959 8.75928 541.622 9.00065C541.286 9.2364 541.117 9.55915 541.117 9.96891C541.117 10.4741 541.255 10.8642 541.53 11.1392C541.805 11.4087 542.195 11.5434 542.7 11.5434C543.497 11.5434 544.171 11.3273 544.721 10.8951C545.097 10.592 545.347 10.2496 545.47 9.86788C545.493 9.7949 545.51 9.67984 545.521 9.52267C545.538 9.35989 545.546 9.18027 545.546 8.98381Z" fill="#898893"/>
<path d="M552.938 12.5453C552.422 12.6239 552.046 12.6632 551.81 12.6632C551.148 12.6632 550.679 12.5173 550.404 12.2254C550.135 11.9335 550 11.4311 550 10.7183V4.78238H548.754V3.54469H550V1.01878H551.516V3.54469H552.938V4.78238H551.516V10.7183C551.516 10.9203 551.594 11.0803 551.751 11.1982C551.914 11.3161 552.13 11.375 552.4 11.375H552.938V12.5453Z" fill="#898893"/>
<path d="M560.912 12.5538L558.352 3.54469H560.019L561.745 10.7183L563.505 3.54469H565.189L566.999 10.7688L568.826 3.54469H570.334L567.782 12.5538H566.157L564.297 5.5149L562.537 12.5538H560.912Z" fill="#898893"/>
<path d="M571.74 12.5538V3.54469H573.255V12.5538H571.74ZM571.723 0.176813H573.272V1.89443H571.723V0.176813Z" fill="#898893"/>
<path d="M575.562 12.5538V0.176813H577.078V12.5538H575.562Z" fill="#898893"/>
<path d="M579.402 12.5538V0.176813H580.917V12.5538H579.402Z" fill="#898893"/>
<path d="M591.442 12.7979C590.235 12.7979 589.275 12.3489 588.562 11.4508C587.849 10.5471 587.493 9.32901 587.493 7.79663C587.493 6.44387 587.838 5.35212 588.529 4.52137C589.219 3.69063 590.12 3.27526 591.231 3.27526C592.337 3.27526 593.213 3.74395 593.858 4.68135L593.976 4.84974V0.176813H595.492V12.5538H594.085V11.3245L593.892 11.6023C593.269 12.3994 592.452 12.7979 591.442 12.7979ZM591.526 4.63925C590.678 4.63925 590.058 4.91149 589.665 5.45596C589.272 5.99482 589.076 6.85363 589.076 8.03238C589.076 9.14378 589.286 9.99978 589.707 10.6004C590.134 11.201 590.74 11.5013 591.526 11.5013C592.261 11.5013 592.853 11.2263 593.302 10.6762C593.752 10.1205 593.976 9.38795 593.976 8.47863C593.976 7.24935 593.763 6.30354 593.336 5.64119C592.915 4.97323 592.312 4.63925 591.526 4.63925Z" fill="#898893"/>
<path d="M601.276 12.7979C600.002 12.7979 599 12.3938 598.27 11.5855C597.54 10.7772 597.176 9.66019 597.176 8.23446C597.176 6.71891 597.56 5.5149 598.329 4.62241C599.104 3.72431 600.142 3.27526 601.444 3.27526C602.623 3.27526 603.574 3.71308 604.299 4.58873C605.023 5.46438 605.385 6.61507 605.385 8.0408L605.368 8.57966H598.784C598.845 9.47776 599.05 10.1626 599.398 10.6341C599.825 11.2066 600.499 11.4929 601.419 11.4929C601.997 11.4929 602.502 11.3301 602.935 11.0045C603.367 10.679 603.631 10.2636 603.726 9.75842H605.225C605 10.7463 604.551 11.5013 603.878 12.0233C603.204 12.5397 602.337 12.7979 601.276 12.7979ZM603.802 7.35881C603.757 6.52245 603.549 5.87133 603.179 5.40544C602.769 4.88903 602.168 4.63083 601.377 4.63083C600.58 4.63083 599.943 4.92832 599.466 5.52332C599.09 5.98921 598.862 6.60104 598.784 7.35881H603.802Z" fill="#898893"/>
<path d="M609.089 4.79922V12.5538H607.574V4.79922H606.328V3.54469H607.574V2.01231C607.574 1.34434 607.77 0.841969 608.163 0.505181C608.556 0.168394 609.146 0 609.931 0L610.596 0.0252591V1.38925L609.999 1.36399C609.707 1.36399 609.482 1.45941 609.325 1.65026C609.168 1.83549 609.089 2.10212 609.089 2.45013V3.54469H610.596V4.79922H609.089Z" fill="#898893"/>
<path d="M612.053 12.5538V3.54469H613.569V12.5538H612.053ZM612.036 0.176813H613.586V1.89443H612.036V0.176813Z" fill="#898893"/>
<path d="M615.842 12.5538V3.54469H617.282V4.875L617.619 4.42876C618.275 3.65976 619.098 3.27526 620.085 3.27526C621.079 3.27526 621.845 3.54469 622.384 4.08355C622.923 4.62241 623.192 5.3886 623.192 6.38212V12.5538H621.677V6.89573C621.677 6.10427 621.522 5.53454 621.214 5.18653C620.911 4.8329 620.417 4.65609 619.732 4.65609C619.002 4.65609 618.424 4.93394 617.997 5.48964C617.571 6.03972 617.358 6.78627 617.358 7.72927V12.5538H615.842Z" fill="#898893"/>
<path d="M629.111 12.7979C627.837 12.7979 626.835 12.3938 626.106 11.5855C625.376 10.7772 625.011 9.66019 625.011 8.23446C625.011 6.71891 625.396 5.5149 626.164 4.62241C626.939 3.72431 627.978 3.27526 629.28 3.27526C630.459 3.27526 631.41 3.71308 632.134 4.58873C632.858 5.46438 633.22 6.61507 633.22 8.0408L633.203 8.57966H626.619C626.681 9.47776 626.886 10.1626 627.234 10.6341C627.66 11.2066 628.334 11.4929 629.255 11.4929C629.833 11.4929 630.338 11.3301 630.77 11.0045C631.202 10.679 631.466 10.2636 631.562 9.75842H633.06C632.836 10.7463 632.387 11.5013 631.713 12.0233C631.039 12.5397 630.172 12.7979 629.111 12.7979ZM631.637 7.35881C631.592 6.52245 631.385 5.87133 631.014 5.40544C630.605 4.88903 630.004 4.63083 629.212 4.63083C628.415 4.63083 627.778 4.92832 627.301 5.52332C626.925 5.98921 626.698 6.60104 626.619 7.35881H631.637Z" fill="#898893"/>
<path d="M643.509 12.7979C642.263 12.7979 641.253 12.3601 640.478 11.4845C639.709 10.6088 639.324 9.46092 639.324 8.0408C639.324 6.61507 639.709 5.46438 640.478 4.58873C641.253 3.71308 642.263 3.27526 643.509 3.27526C644.766 3.27526 645.78 3.71308 646.549 4.58873C647.318 5.46438 647.702 6.61507 647.702 8.0408C647.702 9.46092 647.318 10.6088 646.549 11.4845C645.78 12.3601 644.766 12.7979 643.509 12.7979ZM643.509 11.4929C644.306 11.4929 644.94 11.1813 645.412 10.5583C645.883 9.93523 646.119 9.09607 646.119 8.0408C646.119 6.98554 645.883 6.14637 645.412 5.52332C644.94 4.89465 644.306 4.58031 643.509 4.58031C642.712 4.58031 642.078 4.89465 641.606 5.52332C641.14 6.14637 640.907 6.98554 640.907 8.0408C640.907 9.09607 641.14 9.93523 641.606 10.5583C642.078 11.1813 642.712 11.4929 643.509 11.4929Z" fill="#898893"/>
<path d="M651.003 3.54469V9.35427C651.003 10.112 651.149 10.6593 651.44 10.9961C651.732 11.3273 652.207 11.4929 652.863 11.4929C653.593 11.4929 654.171 11.2122 654.598 10.6509C655.024 10.084 655.238 9.31779 655.238 8.35233V3.54469H656.753V12.5538H655.313V11.1813C655.212 11.3441 655.1 11.4985 654.977 11.6444C654.331 12.4134 653.523 12.7979 652.552 12.7979C651.53 12.7979 650.764 12.5425 650.253 12.0317C649.742 11.5209 649.487 10.7547 649.487 9.73316V3.54469H651.003Z" fill="#898893"/>
<path d="M659.245 12.5538V3.54469H660.685V5.08549C660.814 4.84413 660.952 4.62522 661.098 4.42876C661.67 3.65976 662.375 3.27526 663.211 3.27526C663.352 3.27526 663.495 3.30052 663.641 3.35104V4.90026L663.329 4.89184C662.509 4.89184 661.875 5.13882 661.426 5.63277C660.983 6.12111 660.761 6.81995 660.761 7.72927V12.5538H659.245Z" fill="#898893"/>
<path d="M671.462 4.79922V12.5538H669.947V4.79922H668.701V3.54469H669.947V2.01231C669.947 1.34434 670.143 0.841969 670.536 0.505181C670.929 0.168394 671.519 0 672.304 0L672.97 0.0252591V1.38925L672.372 1.36399C672.08 1.36399 671.855 1.45941 671.698 1.65026C671.541 1.83549 671.462 2.10212 671.462 2.45013V3.54469H672.97V4.79922H671.462Z" fill="#898893"/>
<path d="M675.942 3.54469V9.35427C675.942 10.112 676.088 10.6593 676.38 10.9961C676.671 11.3273 677.146 11.4929 677.802 11.4929C678.532 11.4929 679.11 11.2122 679.537 10.6509C679.964 10.084 680.177 9.31779 680.177 8.35233V3.54469H681.692V12.5538H680.253V11.1813C680.152 11.3441 680.039 11.4985 679.916 11.6444C679.27 12.4134 678.462 12.7979 677.491 12.7979C676.469 12.7979 675.703 12.5425 675.192 12.0317C674.682 11.5209 674.426 10.7547 674.426 9.73316V3.54469H675.942Z" fill="#898893"/>
<path d="M687.283 12.5453C686.767 12.6239 686.391 12.6632 686.155 12.6632C685.492 12.6632 685.024 12.5173 684.749 12.2254C684.479 11.9335 684.345 11.4311 684.345 10.7183V4.78238H683.098V3.54469H684.345V1.01878H685.86V3.54469H687.283V4.78238H685.86V10.7183C685.86 10.9203 685.939 11.0803 686.096 11.1982C686.259 11.3161 686.475 11.375 686.744 11.375H687.283V12.5453Z" fill="#898893"/>
<path d="M690.339 3.54469V9.35427C690.339 10.112 690.485 10.6593 690.777 10.9961C691.069 11.3273 691.543 11.4929 692.2 11.4929C692.93 11.4929 693.508 11.2122 693.935 10.6509C694.361 10.084 694.574 9.31779 694.574 8.35233V3.54469H696.09V12.5538H694.65V11.1813C694.549 11.3441 694.437 11.4985 694.313 11.6444C693.668 12.4134 692.86 12.7979 691.889 12.7979C690.867 12.7979 690.101 12.5425 689.59 12.0317C689.079 11.5209 688.824 10.7547 688.824 9.73316V3.54469H690.339Z" fill="#898893"/>
<path d="M698.582 12.5538V3.54469H700.022V5.08549C700.151 4.84413 700.289 4.62522 700.435 4.42876C701.007 3.65976 701.712 3.27526 702.548 3.27526C702.688 3.27526 702.831 3.30052 702.977 3.35104V4.90026L702.666 4.89184C701.846 4.89184 701.212 5.13882 700.763 5.63277C700.32 6.12111 700.098 6.81995 700.098 7.72927V12.5538H698.582Z" fill="#898893"/>
<path d="M707.785 12.7979C706.511 12.7979 705.509 12.3938 704.779 11.5855C704.049 10.7772 703.685 9.66019 703.685 8.23446C703.685 6.71891 704.069 5.5149 704.838 4.62241C705.613 3.72431 706.651 3.27526 707.953 3.27526C709.132 3.27526 710.083 3.71308 710.808 4.58873C711.532 5.46438 711.894 6.61507 711.894 8.0408L711.877 8.57966H705.293C705.354 9.47776 705.559 10.1626 705.907 10.6341C706.334 11.2066 707.008 11.4929 707.928 11.4929C708.506 11.4929 709.011 11.3301 709.444 11.0045C709.876 10.679 710.14 10.2636 710.235 9.75842H711.734C711.509 10.7463 711.06 11.5013 710.387 12.0233C709.713 12.5397 708.846 12.7979 707.785 12.7979ZM710.311 7.35881C710.266 6.52245 710.058 5.87133 709.688 5.40544C709.278 4.88903 708.677 4.63083 707.886 4.63083C707.089 4.63083 706.452 4.92832 705.975 5.52332C705.599 5.98921 705.371 6.60104 705.293 7.35881H710.311Z" fill="#898893"/>
<path d="M714.091 10.7267H715.893V12.5538H714.091V10.7267Z" fill="#898893"/>
</svg>
