<svg width="472" height="257" viewBox="0 0 472 257" fill="none" xmlns="http://www.w3.org/2000/svg">
<path d="M0 42.3455V41.2844H16.5007V42.3455H8.86052V60.2257H7.64021V42.3455H0Z" fill="#C3BDE3"/>
<path d="M17.583 60.2257V41.2844H18.8033V49.349H18.8564C19.3339 48.4294 20.0502 47.6777 21.0052 47.0941C21.9602 46.5105 23.154 46.2187 24.5865 46.2187C26.0368 46.2187 27.1952 46.4221 28.0618 46.8288C28.946 47.2179 29.5827 47.7131 29.9718 48.3144C30.3609 48.8981 30.5997 49.4728 30.6881 50.0388C30.7765 50.587 30.8207 51.1884 30.8207 51.8427V60.2257H29.6004V51.8958C29.6004 51.1707 29.5208 50.534 29.3617 49.9857C29.2025 49.4198 28.9372 48.9334 28.5658 48.5267C28.1944 48.1199 27.6727 47.8104 27.0006 47.5982C26.3463 47.3859 25.5327 47.2798 24.56 47.2798C23.605 47.2798 22.7561 47.4213 22.0133 47.7043C21.2882 47.9696 20.6868 48.341 20.2093 48.8185C19.7318 49.296 19.3781 49.8354 19.1482 50.4367C18.9183 51.038 18.8033 51.657 18.8033 52.2937V60.2257H17.583Z" fill="#C3BDE3"/>
<path d="M48.073 53.6997H34.2251C34.2604 55.4506 34.8441 56.8743 35.976 57.9708C37.1255 59.0496 38.6995 59.589 40.698 59.589C41.6884 59.589 42.5285 59.4564 43.2182 59.1911C43.9257 58.9258 44.4916 58.5898 44.9161 58.183C45.3405 57.7763 45.6589 57.3783 45.8711 56.9893C46.101 56.6002 46.3044 56.1757 46.4812 55.7159H47.7016C47.1356 57.396 46.2602 58.6429 45.0752 59.4564C43.908 60.2523 42.4047 60.6502 40.5654 60.6502C38.2486 60.6502 36.4093 59.9958 35.0475 58.6871C33.6857 57.3606 33.0048 55.5744 33.0048 53.3283C33.0048 52.5501 33.1374 51.7543 33.4027 50.9408C33.668 50.1272 34.0924 49.3579 34.6761 48.6328C35.2774 47.9077 36.0732 47.324 37.0636 46.8819C38.054 46.4398 39.2301 46.2187 40.5919 46.2187C42.9087 46.2187 44.7304 46.9084 46.0568 48.2879C47.3832 49.6674 48.0553 51.4713 48.073 53.6997ZM34.2251 52.6386H46.6935C46.4459 50.8523 45.7561 49.5171 44.6242 48.6328C43.5101 47.7308 42.1217 47.2798 40.4593 47.2798C38.7438 47.2798 37.3378 47.7662 36.2412 48.7389C35.1624 49.6939 34.4904 50.9938 34.2251 52.6386Z" fill="#C3BDE3"/>
<path d="M66.086 51.8427V50.7816H74.92V60.2257H73.8589V55.5567H73.8058C73.1161 57.2015 72.0284 58.466 70.5428 59.3503C69.0749 60.2169 67.4036 60.6502 65.5289 60.6502C64.0964 60.6502 62.7611 60.4291 61.5231 59.987C60.2851 59.5448 59.2151 58.8993 58.3132 58.0504C57.4112 57.1838 56.7038 56.1403 56.1909 54.92C55.6957 53.682 55.4481 52.2937 55.4481 50.7551C55.4481 49.5701 55.6515 48.394 56.0582 47.2268C56.4827 46.0595 57.1105 44.9984 57.9418 44.0433C58.773 43.0706 59.8253 42.3013 61.0986 41.7354C62.3897 41.1517 63.8665 40.8599 65.5289 40.8599C67.8811 40.8599 69.8531 41.417 71.4448 42.5312C73.0365 43.6454 74.0622 45.2106 74.5221 47.2268H73.3018C72.9127 45.5289 72.0107 44.2202 70.5958 43.3005C69.181 42.3809 67.492 41.9211 65.5289 41.9211C64.2202 41.9211 63.0087 42.151 61.8945 42.6108C60.798 43.0706 59.8607 43.7162 59.0825 44.5474C58.3043 45.3609 57.703 46.2983 57.2785 47.3594C56.8718 48.4205 56.6684 49.5524 56.6684 50.7551C56.6684 51.9577 56.8541 53.0896 57.2255 54.1507C57.6146 55.2118 58.1894 56.158 58.9498 56.9893C59.7103 57.8028 60.6477 58.4395 61.7619 58.8993C62.8761 59.3591 64.1317 59.589 65.5289 59.589C67.9165 59.589 69.8354 58.8993 71.2856 57.5198C72.7535 56.1403 73.5582 54.248 73.6997 51.8427H66.086Z" fill="#C3BDE3"/>
<path d="M78.1036 60.2257V41.2844H79.3239V60.2257H78.1036Z" fill="#C3BDE3"/>
<path d="M82.8261 53.4344C82.8261 54.2303 82.9588 54.9996 83.224 55.7424C83.507 56.4675 83.9226 57.1219 84.4709 57.7055C85.0191 58.2891 85.7 58.749 86.5136 59.085C87.3271 59.421 88.2468 59.589 89.2725 59.589C90.316 59.589 91.2445 59.421 92.058 59.085C92.8716 58.749 93.5436 58.2891 94.0742 57.7055C94.6225 57.1219 95.0292 56.4675 95.2945 55.7424C95.5775 54.9996 95.719 54.2303 95.719 53.4344C95.719 52.6386 95.5775 51.8781 95.2945 51.153C95.0292 50.4102 94.6225 49.747 94.0742 49.1633C93.5259 48.5797 92.845 48.1199 92.0315 47.7839C91.2356 47.4478 90.316 47.2798 89.2725 47.2798C88.2468 47.2798 87.3183 47.4478 86.487 47.7839C85.6735 48.1199 84.9926 48.5797 84.4444 49.1633C83.9138 49.747 83.507 50.4102 83.224 51.153C82.9588 51.8781 82.8261 52.6386 82.8261 53.4344ZM81.6058 53.4344C81.6058 52.4794 81.7738 51.5686 82.1098 50.702C82.4636 49.8177 82.9676 49.0395 83.622 48.3675C84.294 47.6954 85.1076 47.1737 86.0626 46.8023C87.0353 46.4132 88.1053 46.2187 89.2725 46.2187C90.4575 46.2187 91.5275 46.4132 92.4825 46.8023C93.4375 47.1737 94.2422 47.6954 94.8966 48.3675C95.5686 49.0395 96.0727 49.8177 96.4087 50.702C96.7624 51.5686 96.9393 52.4794 96.9393 53.4344C96.9393 54.3895 96.7624 55.3091 96.4087 56.1934C96.0727 57.06 95.5686 57.8293 94.8966 58.5014C94.2422 59.1734 93.4375 59.704 92.4825 60.0931C91.5275 60.4645 90.4575 60.6502 89.2725 60.6502C88.1053 60.6502 87.0353 60.4645 86.0626 60.0931C85.1076 59.704 84.294 59.1734 83.622 58.5014C82.9676 57.8293 82.4636 57.06 82.1098 56.1934C81.7738 55.3091 81.6058 54.3895 81.6058 53.4344Z" fill="#C3BDE3"/>
<path d="M99.1115 60.2257V41.2844H100.332V49.5347H100.385C100.862 48.6328 101.605 47.8546 102.613 47.2002C103.621 46.5459 104.886 46.2187 106.407 46.2187C107.433 46.2187 108.388 46.3955 109.272 46.7493C110.156 47.0853 110.926 47.5716 111.58 48.2083C112.234 48.845 112.738 49.6055 113.092 50.4898C113.463 51.3741 113.649 52.3468 113.649 53.4079C113.649 54.3806 113.49 55.3091 113.172 56.1934C112.871 57.06 112.411 57.8293 111.792 58.5014C111.191 59.1734 110.43 59.704 109.511 60.0931C108.609 60.4645 107.574 60.6502 106.407 60.6502C104.797 60.6502 103.48 60.323 102.454 59.6686C101.446 58.9966 100.756 58.1919 100.385 57.2545H100.332V60.2257H99.1115ZM106.539 59.589C108.273 59.589 109.688 59.0319 110.784 57.9177C111.881 56.8036 112.429 55.2914 112.429 53.3814C112.429 52.3733 112.261 51.489 111.925 50.7285C111.606 49.9504 111.164 49.3137 110.598 48.8185C110.032 48.3056 109.387 47.9253 108.662 47.6777C107.937 47.4125 107.176 47.2798 106.38 47.2798C105.638 47.2798 104.904 47.3948 104.178 47.6247C103.453 47.8369 102.79 48.1906 102.189 48.6858C101.587 49.1633 101.101 49.8177 100.73 50.6489C100.358 51.4625 100.173 52.4352 100.173 53.5671C100.173 54.2391 100.27 54.92 100.464 55.6098C100.677 56.2995 101.022 56.945 101.499 57.5463C101.977 58.1477 102.631 58.6429 103.462 59.0319C104.311 59.4033 105.337 59.589 106.539 59.589Z" fill="#C3BDE3"/>
<path d="M130.094 53.6997H116.246C116.281 55.4506 116.865 56.8743 117.997 57.9708C119.146 59.0496 120.72 59.589 122.719 59.589C123.709 59.589 124.549 59.4564 125.239 59.1911C125.946 58.9258 126.512 58.5898 126.937 58.183C127.361 57.7763 127.68 57.3783 127.892 56.9893C128.122 56.6002 128.325 56.1757 128.502 55.7159H129.722C129.156 57.396 128.281 58.6429 127.096 59.4564C125.929 60.2523 124.425 60.6502 122.586 60.6502C120.269 60.6502 118.43 59.9958 117.068 58.6871C115.706 57.3606 115.025 55.5744 115.025 53.3283C115.025 52.5501 115.158 51.7543 115.423 50.9408C115.689 50.1272 116.113 49.3579 116.697 48.6328C117.298 47.9077 118.094 47.324 119.084 46.8819C120.075 46.4398 121.251 46.2187 122.613 46.2187C124.929 46.2187 126.751 46.9084 128.078 48.2879C129.404 49.6674 130.076 51.4713 130.094 53.6997ZM116.246 52.6386H128.714C128.467 50.8523 127.777 49.5171 126.645 48.6328C125.531 47.7308 124.142 47.2798 122.48 47.2798C120.764 47.2798 119.358 47.7662 118.262 48.7389C117.183 49.6939 116.511 50.9938 116.246 52.6386Z" fill="#C3BDE3"/>
<path d="M138.344 53.4344C138.344 54.2303 138.477 54.9996 138.742 55.7424C139.025 56.4675 139.441 57.1219 139.989 57.7055C140.537 58.2891 141.218 58.749 142.032 59.085C142.845 59.421 143.765 59.589 144.791 59.589C145.834 59.589 146.763 59.421 147.576 59.085C148.39 58.749 149.062 58.2891 149.592 57.7055C150.141 57.1219 150.547 56.4675 150.813 55.7424C151.096 54.9996 151.237 54.2303 151.237 53.4344C151.237 52.6386 151.096 51.8781 150.813 51.153C150.547 50.4102 150.141 49.747 149.592 49.1633C149.044 48.5797 148.363 48.1199 147.55 47.7839C146.754 47.4478 145.834 47.2798 144.791 47.2798C143.765 47.2798 142.836 47.4478 142.005 47.7839C141.192 48.1199 140.511 48.5797 139.962 49.1633C139.432 49.747 139.025 50.4102 138.742 51.153C138.477 51.8781 138.344 52.6386 138.344 53.4344ZM137.124 53.4344C137.124 52.4794 137.292 51.5686 137.628 50.702C137.982 49.8177 138.486 49.0395 139.14 48.3675C139.812 47.6954 140.626 47.1737 141.581 46.8023C142.553 46.4132 143.623 46.2187 144.791 46.2187C145.976 46.2187 147.046 46.4132 148.001 46.8023C148.956 47.1737 149.76 47.6954 150.415 48.3675C151.087 49.0395 151.591 49.8177 151.927 50.702C152.281 51.5686 152.457 52.4794 152.457 53.4344C152.457 54.3895 152.281 55.3091 151.927 56.1934C151.591 57.06 151.087 57.8293 150.415 58.5014C149.76 59.1734 148.956 59.704 148.001 60.0931C147.046 60.4645 145.976 60.6502 144.791 60.6502C143.623 60.6502 142.553 60.4645 141.581 60.0931C140.626 59.704 139.812 59.1734 139.14 58.5014C138.486 57.8293 137.982 57.06 137.628 56.1934C137.292 55.3091 137.124 54.3895 137.124 53.4344Z" fill="#C3BDE3"/>
<path d="M156.062 60.2257V47.7043H152.879V46.6431H156.062V44.6004C156.062 43.4332 156.301 42.5666 156.778 42.0006C157.274 41.417 158.184 41.1252 159.511 41.1252C159.9 41.1252 160.563 41.1783 161.501 41.2844H161.607V42.3455C161.324 42.2925 161.005 42.2571 160.652 42.2394C160.298 42.204 159.971 42.1863 159.67 42.1863C159.422 42.1863 159.175 42.204 158.927 42.2394C158.697 42.2571 158.45 42.3367 158.184 42.4782C157.937 42.602 157.725 42.8053 157.548 43.0883C157.371 43.3713 157.282 43.7515 157.282 44.229V46.6431H161.209V47.7043H157.282V60.2257H156.062Z" fill="#C3BDE3"/>
<path d="M167.617 53.965H168.838C168.855 55.7866 169.448 57.1838 170.615 58.1565C171.8 59.1115 173.631 59.589 176.107 59.589C177.238 59.589 178.211 59.4829 179.025 59.2707C179.838 59.0408 180.493 58.7313 180.988 58.3422C181.501 57.9531 181.872 57.511 182.102 57.0158C182.332 56.5029 182.447 55.9546 182.447 55.371C182.447 54.8228 182.367 54.3541 182.208 53.965C182.067 53.5759 181.81 53.231 181.439 52.9304C181.085 52.6297 180.581 52.3645 179.927 52.1345C179.29 51.9046 178.468 51.6835 177.459 51.4713L173.931 50.7285C171.827 50.2864 170.341 49.7028 169.474 48.9776C168.626 48.2525 168.201 47.1825 168.201 45.7677C168.201 44.2998 168.82 43.1148 170.058 42.2129C171.314 41.3109 173.082 40.8599 175.364 40.8599C177.84 40.8599 179.759 41.3374 181.12 42.2925C182.5 43.2298 183.225 44.68 183.296 46.6431H182.075C182.04 46.0418 181.907 45.467 181.678 44.9188C181.465 44.3705 181.12 43.8753 180.643 43.4332C180.183 42.9734 179.538 42.6108 178.706 42.3455C177.893 42.0625 176.894 41.9211 175.709 41.9211C174.594 41.9211 173.639 42.0183 172.844 42.2129C172.048 42.4074 171.411 42.6815 170.933 43.0353C170.456 43.3713 170.111 43.7781 169.899 44.2556C169.687 44.7154 169.581 45.2283 169.581 45.7942C169.581 46.8377 169.89 47.6335 170.509 48.1818C171.128 48.73 172.313 49.181 174.064 49.5347L177.964 50.3041C179.962 50.6932 181.439 51.2591 182.394 52.0019C183.349 52.7447 183.826 53.8412 183.826 55.2914C183.826 55.9812 183.694 56.6444 183.428 57.2811C183.181 57.9001 182.765 58.466 182.182 58.9789C181.598 59.4918 180.811 59.8985 179.821 60.1992C178.83 60.4999 177.628 60.6502 176.213 60.6502C174.709 60.6502 173.401 60.4999 172.286 60.1992C171.19 59.8809 170.297 59.4299 169.607 58.8462C168.917 58.2449 168.413 57.5375 168.095 56.724C167.777 55.9104 167.617 54.9908 167.617 53.965Z" fill="#C3BDE3"/>
<path d="M199.902 50.9142H198.682C198.647 50.4898 198.479 50.0653 198.178 49.6409C197.877 49.1987 197.471 48.8008 196.958 48.4471C196.445 48.0934 195.844 47.8104 195.154 47.5982C194.464 47.3859 193.721 47.2798 192.925 47.2798C191.882 47.2798 190.953 47.4478 190.14 47.7839C189.326 48.1199 188.645 48.5886 188.097 49.1899C187.567 49.7735 187.16 50.4456 186.877 51.206C186.612 51.9488 186.479 52.7358 186.479 53.5671C186.479 54.1684 186.594 54.8139 186.824 55.5037C187.054 56.1934 187.416 56.8478 187.911 57.4668C188.424 58.0858 189.096 58.5986 189.928 59.0054C190.777 59.3945 191.776 59.589 192.925 59.589C194.376 59.589 195.658 59.2442 196.772 58.5544C197.886 57.847 198.585 56.8212 198.868 55.4771H200.088C199.752 57.175 198.921 58.466 197.594 59.3503C196.286 60.2169 194.729 60.6502 192.925 60.6502C191.829 60.6502 190.803 60.4822 189.848 60.1461C188.911 59.8101 188.097 59.3238 187.407 58.6871C186.718 58.0504 186.187 57.2987 185.816 56.4322C185.444 55.5656 185.259 54.6105 185.259 53.5671C185.259 52.3998 185.453 51.3564 185.842 50.4367C186.249 49.5171 186.806 48.7477 187.514 48.1287C188.221 47.492 189.035 47.0145 189.954 46.6962C190.892 46.3779 191.882 46.2187 192.925 46.2187C193.933 46.2187 194.862 46.3513 195.711 46.6166C196.56 46.8819 197.285 47.2445 197.886 47.7043C198.505 48.1464 198.983 48.6505 199.319 49.2164C199.672 49.7647 199.867 50.3306 199.902 50.9142Z" fill="#C3BDE3"/>
<path d="M202.378 60.2257V46.6431H203.599V60.2257H202.378ZM202.378 44.0964V41.2844H203.599V44.0964H202.378Z" fill="#C3BDE3"/>
<path d="M220.949 53.6997H207.101C207.136 55.4506 207.72 56.8743 208.852 57.9708C210.001 59.0496 211.575 59.589 213.574 59.589C214.564 59.589 215.404 59.4564 216.094 59.1911C216.801 58.9258 217.367 58.5898 217.792 58.183C218.216 57.7763 218.535 57.3783 218.747 56.9893C218.977 56.6002 219.18 56.1757 219.357 55.7159H220.577C220.011 57.396 219.136 58.6429 217.951 59.4564C216.784 60.2523 215.28 60.6502 213.441 60.6502C211.124 60.6502 209.285 59.9958 207.923 58.6871C206.561 57.3606 205.88 55.5744 205.88 53.3283C205.88 52.5501 206.013 51.7543 206.278 50.9408C206.544 50.1272 206.968 49.3579 207.552 48.6328C208.153 47.9077 208.949 47.324 209.939 46.8819C210.93 46.4398 212.106 46.2187 213.468 46.2187C215.784 46.2187 217.606 46.9084 218.932 48.2879C220.259 49.6674 220.931 51.4713 220.949 53.6997ZM207.101 52.6386H219.569C219.322 50.8523 218.632 49.5171 217.5 48.6328C216.386 47.7308 214.997 47.2798 213.335 47.2798C211.619 47.2798 210.213 47.7662 209.117 48.7389C208.038 49.6939 207.366 50.9938 207.101 52.6386Z" fill="#C3BDE3"/>
<path d="M222.894 60.2257V46.6431H224.114V49.349H224.167C224.645 48.4294 225.361 47.6777 226.316 47.0941C227.271 46.5105 228.465 46.2187 229.897 46.2187C231.348 46.2187 232.506 46.4221 233.373 46.8288C234.257 47.2179 234.894 47.7131 235.283 48.3144C235.672 48.8981 235.911 49.4728 235.999 50.0388C236.087 50.587 236.132 51.1884 236.132 51.8427V60.2257H234.911V51.8958C234.911 51.1707 234.832 50.534 234.673 49.9857C234.513 49.4198 234.248 48.9334 233.877 48.5267C233.505 48.1199 232.984 47.8104 232.311 47.5982C231.657 47.3859 230.844 47.2798 229.871 47.2798C228.916 47.2798 228.067 47.4213 227.324 47.7043C226.599 47.9696 225.998 48.341 225.52 48.8185C225.043 49.296 224.689 49.8354 224.459 50.4367C224.229 51.038 224.114 51.657 224.114 52.2937V60.2257H222.894Z" fill="#C3BDE3"/>
<path d="M252.959 50.9142H251.739C251.704 50.4898 251.536 50.0653 251.235 49.6409C250.934 49.1987 250.528 48.8008 250.015 48.4471C249.502 48.0934 248.901 47.8104 248.211 47.5982C247.521 47.3859 246.778 47.2798 245.982 47.2798C244.939 47.2798 244.01 47.4478 243.197 47.7839C242.383 48.1199 241.702 48.5886 241.154 49.1899C240.624 49.7735 240.217 50.4456 239.934 51.206C239.669 51.9488 239.536 52.7358 239.536 53.5671C239.536 54.1684 239.651 54.8139 239.881 55.5037C240.111 56.1934 240.473 56.8478 240.968 57.4668C241.481 58.0858 242.153 58.5986 242.985 59.0054C243.834 59.3945 244.833 59.589 245.982 59.589C247.433 59.589 248.715 59.2442 249.829 58.5544C250.943 57.847 251.642 56.8212 251.925 55.4771H253.145C252.809 57.175 251.978 58.466 250.651 59.3503C249.343 60.2169 247.786 60.6502 245.982 60.6502C244.886 60.6502 243.86 60.4822 242.905 60.1461C241.968 59.8101 241.154 59.3238 240.464 58.6871C239.775 58.0504 239.244 57.2987 238.873 56.4322C238.501 55.5656 238.316 54.6105 238.316 53.5671C238.316 52.3998 238.51 51.3564 238.899 50.4367C239.306 49.5171 239.863 48.7477 240.571 48.1287C241.278 47.492 242.092 47.0145 243.011 46.6962C243.949 46.3779 244.939 46.2187 245.982 46.2187C246.99 46.2187 247.919 46.3513 248.768 46.6166C249.617 46.8819 250.342 47.2445 250.943 47.7043C251.562 48.1464 252.04 48.6505 252.376 49.2164C252.729 49.7647 252.924 50.3306 252.959 50.9142Z" fill="#C3BDE3"/>
<path d="M269.601 53.6997H255.754C255.789 55.4506 256.373 56.8743 257.504 57.9708C258.654 59.0496 260.228 59.589 262.227 59.589C263.217 59.589 264.057 59.4564 264.747 59.1911C265.454 58.9258 266.02 58.5898 266.445 58.183C266.869 57.7763 267.187 57.3783 267.4 56.9893C267.629 56.6002 267.833 56.1757 268.01 55.7159H269.23C268.664 57.396 267.789 58.6429 266.604 59.4564C265.436 60.2523 263.933 60.6502 262.094 60.6502C259.777 60.6502 257.938 59.9958 256.576 58.6871C255.214 57.3606 254.533 55.5744 254.533 53.3283C254.533 52.5501 254.666 51.7543 254.931 50.9408C255.196 50.1272 255.621 49.3579 256.205 48.6328C256.806 47.9077 257.602 47.324 258.592 46.8819C259.582 46.4398 260.759 46.2187 262.12 46.2187C264.437 46.2187 266.259 46.9084 267.585 48.2879C268.912 49.6674 269.584 51.4713 269.601 53.6997ZM255.754 52.6386H268.222C267.974 50.8523 267.285 49.5171 266.153 48.6328C265.039 47.7308 263.65 47.2798 261.988 47.2798C260.272 47.2798 258.866 47.7662 257.77 48.7389C256.691 49.6939 256.019 50.9938 255.754 52.6386Z" fill="#C3BDE3"/>
<path d="M288.57 55.1323V52.6386H288.516C288.145 53.0453 287.42 53.2841 286.341 53.3548L281.752 53.6732C280.496 53.7616 279.532 54.0181 278.86 54.4425C278.188 54.867 277.852 55.5567 277.852 56.5117C277.852 57.1484 277.993 57.679 278.276 58.1034C278.559 58.5279 278.931 58.8462 279.391 59.0585C279.85 59.2707 280.319 59.4122 280.797 59.4829C281.292 59.5537 281.787 59.589 282.282 59.589C283.007 59.589 283.733 59.5095 284.458 59.3503C285.2 59.1734 285.881 58.9081 286.5 58.5544C287.119 58.183 287.615 57.7144 287.986 57.1484C288.375 56.5648 288.57 55.8927 288.57 55.1323ZM278.462 50.8346H277.242C277.472 49.1368 278.064 47.943 279.019 47.2533C279.974 46.5636 281.486 46.2187 283.556 46.2187C285.643 46.2187 287.199 46.5193 288.225 47.1207C289.268 47.7043 289.79 48.73 289.79 50.198V57.8116C289.79 58.4129 289.834 58.8374 289.922 59.085C290.029 59.3149 290.285 59.4299 290.692 59.4299C291.063 59.4299 291.461 59.3591 291.886 59.2176V60.2788C291.497 60.4203 291.001 60.491 290.4 60.491C289.639 60.491 289.171 60.2699 288.994 59.8278C288.817 59.3857 288.729 58.6163 288.729 57.5198H288.676C288.322 58.1742 287.871 58.7136 287.323 59.1381C286.792 59.5625 286.217 59.8897 285.598 60.1196C284.997 60.3318 284.413 60.4733 283.847 60.5441C283.299 60.6148 282.751 60.6502 282.203 60.6502C281.672 60.6502 281.142 60.6148 280.611 60.5441C280.08 60.491 279.497 60.3407 278.86 60.0931C278.241 59.8278 277.711 59.4033 277.268 58.8197C276.844 58.2361 276.632 57.4668 276.632 56.5117C276.632 55.8397 276.764 55.2649 277.03 54.7874C277.295 54.2922 277.657 53.8943 278.117 53.5936C278.595 53.2929 279.134 53.063 279.736 52.9039C280.337 52.7447 281.009 52.6474 281.752 52.612L286.5 52.2937C287.296 52.2406 287.836 52.0992 288.119 51.8693C288.419 51.6393 288.57 51.1353 288.57 50.3571C288.57 49.349 288.198 48.5886 287.455 48.0757C286.73 47.5451 285.421 47.2798 283.529 47.2798C281.796 47.2798 280.567 47.5539 279.842 48.1022C279.117 48.6505 278.657 49.5613 278.462 50.8346Z" fill="#C3BDE3"/>
<path d="M293.153 60.2257V46.6431H294.373V49.349H294.426C294.904 48.4294 295.62 47.6777 296.575 47.0941C297.53 46.5105 298.724 46.2187 300.156 46.2187C301.607 46.2187 302.765 46.4221 303.632 46.8288C304.516 47.2179 305.153 47.7131 305.542 48.3144C305.931 48.8981 306.17 49.4728 306.258 50.0388C306.346 50.587 306.391 51.1884 306.391 51.8427V60.2257H305.17V51.8958C305.17 51.1707 305.091 50.534 304.932 49.9857C304.772 49.4198 304.507 48.9334 304.136 48.5267C303.764 48.1199 303.243 47.8104 302.571 47.5982C301.916 47.3859 301.103 47.2798 300.13 47.2798C299.175 47.2798 298.326 47.4213 297.583 47.7043C296.858 47.9696 296.257 48.341 295.779 48.8185C295.302 49.296 294.948 49.8354 294.718 50.4367C294.488 51.038 294.373 51.657 294.373 52.2937V60.2257H293.153Z" fill="#C3BDE3"/>
<path d="M321.892 60.2257V57.2545H321.839C321.468 58.1919 320.769 58.9966 319.743 59.6686C318.735 60.323 317.426 60.6502 315.817 60.6502C314.65 60.6502 313.615 60.4645 312.713 60.0931C311.811 59.704 311.051 59.1734 310.432 58.5014C309.813 57.8293 309.344 57.06 309.026 56.1934C308.725 55.3091 308.575 54.3806 308.575 53.4079C308.575 52.3468 308.752 51.3741 309.105 50.4898C309.477 49.6055 309.99 48.845 310.644 48.2083C311.298 47.5716 312.068 47.0853 312.952 46.7493C313.836 46.3955 314.791 46.2187 315.817 46.2187C317.338 46.2187 318.602 46.5459 319.611 47.2002C320.619 47.8546 321.361 48.6328 321.839 49.5347H321.892V41.2844H323.112V60.2257H321.892ZM315.684 59.589C316.887 59.589 317.904 59.4033 318.735 59.0319C319.584 58.6429 320.247 58.1477 320.725 57.5463C321.202 56.945 321.538 56.2995 321.733 55.6098C321.945 54.92 322.051 54.2391 322.051 53.5671C322.051 52.4352 321.865 51.4625 321.494 50.6489C321.14 49.8354 320.654 49.181 320.035 48.6858C319.416 48.1906 318.744 47.8369 318.019 47.6247C317.311 47.3948 316.586 47.2798 315.844 47.2798C315.048 47.2798 314.287 47.4125 313.562 47.6777C312.837 47.9253 312.191 48.3056 311.625 48.8185C311.06 49.3137 310.609 49.9504 310.273 50.7285C309.954 51.489 309.795 52.3733 309.795 53.3814C309.795 55.2914 310.343 56.8036 311.44 57.9177C312.554 59.0319 313.969 59.589 315.684 59.589Z" fill="#C3BDE3"/>
<path d="M332.067 60.2257V41.2844H333.288V60.2257H332.067Z" fill="#C3BDE3"/>
<path d="M336.365 60.2257V46.6431H337.586V49.349H337.639C338.116 48.4294 338.833 47.6777 339.788 47.0941C340.743 46.5105 341.936 46.2187 343.369 46.2187C344.819 46.2187 345.978 46.4221 346.844 46.8288C347.728 47.2179 348.365 47.7131 348.754 48.3144C349.143 48.8981 349.382 49.4728 349.47 50.0388C349.559 50.587 349.603 51.1884 349.603 51.8427V60.2257H348.383V51.8958C348.383 51.1707 348.303 50.534 348.144 49.9857C347.985 49.4198 347.72 48.9334 347.348 48.5267C346.977 48.1199 346.455 47.8104 345.783 47.5982C345.129 47.3859 344.315 47.2798 343.342 47.2798C342.387 47.2798 341.538 47.4213 340.796 47.7043C340.071 47.9696 339.469 48.341 338.992 48.8185C338.514 49.296 338.16 49.8354 337.931 50.4367C337.701 51.038 337.586 51.657 337.586 52.2937V60.2257H336.365Z" fill="#C3BDE3"/>
<path d="M352.583 60.2257V46.6431H353.803V49.349H353.856C354.334 48.4294 355.05 47.6777 356.005 47.0941C356.96 46.5105 358.154 46.2187 359.587 46.2187C361.037 46.2187 362.195 46.4221 363.062 46.8288C363.946 47.2179 364.583 47.7131 364.972 48.3144C365.361 48.8981 365.6 49.4728 365.688 50.0388C365.776 50.587 365.821 51.1884 365.821 51.8427V60.2257H364.6V51.8958C364.6 51.1707 364.521 50.534 364.362 49.9857C364.202 49.4198 363.937 48.9334 363.566 48.5267C363.194 48.1199 362.673 47.8104 362.001 47.5982C361.346 47.3859 360.533 47.2798 359.56 47.2798C358.605 47.2798 357.756 47.4213 357.013 47.7043C356.288 47.9696 355.687 48.341 355.209 48.8185C354.732 49.296 354.378 49.8354 354.148 50.4367C353.918 51.038 353.803 51.657 353.803 52.2937V60.2257H352.583Z" fill="#C3BDE3"/>
<path d="M369.225 53.4344C369.225 54.2303 369.358 54.9996 369.623 55.7424C369.906 56.4675 370.322 57.1219 370.87 57.7055C371.418 58.2891 372.099 58.749 372.913 59.085C373.726 59.421 374.646 59.589 375.671 59.589C376.715 59.589 377.643 59.421 378.457 59.085C379.271 58.749 379.943 58.2891 380.473 57.7055C381.021 57.1219 381.428 56.4675 381.693 55.7424C381.976 54.9996 382.118 54.2303 382.118 53.4344C382.118 52.6386 381.976 51.8781 381.693 51.153C381.428 50.4102 381.021 49.747 380.473 49.1633C379.925 48.5797 379.244 48.1199 378.43 47.7839C377.635 47.4478 376.715 47.2798 375.671 47.2798C374.646 47.2798 373.717 47.4478 372.886 47.7839C372.072 48.1199 371.392 48.5797 370.843 49.1633C370.313 49.747 369.906 50.4102 369.623 51.153C369.358 51.8781 369.225 52.6386 369.225 53.4344ZM368.005 53.4344C368.005 52.4794 368.173 51.5686 368.509 50.702C368.862 49.8177 369.367 49.0395 370.021 48.3675C370.693 47.6954 371.507 47.1737 372.462 46.8023C373.434 46.4132 374.504 46.2187 375.671 46.2187C376.856 46.2187 377.926 46.4132 378.881 46.8023C379.836 47.1737 380.641 47.6954 381.296 48.3675C381.968 49.0395 382.472 49.8177 382.808 50.702C383.161 51.5686 383.338 52.4794 383.338 53.4344C383.338 54.3895 383.161 55.3091 382.808 56.1934C382.472 57.06 381.968 57.8293 381.296 58.5014C380.641 59.1734 379.836 59.704 378.881 60.0931C377.926 60.4645 376.856 60.6502 375.671 60.6502C374.504 60.6502 373.434 60.4645 372.462 60.0931C371.507 59.704 370.693 59.1734 370.021 58.5014C369.367 57.8293 368.862 57.06 368.509 56.1934C368.173 55.3091 368.005 54.3895 368.005 53.4344Z" fill="#C3BDE3"/>
<path d="M390.79 60.2257L384.078 46.6431H385.457L391.4 59.0054L397.342 46.6431H398.722L392.01 60.2257H390.79Z" fill="#C3BDE3"/>
<path d="M411.393 55.1323V52.6386H411.34C410.969 53.0453 410.244 53.2841 409.165 53.3548L404.576 53.6732C403.32 53.7616 402.356 54.0181 401.684 54.4425C401.012 54.867 400.676 55.5567 400.676 56.5117C400.676 57.1484 400.817 57.679 401.1 58.1034C401.383 58.5279 401.755 58.8462 402.214 59.0585C402.674 59.2707 403.143 59.4122 403.621 59.4829C404.116 59.5537 404.611 59.589 405.106 59.589C405.831 59.589 406.556 59.5095 407.281 59.3503C408.024 59.1734 408.705 58.9081 409.324 58.5544C409.943 58.183 410.438 57.7144 410.81 57.1484C411.199 56.5648 411.393 55.8927 411.393 55.1323ZM401.286 50.8346H400.066C400.296 49.1368 400.888 47.943 401.843 47.2533C402.798 46.5636 404.31 46.2187 406.379 46.2187C408.466 46.2187 410.023 46.5193 411.048 47.1207C412.092 47.7043 412.614 48.73 412.614 50.198V57.8116C412.614 58.4129 412.658 58.8374 412.746 59.085C412.852 59.3149 413.109 59.4299 413.516 59.4299C413.887 59.4299 414.285 59.3591 414.709 59.2176V60.2788C414.32 60.4203 413.825 60.491 413.224 60.491C412.463 60.491 411.995 60.2699 411.818 59.8278C411.641 59.3857 411.553 58.6163 411.553 57.5198H411.499C411.146 58.1742 410.695 58.7136 410.147 59.1381C409.616 59.5625 409.041 59.8897 408.422 60.1196C407.821 60.3318 407.237 60.4733 406.671 60.5441C406.123 60.6148 405.575 60.6502 405.027 60.6502C404.496 60.6502 403.965 60.6148 403.435 60.5441C402.904 60.491 402.321 60.3407 401.684 60.0931C401.065 59.8278 400.534 59.4033 400.092 58.8197C399.668 58.2361 399.456 57.4668 399.456 56.5117C399.456 55.8397 399.588 55.2649 399.853 54.7874C400.119 54.2922 400.481 53.8943 400.941 53.5936C401.419 53.2929 401.958 53.063 402.559 52.9039C403.161 52.7447 403.833 52.6474 404.576 52.612L409.324 52.2937C410.12 52.2406 410.659 52.0992 410.942 51.8693C411.243 51.6393 411.393 51.1353 411.393 50.3571C411.393 49.349 411.022 48.5886 410.279 48.0757C409.554 47.5451 408.245 47.2798 406.353 47.2798C404.62 47.2798 403.391 47.5539 402.665 48.1022C401.94 48.6505 401.481 49.5613 401.286 50.8346Z" fill="#C3BDE3"/>
<path d="M417.303 46.6431V42.0537H418.524V46.6431H422.556V47.7043H418.524V57.4933C418.524 58.2715 418.718 58.7932 419.107 59.0585C419.514 59.3061 420.142 59.4299 420.991 59.4299C421.238 59.4299 421.619 59.3945 422.131 59.3238C422.308 59.3061 422.494 59.2884 422.689 59.2707V60.3318C422.176 60.438 421.486 60.491 420.619 60.491C419.257 60.491 418.364 60.2257 417.94 59.6952C417.515 59.1646 417.303 58.2096 417.303 56.8301V47.7043H414.226V46.6431H417.303Z" fill="#C3BDE3"/>
<path d="M424.451 60.2257V46.6431H425.671V60.2257H424.451ZM424.451 44.0964V41.2844H425.671V44.0964H424.451Z" fill="#C3BDE3"/>
<path d="M429.173 53.4344C429.173 54.2303 429.306 54.9996 429.571 55.7424C429.854 56.4675 430.27 57.1219 430.818 57.7055C431.366 58.2891 432.047 58.749 432.861 59.085C433.674 59.421 434.594 59.589 435.62 59.589C436.663 59.589 437.592 59.421 438.405 59.085C439.219 58.749 439.891 58.2891 440.421 57.7055C440.97 57.1219 441.376 56.4675 441.642 55.7424C441.925 54.9996 442.066 54.2303 442.066 53.4344C442.066 52.6386 441.925 51.8781 441.642 51.153C441.376 50.4102 440.97 49.747 440.421 49.1633C439.873 48.5797 439.192 48.1199 438.379 47.7839C437.583 47.4478 436.663 47.2798 435.62 47.2798C434.594 47.2798 433.665 47.4478 432.834 47.7839C432.021 48.1199 431.34 48.5797 430.791 49.1633C430.261 49.747 429.854 50.4102 429.571 51.153C429.306 51.8781 429.173 52.6386 429.173 53.4344ZM427.953 53.4344C427.953 52.4794 428.121 51.5686 428.457 50.702C428.811 49.8177 429.315 49.0395 429.969 48.3675C430.641 47.6954 431.455 47.1737 432.41 46.8023C433.382 46.4132 434.452 46.2187 435.62 46.2187C436.805 46.2187 437.875 46.4132 438.83 46.8023C439.785 47.1737 440.589 47.6954 441.244 48.3675C441.916 49.0395 442.42 49.8177 442.756 50.702C443.11 51.5686 443.286 52.4794 443.286 53.4344C443.286 54.3895 443.11 55.3091 442.756 56.1934C442.42 57.06 441.916 57.8293 441.244 58.5014C440.589 59.1734 439.785 59.704 438.83 60.0931C437.875 60.4645 436.805 60.6502 435.62 60.6502C434.452 60.6502 433.382 60.4645 432.41 60.0931C431.455 59.704 430.641 59.1734 429.969 58.5014C429.315 57.8293 428.811 57.06 428.457 56.1934C428.121 55.3091 427.953 54.3895 427.953 53.4344Z" fill="#C3BDE3"/>
<path d="M445.459 60.2257V46.6431H446.679V49.349H446.732C447.21 48.4294 447.926 47.6777 448.881 47.0941C449.836 46.5105 451.03 46.2187 452.462 46.2187C453.912 46.2187 455.071 46.4221 455.937 46.8288C456.822 47.2179 457.458 47.7131 457.847 48.3144C458.237 48.8981 458.475 49.4728 458.564 50.0388C458.652 50.587 458.696 51.1884 458.696 51.8427V60.2257H457.476V51.8958C457.476 51.1707 457.396 50.534 457.237 49.9857C457.078 49.4198 456.813 48.9334 456.441 48.5267C456.07 48.1199 455.548 47.8104 454.876 47.5982C454.222 47.3859 453.408 47.2798 452.436 47.2798C451.481 47.2798 450.632 47.4213 449.889 47.7043C449.164 47.9696 448.562 48.341 448.085 48.8185C447.607 49.296 447.254 49.8354 447.024 50.4367C446.794 51.038 446.679 51.657 446.679 52.2937V60.2257H445.459Z" fill="#C3BDE3"/>
<path d="M78.458 29.5262H60.9492V26.9795L71.932 13.9673C72.1707 13.6754 72.4758 13.2908 72.8472 12.8133C73.2451 12.3358 73.6165 11.8052 73.9614 11.2216C74.3063 10.6114 74.5981 9.97472 74.8368 9.3115C75.0756 8.62176 75.1684 7.93202 75.1154 7.24228C75.0623 6.81782 74.9429 6.35358 74.7572 5.84953C74.5715 5.31896 74.2665 4.81492 73.842 4.33741C73.4176 3.8599 72.8605 3.46197 72.1707 3.14363C71.5075 2.79876 70.6453 2.59979 69.5842 2.54674C68.3904 2.49368 67.2629 2.85181 66.2018 3.62114C65.1672 4.39047 64.305 5.57098 63.6153 7.16269L60.9492 5.96891C61.7715 3.97927 62.9521 2.49368 64.4907 1.51212C66.0559 0.504041 67.7537 0 69.5842 0C70.8045 0 71.9187 0.198964 72.9268 0.596891C73.9614 0.994819 74.8501 1.52539 75.5929 2.1886C76.3357 2.85181 76.9193 3.62114 77.3438 4.49658C77.7948 5.37202 78.0468 6.28725 78.0998 7.24228C78.1264 8.06466 78.0335 8.84725 77.8213 9.59005C77.6356 10.3063 77.357 11.0093 76.9856 11.6991C76.6408 12.3623 76.2296 13.0122 75.7521 13.6489C75.3011 14.2591 74.8236 14.8692 74.3195 15.4794L64.6499 26.9795H78.458V29.5262Z" fill="#C0B5F1"/>
<path d="M100.416 22.1248C100.416 23.4512 100.137 24.6184 99.5801 25.6265C99.0496 26.6346 98.3466 27.4835 97.4711 28.1733C96.6222 28.8365 95.6672 29.3273 94.6061 29.6456C93.5714 29.9905 92.5501 30.1629 91.542 30.1629C90.5074 30.1629 89.4595 29.9905 88.3984 29.6456C87.3372 29.3273 86.3822 28.8365 85.5333 28.1733C84.7109 27.5101 84.0344 26.6744 83.5039 25.6663C82.9733 24.6582 82.708 23.4777 82.708 22.1248V8.15751C82.708 6.91067 82.9202 5.78321 83.3447 4.77513C83.7957 3.76705 84.4058 2.91813 85.1752 2.22839C85.971 1.51212 86.8995 0.968289 87.9607 0.596891C89.0483 0.198964 90.2421 0 91.542 0C92.7358 0 93.8633 0.185699 94.9244 0.557098C96.0121 0.928497 96.9538 1.47233 97.7497 2.1886C98.5721 2.87834 99.222 3.72725 99.6995 4.73534C100.177 5.74342 100.416 6.88415 100.416 8.15751V22.1248ZM97.312 8.15751C97.312 7.22902 97.1528 6.4199 96.8344 5.73015C96.5161 5.01389 96.0917 4.43026 95.5611 3.97928C95.0305 3.50176 94.4071 3.14363 93.6908 2.90487C93.0011 2.66611 92.2848 2.54674 91.542 2.54674C90.7992 2.54674 90.0829 2.65285 89.3932 2.86508C88.7035 3.05078 88.0933 3.36912 87.5627 3.8201C87.0322 4.27109 86.6077 4.85472 86.2894 5.57098C85.971 6.28725 85.8119 7.16269 85.8119 8.19731V22.1248C85.8119 23.1329 85.9843 23.995 86.3292 24.7113C86.7006 25.401 87.1648 25.9714 87.7219 26.4224C88.279 26.8468 88.8892 27.1519 89.5524 27.3376C90.2421 27.5233 90.9053 27.6162 91.542 27.6162C92.2052 27.6162 92.8684 27.5101 93.5316 27.2978C94.2214 27.0591 94.8448 26.7142 95.4019 26.2632C95.959 25.7857 96.41 25.2153 96.7549 24.5521C97.1263 23.8624 97.312 23.0533 97.312 22.1248V8.15751Z" fill="#C0B5F1"/>
<path d="M123.169 24.8307H119.867V29.5262H116.842V24.8307H103.91V22.2839L116.842 0.636685H119.867V22.2839H123.169V24.8307ZM116.842 22.2839V5.73015L107.053 22.2839H116.842Z" fill="#C0B5F1"/>
<path d="M144.093 20.0953C144.093 21.634 143.894 23.0135 143.496 24.2338C143.124 25.4541 142.567 26.502 141.824 27.3774C141.082 28.2528 140.153 28.9293 139.039 29.4068C137.951 29.8844 136.691 30.1364 135.259 30.1629C134.118 30.1894 133.11 30.0568 132.234 29.765C131.359 29.4997 130.59 29.1548 129.926 28.7304C129.263 28.3059 128.68 27.8549 128.176 27.3774C127.698 26.8734 127.287 26.4224 126.942 26.0245L129.091 24.194C129.409 24.5919 129.754 24.9898 130.125 25.3878C130.523 25.7857 130.974 26.1571 131.478 26.502C131.982 26.8468 132.54 27.1254 133.15 27.3376C133.786 27.5498 134.489 27.656 135.259 27.656C136.24 27.656 137.089 27.4703 137.805 27.0989C138.548 26.7009 139.158 26.1704 139.636 25.5072C140.113 24.8174 140.458 24.0216 140.671 23.1196C140.909 22.1911 141.029 21.183 141.029 20.0953C141.029 19.1934 140.923 18.3047 140.71 17.4292C140.525 16.5538 140.22 15.7845 139.795 15.1212C139.371 14.4315 138.827 13.8877 138.164 13.4897C137.5 13.0653 136.691 12.8531 135.736 12.8531C134.542 12.8265 133.495 13.0388 132.593 13.4897C131.691 13.9407 131.027 14.7233 130.603 15.8375H127.778V0.636685H143.496V3.18342H130.842V12.2164C131.425 11.6062 132.142 11.1552 132.991 10.8634C133.839 10.5451 134.755 10.3859 135.736 10.3859C137.195 10.3859 138.455 10.6512 139.517 11.1818C140.578 11.7123 141.44 12.4286 142.103 13.3306C142.793 14.206 143.297 15.2406 143.615 16.4344C143.934 17.6017 144.093 18.822 144.093 20.0953Z" fill="#C0B5F1"/>
<path d="M153.715 31.0383H150.014V27.2978H153.715V31.0383Z" fill="#C0B5F1"/>
<path d="M188.626 29.5262H171.118V26.9795L182.1 13.9673C182.339 13.6754 182.644 13.2908 183.016 12.8133C183.414 12.3358 183.785 11.8052 184.13 11.2216C184.475 10.6114 184.766 9.97472 185.005 9.3115C185.244 8.62176 185.337 7.93202 185.284 7.24228C185.231 6.81782 185.111 6.35358 184.926 5.84953C184.74 5.31896 184.435 4.81492 184.01 4.33741C183.586 3.8599 183.029 3.46197 182.339 3.14363C181.676 2.79876 180.814 2.59979 179.753 2.54674C178.559 2.49368 177.431 2.85181 176.37 3.62114C175.336 4.39047 174.473 5.57098 173.784 7.16269L171.118 5.96891C171.94 3.97927 173.12 2.49368 174.659 1.51212C176.224 0.504041 177.922 0 179.753 0C180.973 0 182.087 0.198964 183.095 0.596891C184.13 0.994819 185.018 1.52539 185.761 2.1886C186.504 2.85181 187.088 3.62114 187.512 4.49658C187.963 5.37202 188.215 6.28725 188.268 7.24228C188.295 8.06466 188.202 8.84725 187.99 9.59005C187.804 10.3063 187.525 11.0093 187.154 11.6991C186.809 12.3623 186.398 13.0122 185.92 13.6489C185.469 14.2591 184.992 14.8692 184.488 15.4794L174.818 26.9795H188.626V29.5262Z" fill="#C0B5F1"/>
<path d="M198.248 31.0383H194.548V27.2978H198.248V31.0383Z" fill="#C0B5F1"/>
<path d="M227.43 29.5262H224.366V3.89969L219.909 7.56062L218.118 5.69036L224.366 0.636685H227.43V29.5262Z" fill="#C0B5F1"/>
<path d="M255.038 29.5262H237.529V26.9795L248.512 13.9673C248.751 13.6754 249.056 13.2908 249.427 12.8133C249.825 12.3358 250.197 11.8052 250.542 11.2216C250.887 10.6114 251.178 9.97472 251.417 9.3115C251.656 8.62176 251.749 7.93202 251.696 7.24228C251.643 6.81782 251.523 6.35358 251.338 5.84953C251.152 5.31896 250.847 4.81492 250.422 4.33741C249.998 3.8599 249.441 3.46197 248.751 3.14363C248.088 2.79876 247.226 2.59979 246.164 2.54674C244.971 2.49368 243.843 2.85181 242.782 3.62114C241.747 4.39047 240.885 5.57098 240.196 7.16269L237.529 5.96891C238.352 3.97927 239.532 2.49368 241.071 1.51212C242.636 0.504041 244.334 0 246.164 0C247.385 0 248.499 0.198964 249.507 0.596891C250.542 0.994819 251.43 1.52539 252.173 2.1886C252.916 2.85181 253.5 3.62114 253.924 4.49658C254.375 5.37202 254.627 6.28725 254.68 7.24228C254.707 8.06466 254.614 8.84725 254.402 9.59005C254.216 10.3063 253.937 11.0093 253.566 11.6991C253.221 12.3623 252.81 13.0122 252.332 13.6489C251.881 14.2591 251.404 14.8692 250.9 15.4794L241.23 26.9795H255.038V29.5262Z" fill="#C0B5F1"/>
<path d="M288.309 29.3079C285.573 29.3079 283.488 28.7639 282.052 27.6758C280.631 26.5877 279.664 25.0614 279.15 23.0968C278.637 21.1322 278.38 18.8351 278.38 16.2056C278.38 13.5761 278.637 11.279 279.15 9.31439C279.664 7.3498 280.631 5.82346 282.052 4.73538C283.488 3.6473 285.573 3.10326 288.309 3.10326C291.059 3.10326 293.144 3.6473 294.565 4.73538C295.986 5.82346 296.953 7.3498 297.467 9.31439C297.98 11.279 298.237 13.5761 298.237 16.2056C298.237 18.8351 297.98 21.1322 297.467 23.0968C296.953 25.0614 295.986 26.5877 294.565 27.6758C293.144 28.7639 291.059 29.3079 288.309 29.3079ZM288.309 27.8118C290.515 27.8118 292.207 27.3962 293.386 26.565C294.58 25.7188 295.396 24.4418 295.834 22.7341C296.288 21.0113 296.514 18.8351 296.514 16.2056C296.514 13.5761 296.288 11.4074 295.834 9.69976C295.396 7.97696 294.58 6.69997 293.386 5.8688C292.207 5.02251 290.515 4.59937 288.309 4.59937C286.132 4.59937 284.447 5.02251 283.253 5.8688C282.075 6.69997 281.251 7.97696 280.783 9.69976C280.329 11.4074 280.103 13.5761 280.103 16.2056C280.103 18.8351 280.329 21.0113 280.783 22.7341C281.251 24.4418 282.075 25.7188 283.253 26.565C284.447 27.3962 286.132 27.8118 288.309 27.8118Z" fill="#C0B5F1"/>
<path d="M308.814 29.2852C307.62 29.2852 306.404 29.1719 305.165 28.9452C303.926 28.7337 302.883 28.4616 302.036 28.1292C301.205 27.7816 300.79 27.4264 300.79 27.0637C300.79 26.6708 301.062 26.4744 301.606 26.4744C301.908 26.4744 302.316 26.565 302.83 26.7464C303.344 26.9126 303.827 27.0486 304.281 27.1544C304.915 27.3055 305.626 27.4416 306.411 27.5625C307.197 27.6682 307.998 27.7211 308.814 27.7211C310.174 27.7211 311.376 27.6078 312.419 27.3811C313.476 27.1544 314.368 26.6784 315.093 25.953C315.819 25.2276 316.37 24.132 316.748 22.6661C317.126 21.1851 317.315 19.1978 317.315 16.7043C316.801 16.9461 315.993 17.1879 314.889 17.4297C313.786 17.6715 312.109 17.7924 309.857 17.7924C307.62 17.7924 305.747 17.5884 304.235 17.1803C302.724 16.7723 301.583 16.0318 300.812 14.9588C300.057 13.8707 299.679 12.3293 299.679 10.3345C299.679 9.09527 299.989 7.93162 300.608 6.84354C301.243 5.74035 302.278 4.84872 303.714 4.16867C305.165 3.47351 307.114 3.12592 309.562 3.12592C311.905 3.12592 313.764 3.54151 315.139 4.37269C316.529 5.18875 317.527 6.55641 318.131 8.47566C318.751 10.3798 319.06 12.9565 319.06 16.2056C319.06 19.364 318.781 21.9029 318.222 23.8222C317.663 25.7414 316.642 27.1318 315.161 27.9932C313.68 28.8545 311.565 29.2852 308.814 29.2852ZM309.857 16.2056C311.746 16.2056 313.272 16.1376 314.436 16.0016C315.615 15.8504 316.574 15.6842 317.315 15.5029C317.315 12.7524 317.066 10.5914 316.567 9.01971C316.068 7.44803 315.245 6.33728 314.096 5.68745C312.948 5.02251 311.406 4.69004 309.472 4.69004C307.356 4.69004 305.709 4.96962 304.53 5.52877C303.366 6.08793 302.55 6.81332 302.082 7.70494C301.628 8.59656 301.402 9.53352 301.402 10.5158C301.402 12.2235 301.712 13.4854 302.331 14.3014C302.951 15.1024 303.888 15.6238 305.142 15.8656C306.396 16.0922 307.968 16.2056 309.857 16.2056Z" fill="#C0B5F1"/>
<path d="M323.358 17.5204C322.92 17.5204 322.565 17.3919 322.293 17.135C322.036 16.8781 321.908 16.5381 321.908 16.1149C321.908 15.6767 322.036 15.3215 322.293 15.0495C322.565 14.7775 322.92 14.6415 323.358 14.6415C323.766 14.6415 324.114 14.7775 324.401 15.0495C324.703 15.3215 324.854 15.6767 324.854 16.1149C324.854 16.5381 324.703 16.8781 324.401 17.135C324.114 17.3919 323.766 17.5204 323.358 17.5204ZM323.358 25.613C322.92 25.613 322.565 25.4845 322.293 25.2276C322.036 24.9707 321.908 24.6307 321.908 24.2075C321.908 23.7693 322.036 23.4141 322.293 23.1421C322.565 22.8701 322.92 22.7341 323.358 22.7341C323.766 22.7341 324.114 22.8701 324.401 23.1421C324.703 23.4141 324.854 23.7693 324.854 24.2075C324.854 24.6307 324.703 24.9707 324.401 25.2276C324.114 25.4845 323.766 25.613 323.358 25.613Z" fill="#C0B5F1"/>
<path d="M337.517 29.3079C334.782 29.3079 332.696 28.7639 331.261 27.6758C329.84 26.5877 328.873 25.0614 328.359 23.0968C327.845 21.1322 327.588 18.8351 327.588 16.2056C327.588 13.5761 327.845 11.279 328.359 9.31439C328.873 7.3498 329.84 5.82346 331.261 4.73538C332.696 3.6473 334.782 3.10326 337.517 3.10326C340.267 3.10326 342.353 3.6473 343.774 4.73538C345.194 5.82346 346.161 7.3498 346.675 9.31439C347.189 11.279 347.446 13.5761 347.446 16.2056C347.446 18.8351 347.189 21.1322 346.675 23.0968C346.161 25.0614 345.194 26.5877 343.774 27.6758C342.353 28.7639 340.267 29.3079 337.517 29.3079ZM337.517 27.8118C339.723 27.8118 341.416 27.3962 342.595 26.565C343.789 25.7188 344.605 24.4418 345.043 22.7341C345.496 21.0113 345.723 18.8351 345.723 16.2056C345.723 13.5761 345.496 11.4074 345.043 9.69976C344.605 7.97696 343.789 6.69997 342.595 5.8688C341.416 5.02251 339.723 4.59937 337.517 4.59937C335.341 4.59937 333.656 5.02251 332.462 5.8688C331.283 6.69997 330.46 7.97696 329.991 9.69976C329.538 11.4074 329.311 13.5761 329.311 16.2056C329.311 18.8351 329.538 21.0113 329.991 22.7341C330.46 24.4418 331.283 25.7188 332.462 26.565C333.656 27.3962 335.341 27.8118 337.517 27.8118Z" fill="#C0B5F1"/>
<path d="M359.224 29.3079C356.489 29.3079 354.404 28.7639 352.968 27.6758C351.547 26.5877 350.58 25.0614 350.066 23.0968C349.552 21.1322 349.296 18.8351 349.296 16.2056C349.296 13.5761 349.552 11.279 350.066 9.31439C350.58 7.3498 351.547 5.82346 352.968 4.73538C354.404 3.6473 356.489 3.10326 359.224 3.10326C361.975 3.10326 364.06 3.6473 365.481 4.73538C366.901 5.82346 367.868 7.3498 368.382 9.31439C368.896 11.279 369.153 13.5761 369.153 16.2056C369.153 18.8351 368.896 21.1322 368.382 23.0968C367.868 25.0614 366.901 26.5877 365.481 27.6758C364.06 28.7639 361.975 29.3079 359.224 29.3079ZM359.224 27.8118C361.431 27.8118 363.123 27.3962 364.302 26.565C365.496 25.7188 366.312 24.4418 366.75 22.7341C367.204 21.0113 367.43 18.8351 367.43 16.2056C367.43 13.5761 367.204 11.4074 366.75 9.69976C366.312 7.97696 365.496 6.69997 364.302 5.8688C363.123 5.02251 361.431 4.59937 359.224 4.59937C357.048 4.59937 355.363 5.02251 354.169 5.8688C352.991 6.69997 352.167 7.97696 351.698 9.69976C351.245 11.4074 351.018 13.5761 351.018 16.2056C351.018 18.8351 351.245 21.0113 351.698 22.7341C352.167 24.4418 352.991 25.7188 354.169 26.565C355.363 27.3962 357.048 27.8118 359.224 27.8118Z" fill="#C0B5F1"/>
<path d="M381.263 28.8319C380.975 28.8319 380.802 28.7865 380.741 28.6959C380.696 28.6052 380.673 28.3861 380.673 28.0385V4.64471C380.673 4.20645 380.703 3.91932 380.764 3.78331C380.824 3.6473 381.074 3.57929 381.512 3.57929H402.208C402.646 3.57929 403.032 3.60196 403.364 3.6473C403.712 3.69263 403.886 3.93443 403.886 4.37269C403.886 4.75049 403.712 4.96206 403.364 5.0074C403.032 5.05274 402.646 5.07541 402.208 5.07541H382.6V15.0042H402.095C402.427 15.0042 402.707 15.0495 402.934 15.1402C403.16 15.2308 403.274 15.4273 403.274 15.7296C403.274 16.062 403.175 16.2811 402.979 16.3869C402.798 16.4927 402.556 16.5456 402.253 16.5456H382.6V27.3358H402.253C402.692 27.3358 403.077 27.3584 403.41 27.4038C403.757 27.4491 403.931 27.6607 403.931 28.0385C403.931 28.4767 403.787 28.7185 403.5 28.7639C403.228 28.7941 402.873 28.8168 402.435 28.8319H381.263Z" fill="#C0B5F1"/>
<path d="M423.009 29.2852C420.863 29.2852 418.739 29.1492 416.639 28.8772C414.553 28.6052 412.702 28.2727 411.085 27.8798C409.483 27.4869 408.32 27.1242 407.594 26.7917C407.186 26.5953 406.982 26.3006 406.982 25.9077C406.982 25.4694 407.179 25.2503 407.571 25.2503C407.677 25.2503 407.783 25.2729 407.889 25.3183C408.675 25.6356 409.891 25.9908 411.538 26.3837C413.186 26.7615 415.044 27.094 417.115 27.3811C419.2 27.6531 421.278 27.7891 423.349 27.7891C425.359 27.7891 427.217 27.6078 428.925 27.2451C430.648 26.8673 432.031 26.2401 433.073 25.3636C434.116 24.4871 434.638 23.2932 434.638 21.782C434.638 20.5881 434.245 19.6587 433.459 18.9938C432.673 18.3137 431.615 17.8075 430.285 17.475C428.955 17.1425 427.459 16.9083 425.797 16.7723C424.15 16.6363 422.442 16.5381 420.674 16.4776C418.906 16.402 417.19 16.2811 415.528 16.1149C413.881 15.9487 412.392 15.6691 411.062 15.2762C409.733 14.8833 408.675 14.2939 407.889 13.508C407.103 12.7222 406.71 11.6719 406.71 10.3571C406.71 8.90636 407.095 7.7125 407.866 6.77554C408.652 5.82346 409.702 5.08296 411.017 4.55403C412.332 4.00999 413.805 3.63218 415.437 3.42061C417.069 3.20904 418.739 3.10326 420.447 3.10326C422.321 3.10326 424.142 3.2166 425.91 3.44328C427.678 3.65485 429.265 3.93443 430.671 4.28201C432.076 4.62959 433.164 4.98473 433.935 5.34743C434.177 5.45321 434.297 5.65723 434.297 5.95947C434.297 6.17104 434.222 6.3675 434.071 6.54885C433.935 6.7302 433.738 6.82087 433.481 6.82087C433.33 6.82087 433.202 6.79065 433.096 6.7302C431.509 6.06526 429.59 5.54389 427.338 5.16608C425.087 4.78827 422.82 4.59937 420.538 4.59937C418.452 4.59937 416.503 4.7656 414.689 5.09807C412.876 5.43054 411.41 6.00481 410.292 6.82087C409.188 7.63693 408.637 8.77035 408.637 10.2211C408.637 11.2639 409.03 12.0724 409.816 12.6466C410.601 13.2209 411.659 13.6516 412.989 13.9387C414.319 14.2108 415.808 14.4072 417.455 14.5281C419.117 14.6339 420.832 14.7397 422.601 14.8455C424.369 14.9362 426.076 15.0873 427.724 15.2989C429.386 15.5104 430.882 15.8504 432.212 16.3189C433.542 16.7874 434.6 17.4599 435.386 18.3364C436.171 19.2129 436.564 20.3615 436.564 21.782C436.564 23.2328 436.187 24.4418 435.431 25.409C434.69 26.3761 433.678 27.1469 432.393 27.7211C431.109 28.2803 429.658 28.6808 428.041 28.9226C426.424 29.1644 424.747 29.2852 423.009 29.2852Z" fill="#C0B5F1"/>
<path d="M451.584 28.8319C451.191 28.8319 450.927 28.6656 450.791 28.3332C450.67 27.9856 450.61 27.5927 450.61 27.1544V5.07541H438.391C437.968 5.07541 437.583 5.06029 437.235 5.03007C436.888 4.99984 436.714 4.79583 436.714 4.41802C436.714 3.97977 436.895 3.73041 437.258 3.66997C437.636 3.60952 438.014 3.57929 438.391 3.57929H464.709C465.148 3.57929 465.525 3.60952 465.843 3.66997C466.175 3.73041 466.342 3.97977 466.342 4.41802C466.342 4.79583 466.175 4.99984 465.843 5.03007C465.525 5.06029 465.148 5.07541 464.709 5.07541H452.536V27.1544C452.536 27.5927 452.484 27.9856 452.378 28.3332C452.287 28.6656 452.023 28.8319 451.584 28.8319Z" fill="#C0B5F1"/>
<path d="M12.7072 28.3915L21.4085 9.45017H22.788L31.4893 28.3915H30.1098L27.3244 22.29H16.8721L14.0866 28.3915H12.7072ZM22.0982 10.8296L17.3496 21.2288H26.8468L22.0982 10.8296Z" fill="#C3BDE3"/>
<path d="M33.9975 14.8089V10.2195H35.2178V14.8089H39.2502V15.8701H35.2178V25.6591C35.2178 26.4372 35.4124 26.959 35.8015 27.2243C36.2082 27.4719 36.8361 27.5957 37.685 27.5957C37.9326 27.5957 38.3128 27.5603 38.8257 27.4895C39.0026 27.4719 39.1883 27.4542 39.3828 27.4365V28.4976C38.8699 28.6037 38.1802 28.6568 37.3136 28.6568C35.9518 28.6568 35.0587 28.3915 34.6342 27.8609C34.2097 27.3304 33.9975 26.3753 33.9975 24.9959V15.8701H30.9202V14.8089H33.9975Z" fill="#C3BDE3"/>
<path d="M234.963 256.324C234.977 256.055 235.003 255.786 235.003 255.518C235.003 234.4 235.001 213.282 234.999 192.164C234.998 186.145 234.996 180.126 234.994 174.107C234.994 173.882 234.994 173.658 234.994 173.383H238.957C238.967 173.673 238.985 173.955 238.985 174.238C238.983 181.819 238.973 189.4 238.978 196.98C238.99 215.745 239.01 234.51 239.026 253.274C239.027 254.128 239.027 254.982 239.02 255.836C239.019 255.999 238.983 256.161 238.963 256.324L234.963 256.324Z" fill="#BDB3F4"/>
<path d="M466.463 256.324C466.468 252.325 466.474 248.326 466.476 244.327C466.487 224.123 466.499 203.919 466.507 183.715C466.508 180.507 466.489 177.299 466.479 174.092C466.478 173.869 466.479 173.646 466.479 173.363C467.81 173.35 469.074 173.337 470.338 173.324V256.324H466.463Z" fill="#BDB3F4"/>
<path d="M241.088 256.324C241.078 256.075 241.059 255.825 241.059 255.576C241.057 235.351 241.056 215.125 241.054 194.899C241.053 187.984 241.047 181.068 241.044 174.153C241.044 173.909 241.044 173.666 241.044 173.381H244.687C244.699 173.6 244.718 173.782 244.718 173.963C244.719 201.354 244.718 228.745 244.717 256.137C244.717 256.199 244.715 256.262 244.713 256.324L241.088 256.324Z" fill="#BDB3F4"/>
<path d="M460.838 256.324C460.824 255.93 460.798 255.535 460.798 255.141C460.799 236.147 460.804 217.154 460.803 198.16C460.802 190.163 460.79 182.166 460.783 174.168C460.783 173.923 460.783 173.677 460.783 173.386H464.41C464.419 173.622 464.436 173.862 464.436 174.102C464.441 182.328 464.445 190.555 464.447 198.781C464.451 217.587 464.454 236.393 464.458 255.2C464.458 255.574 464.461 255.949 464.463 256.324L460.838 256.324Z" fill="#BDB3F4"/>
<path d="M417.963 256.324C417.927 256.254 417.907 256.14 417.852 256.119C416.008 255.414 414.867 253.978 413.957 252.327C413.268 251.077 412.907 249.71 412.66 248.309C412.281 246.159 412.274 243.994 412.468 241.834C412.643 239.897 413.077 237.998 414.014 236.277C415.705 233.168 418.325 231.676 421.903 231.836C424.302 231.943 426.198 232.951 427.604 234.836C428.503 236.042 429.06 237.432 429.434 238.907C430.158 241.76 430.147 244.646 429.846 247.531C429.595 249.944 428.836 252.205 427.259 254.119C426.574 254.951 425.743 255.598 424.763 256.055C424.647 256.109 424.563 256.233 424.463 256.324H417.963ZM426.203 244.662C426.283 242.933 426.036 241.14 425.679 239.362C425.463 238.287 425.003 237.294 424.316 236.446C422.865 234.654 419.937 234.381 418.146 236.493C417.176 237.637 416.678 238.998 416.469 240.463C416.105 243.011 416.069 245.563 416.458 248.114C416.654 249.401 417.022 250.615 417.764 251.717C419.312 254.015 423.307 254.29 424.893 251.419C425.083 251.075 425.247 250.711 425.382 250.341C426.045 248.538 426.244 246.663 426.203 244.662Z" fill="#BDB3F4"/>
<path d="M321.463 256.324C321.394 256.238 321.343 256.112 321.253 256.07C319.209 255.116 317.951 253.448 317.098 251.441C316.576 250.213 316.303 248.915 316.12 247.587C315.91 246.073 315.855 244.563 315.94 243.042C316.048 241.102 316.367 239.202 317.062 237.377C317.906 235.156 319.39 233.519 321.518 232.456C322.619 231.907 323.798 231.862 324.988 231.837C326.835 231.799 328.449 232.377 329.89 233.541C330.944 234.394 331.675 235.461 332.179 236.686C333.292 239.39 333.65 242.224 333.494 245.127C333.432 246.288 333.333 247.452 333.166 248.602C332.887 250.524 332.2 252.3 331.035 253.87C330.325 254.826 329.401 255.52 328.334 256.036C328.196 256.102 328.086 256.227 327.963 256.324L321.463 256.324ZM329.814 244.014C329.722 243.146 329.593 241.779 329.426 240.418C329.265 239.099 328.806 237.886 328.085 236.761C326.592 234.433 323.111 234.54 321.604 236.57C321.088 237.265 320.725 238.029 320.439 238.836C319.919 240.306 319.815 241.846 319.714 243.383C319.611 244.947 319.735 246.505 319.97 248.052C320.162 249.318 320.547 250.52 321.272 251.597C323.17 254.415 327.175 253.98 328.524 251.204C328.796 250.646 329.017 250.055 329.189 249.458C329.654 247.846 329.764 246.185 329.814 244.014Z" fill="#BDB3F4"/>
<path d="M379.588 256.324C379.485 256.234 379.397 256.11 379.277 256.057C377.217 255.148 376.017 253.461 375.197 251.466C374.525 249.834 374.31 248.091 374.175 246.347C373.982 243.867 374.063 241.396 374.606 238.957C374.902 237.625 375.385 236.365 376.181 235.247C377.73 233.073 379.826 231.904 382.516 231.823C384.64 231.76 386.544 232.302 388.161 233.736C389.399 234.833 390.19 236.215 390.682 237.759C391.58 240.573 391.775 243.468 391.502 246.397C391.414 247.348 391.272 248.297 391.107 249.238C390.811 250.925 390.103 252.447 389.13 253.846C388.461 254.806 387.555 255.494 386.512 256.011C386.38 256.077 386.151 256.067 386.213 256.324L379.588 256.324ZM377.819 243.879C377.803 246.112 377.995 248.076 378.575 249.985C379.102 251.721 380.068 253.027 381.978 253.436C383.495 253.762 385.34 253.088 386.219 251.795C387.031 250.599 387.476 249.255 387.649 247.838C387.905 245.746 387.947 243.648 387.712 241.543C387.557 240.161 387.221 238.846 386.656 237.58C386.378 236.959 385.976 236.436 385.472 235.989C383.534 234.265 380.326 234.875 379.188 237.209C378.843 237.916 378.564 238.666 378.345 239.422C377.901 240.954 377.79 242.533 377.819 243.879Z" fill="#BDB3F4"/>
<path d="M214.088 116.324C214.072 116.53 214.04 116.736 214.04 116.942C214.041 127.875 214.044 138.808 214.047 149.741C214.047 149.905 214.047 150.069 214.047 150.221C213.582 150.369 208.997 150.404 208.205 150.269C208.193 150.081 208.168 149.88 208.168 149.679C208.169 145.368 208.175 141.058 208.174 136.747C208.174 130.167 208.168 123.586 208.167 117.006C208.167 116.778 208.197 116.551 208.213 116.324C210.172 116.324 212.13 116.324 214.088 116.324Z" fill="#BDB3F4"/>
<path d="M300.463 256.324C300.361 256.24 300.272 256.113 300.155 256.078C299.086 255.76 298.133 255.206 297.174 254.66C296.896 254.502 296.825 254.317 296.902 253.995C297.121 253.086 297.297 252.167 297.5 251.204C297.634 251.27 297.764 251.315 297.872 251.391C299.744 252.715 301.847 253.37 304.114 253.513C305.058 253.573 306.001 253.436 306.868 253.063C308.418 252.397 309.354 251.231 309.539 249.511C309.828 246.838 308.141 244.742 305.918 244.282C304.855 244.062 303.816 244.059 302.759 244.251C301.866 244.413 301.051 244.775 300.254 245.186C299.832 245.404 299.425 245.512 298.943 245.35C298.492 245.199 298.012 245.136 297.479 245.019C297.461 244.755 297.421 244.494 297.428 244.234C297.508 241.236 297.593 238.24 297.683 235.243C297.709 234.41 297.757 233.579 297.799 232.747C297.807 232.586 297.835 232.426 297.857 232.234H311.654V235.343C308.114 235.382 304.607 235.363 301.124 235.359C300.929 235.856 300.648 241.013 300.765 241.676C300.844 241.666 300.931 241.671 301.004 241.643C302.129 241.223 303.304 241.054 304.491 240.995C307.271 240.855 309.726 241.572 311.582 243.791C312.381 244.745 312.774 245.879 313.031 247.069C313.499 249.237 313.199 251.291 312.04 253.195C311.234 254.518 310.089 255.449 308.649 256.024C308.49 256.087 308.358 256.222 308.213 256.324L300.463 256.324Z" fill="#BDB3F4"/>
<path d="M364.963 256.324C364.945 254.433 364.927 252.542 364.908 250.593H354.155C354.049 249.682 353.923 248.824 353.966 247.955C353.974 247.804 354.089 247.65 354.178 247.514C356.174 244.465 358.172 241.418 360.174 238.373C361.329 236.616 362.477 234.854 363.656 233.112C364.521 231.835 364.262 232.108 365.612 232.081C366.32 232.067 367.029 232.078 367.737 232.083C367.939 232.084 368.141 232.104 368.381 232.117V247.566C369.46 247.686 370.517 247.557 371.605 247.642V250.56H368.395C368.382 250.826 368.363 251.045 368.362 251.264C368.352 252.951 368.346 254.637 368.338 256.324H364.963ZM364.891 247.617V236.24C364.116 237.287 358.073 247.189 357.957 247.617H364.891Z" fill="#BDB3F4"/>
<path d="M335.963 256.324C335.948 255.908 335.956 255.49 335.913 255.078C335.718 253.205 336.369 251.607 337.463 250.14C338.269 249.06 339.254 248.17 340.338 247.385C341.45 246.579 342.583 245.802 343.686 244.985C344.538 244.353 345.389 243.713 346.185 243.014C347.748 241.64 348.251 239.873 347.843 237.871C347.6 236.679 346.532 235.367 344.59 235.077C342.889 234.823 341.316 235.22 339.838 236.008C338.909 236.503 338.042 237.118 337.107 237.705C337.079 237.473 337.054 237.22 337.018 236.968C336.921 236.288 336.824 235.609 336.716 234.931C336.658 234.567 336.761 234.307 337.068 234.074C338.206 233.209 339.428 232.502 340.818 232.145C342.055 231.828 343.327 231.745 344.599 231.863C345.38 231.936 346.17 231.944 346.931 232.231C350.399 233.537 351.968 236.196 351.658 239.779C351.529 241.282 350.921 242.546 350.007 243.743C348.937 245.144 347.595 246.204 346.198 247.22C344.97 248.113 343.702 248.953 342.478 249.851C341.533 250.545 340.692 251.351 340.153 252.422C340.088 252.552 340.015 252.679 339.964 252.815C339.928 252.908 339.922 253.014 339.887 253.197C340.133 253.22 340.349 253.258 340.566 253.258C342.481 253.263 344.396 253.266 346.312 253.261C347.873 253.257 349.435 253.241 350.996 253.231C351.2 253.23 351.403 253.231 351.664 253.231C351.681 254.301 351.697 255.312 351.713 256.324H335.963Z" fill="#BDB3F4"/>
<path d="M446.463 116.324C446.453 117.365 446.434 118.405 446.434 119.446C446.437 129.523 446.443 139.6 446.448 149.676C446.448 149.861 446.448 150.047 446.448 150.304C444.81 150.394 443.204 150.314 441.539 150.355C441.539 150.091 441.539 149.91 441.539 149.728C441.531 138.818 441.524 127.909 441.52 116.999C441.52 116.774 441.565 116.549 441.588 116.324C443.213 116.324 444.838 116.324 446.463 116.324Z" fill="#BDB3F4"/>
<path d="M400.338 116.324C400.333 119.635 400.324 122.945 400.324 126.255C400.326 134.104 400.332 141.954 400.335 149.803C400.335 149.947 400.323 150.091 400.317 150.228C399.859 150.368 396.284 150.402 395.463 150.267V116.324C397.088 116.324 398.713 116.324 400.338 116.324Z" fill="#BDB3F4"/>
<path d="M328.588 116.324C328.581 116.615 328.567 116.906 328.567 117.198C328.568 127.98 328.57 138.763 328.572 149.545C328.572 149.772 328.572 149.999 328.572 150.316C326.994 150.367 325.451 150.334 323.872 150.343C323.856 150.096 323.835 149.915 323.835 149.734C323.835 138.597 323.837 127.461 323.838 116.324C325.422 116.324 327.005 116.324 328.588 116.324Z" fill="#BDB3F4"/>
<path d="M232.588 116.324C232.59 118.136 232.593 119.949 232.593 121.761C232.592 131.01 232.59 140.26 232.588 149.509C232.588 149.756 232.588 150.002 232.588 150.3H228.006C227.998 150.058 227.982 149.815 227.982 149.573C227.976 143.49 227.971 137.407 227.967 131.324C227.965 126.324 227.965 121.324 227.963 116.324L232.588 116.324Z" fill="#BDB3F4"/>
<path d="M363.963 116.324V150.314C362.459 150.37 360.996 150.333 359.444 150.343C359.444 150.002 359.444 149.718 359.444 149.434C359.445 141.999 359.447 134.565 359.446 127.13C359.445 123.735 359.435 120.341 359.432 116.946C359.431 116.739 359.452 116.532 359.463 116.324C360.963 116.324 362.463 116.324 363.963 116.324Z" fill="#BDB3F4"/>
<path d="M318.463 116.324C318.47 117.156 318.484 117.989 318.484 118.821C318.481 129.066 318.476 139.312 318.472 149.557C318.472 149.784 318.472 150.011 318.472 150.228C318.006 150.367 314.926 150.397 314.152 150.265C314.152 150.037 314.152 149.795 314.152 149.552C314.156 144.075 314.161 138.599 314.163 133.122C314.164 127.77 314.159 122.418 314.161 117.067C314.161 116.819 314.195 116.572 314.213 116.324C315.63 116.324 317.047 116.324 318.463 116.324Z" fill="#BDB3F4"/>
<path d="M373.463 116.324C373.464 127.4 373.464 138.476 373.464 149.552V150.221C372.996 150.365 370.277 150.396 369.502 150.271C369.488 150.121 369.461 149.961 369.46 149.802C369.457 138.705 369.456 127.608 369.455 116.511C369.455 116.449 369.461 116.387 369.463 116.324C370.797 116.324 372.13 116.324 373.463 116.324Z" fill="#BDB3F4"/>
<path d="M396.463 256.324C396.511 256.145 396.535 255.955 396.609 255.788C398.036 252.596 399.456 249.4 400.904 246.217C402.439 242.845 404.002 239.485 405.551 236.119C405.646 235.913 405.732 235.703 405.863 235.397C405.256 235.318 404.704 235.365 404.158 235.359C403.595 235.352 403.033 235.362 402.471 235.364C401.908 235.365 401.346 235.365 400.783 235.365C400.221 235.366 399.659 235.366 399.096 235.366C398.534 235.367 397.971 235.37 397.409 235.369C396.846 235.369 396.284 235.363 395.722 235.362C395.163 235.36 394.603 235.362 394.064 235.362C393.918 234.85 393.887 233.039 394 232.237H409.701C409.652 233.483 409.809 234.68 409.265 235.867C408.146 238.307 407.133 240.795 406.067 243.259C404.91 245.932 403.741 248.6 402.578 251.271C401.93 252.759 401.282 254.247 400.64 255.738C400.56 255.924 400.521 256.128 400.463 256.324L396.463 256.324Z" fill="#BDB3F4"/>
<path d="M280.463 256.324C280.632 255.902 280.785 255.473 280.97 255.059C282.572 251.467 284.176 247.877 285.787 244.289C287.014 241.556 288.253 238.828 289.485 236.097C289.57 235.909 289.639 235.714 289.75 235.439C289.528 235.412 289.357 235.374 289.186 235.373C288.103 235.368 287.021 235.373 285.938 235.372C283.502 235.369 281.066 235.364 278.63 235.357C278.446 235.357 278.263 235.337 278.039 235.324V232.227H293.736C293.736 232.507 293.738 232.768 293.736 233.03C293.722 234.813 293.713 234.809 292.997 236.445C291.729 239.342 290.473 242.244 289.211 245.144C287.75 248.501 286.284 251.856 284.829 255.216C284.675 255.572 284.584 255.954 284.463 256.324L280.463 256.324Z" fill="#BDB3F4"/>
<path d="M187.713 116.324C187.704 116.615 187.686 116.906 187.686 117.198C187.688 127.968 187.691 138.738 187.695 149.508C187.695 149.755 187.695 150.001 187.695 150.292H183.967C183.96 150.033 183.948 149.771 183.948 149.509C183.946 142.363 183.945 135.218 183.943 128.073C183.943 124.385 183.941 120.698 183.942 117.011C183.942 116.782 183.956 116.553 183.963 116.324C185.213 116.324 186.463 116.324 187.713 116.324Z" fill="#BDB3F4"/>
<path d="M266.088 116.324V150.219C265.622 150.364 263.146 150.395 262.338 150.258V116.324H266.088Z" fill="#BDB3F4"/>
<path d="M427.963 116.324C427.96 122.153 427.955 127.981 427.953 133.81C427.952 139.056 427.953 144.301 427.953 149.547V150.217C427.487 150.371 425.101 150.402 424.338 150.261V116.324H427.963Z" fill="#BDB3F4"/>
<path d="M245.588 116.324C245.585 123.446 245.582 130.567 245.579 137.689C245.577 141.624 245.577 145.56 245.576 149.495C245.576 149.742 245.576 149.988 245.576 150.326C244.413 150.348 243.303 150.345 242.102 150.332C242.102 150.022 242.102 149.758 242.102 149.495C242.102 140.146 242.102 130.796 242.1 121.447C242.1 119.739 242.092 118.032 242.088 116.324L245.588 116.324Z" fill="#BDB3F4"/>
<path d="M202.463 116.324C202.44 116.591 202.397 116.858 202.396 117.125C202.383 127.916 202.373 138.706 202.362 149.497C202.362 149.745 202.362 149.994 202.362 150.233C201.885 150.371 199.75 150.401 198.938 150.279C198.927 150.052 198.906 149.809 198.906 149.567C198.9 142.422 198.896 135.277 198.891 128.132C198.889 124.424 198.885 120.716 198.879 117.008C198.879 116.78 198.853 116.552 198.838 116.324C200.047 116.324 201.255 116.324 202.463 116.324Z" fill="#BDB3F4"/>
<path d="M297.838 116.324C297.849 116.49 297.869 116.655 297.87 116.82C297.898 127.666 297.925 138.512 297.952 149.358C297.953 149.647 297.953 149.937 297.953 150.214C297.486 150.367 295.345 150.401 294.541 150.27C294.531 150.057 294.511 149.833 294.511 149.609C294.503 138.805 294.496 128.001 294.488 117.197C294.488 116.906 294.472 116.615 294.463 116.324C295.588 116.324 296.713 116.324 297.838 116.324Z" fill="#BDB3F4"/>
<path d="M381.338 116.324C381.347 116.738 381.363 117.152 381.364 117.566C381.383 126.83 381.4 136.094 381.417 145.357C381.419 146.773 381.418 148.188 381.415 149.604C381.414 149.829 381.393 150.053 381.38 150.307H378.044C378.044 150.051 378.044 149.828 378.044 149.605C378.034 138.739 378.025 127.872 378.012 117.006C378.012 116.778 377.98 116.551 377.963 116.324C379.088 116.324 380.213 116.324 381.338 116.324Z" fill="#BDB3F4"/>
<path d="M461.463 116.324C461.452 116.823 461.432 117.323 461.431 117.822C461.419 128.426 461.409 139.03 461.398 149.634C461.398 149.841 461.398 150.048 461.398 150.297H458.076C458.063 150.072 458.039 149.853 458.039 149.634C458.04 145.155 458.042 140.676 458.045 136.197C458.049 129.801 458.054 123.405 458.06 117.01C458.06 116.781 458.078 116.553 458.088 116.324C459.213 116.324 460.338 116.324 461.463 116.324Z" fill="#BDB3F4"/>
<path d="M345.838 116.324C345.843 117.907 345.853 119.49 345.852 121.072C345.85 130.572 345.846 140.071 345.842 149.57C345.842 149.796 345.842 150.022 345.842 150.296H342.517C342.508 150.077 342.492 149.855 342.492 149.634C342.479 140.135 342.468 130.635 342.457 121.136C342.456 119.532 342.461 117.928 342.463 116.324H345.838Z" fill="#BDB3F4"/>
<path d="M404.963 116.324C404.956 121.154 404.942 125.985 404.942 130.815C404.942 137.144 404.952 143.474 404.958 149.803C404.958 149.946 404.958 150.09 404.958 150.223C404.492 150.366 402.497 150.395 401.707 150.266C401.707 150.038 401.707 149.796 401.707 149.553C401.708 140.933 401.709 132.314 401.71 123.694C401.711 121.237 401.712 118.781 401.713 116.324H404.963Z" fill="#BDB3F4"/>
<path d="M251.213 116.324C251.194 120.24 251.158 124.156 251.158 128.073C251.158 135.28 251.18 142.488 251.191 149.696C251.191 149.88 251.172 150.064 251.16 150.295H247.973C247.965 150.053 247.95 149.812 247.95 149.571C247.949 141.864 247.949 134.156 247.949 126.448C247.949 123.261 247.949 120.073 247.951 116.886C247.951 116.699 247.959 116.511 247.963 116.324C249.047 116.324 250.13 116.324 251.213 116.324Z" fill="#BDB3F4"/>
<path d="M255.588 256.324C255.567 256.182 255.526 256.04 255.526 255.898C255.528 249.695 255.533 243.492 255.538 237.289C255.539 236.942 255.538 236.594 255.538 236.195C254.648 236.621 253.811 237.066 252.939 237.427C252.063 237.788 251.153 238.065 250.2 238.399C250.169 238.172 250.135 238.035 250.134 237.897C250.123 237.127 250.133 236.357 250.11 235.587C250.101 235.289 250.213 235.137 250.482 235.026C251.174 234.741 251.863 234.444 252.54 234.126C253.764 233.552 254.974 232.949 256.198 232.377C256.972 232.016 258.128 231.926 259.073 232.133C259.073 232.338 259.073 232.56 259.073 232.783C259.072 240.359 259.071 247.936 259.071 255.513C259.071 255.783 259.082 256.054 259.088 256.324H255.588Z" fill="#BDB3F4"/>
<path d="M269.588 256.324C269.583 251.283 269.577 246.241 269.574 241.2C269.573 239.679 269.585 238.158 269.589 236.638C269.59 236.516 269.578 236.394 269.569 236.211C268.674 236.634 267.831 237.074 266.955 237.433C266.076 237.792 265.163 238.069 264.212 238.401V235.228C264.986 234.88 265.747 234.549 266.498 234.197C267.684 233.641 268.883 233.108 270.041 232.497C271.022 231.979 272.037 232.026 273.109 232.089C273.127 232.205 273.154 232.303 273.154 232.401C273.159 240.088 273.162 247.775 273.16 255.462C273.16 255.749 273.113 256.037 273.088 256.324L269.588 256.324Z" fill="#BDB3F4"/>
<path d="M438.338 256.324C438.343 254.867 438.351 253.411 438.351 251.954C438.353 246.875 438.352 241.795 438.35 236.716C438.35 236.559 438.329 236.401 438.312 236.166C436.559 237.063 434.88 237.963 433.015 238.594V235.339C434.341 234.704 435.655 234.085 436.96 233.446C437.651 233.108 438.335 232.752 439.004 232.373C439.437 232.127 439.885 232.022 440.376 232.035C440.85 232.047 441.326 232.038 441.838 232.038V256.324H438.338Z" fill="#BDB3F4"/>
<path d="M470.338 150.324H467.404C467.404 150.009 467.404 149.744 467.404 149.48C467.404 139.779 467.404 130.077 467.404 120.375C467.404 119.251 467.401 118.127 467.407 117.003C467.408 116.777 467.444 116.55 467.463 116.324C468.42 116.324 469.377 116.324 470.338 116.324L470.338 150.324Z" fill="#BDB3F4"/>
<path d="M305.338 116.324C305.343 118.447 305.349 120.57 305.351 122.693C305.357 131.685 305.361 140.678 305.366 149.671C305.366 149.857 305.366 150.044 305.366 150.221C304.904 150.369 303.35 150.395 302.611 150.257C302.611 149.929 302.611 149.581 302.611 149.233C302.617 142.988 302.627 136.744 302.627 130.499C302.627 126.002 302.616 121.506 302.609 117.01C302.608 116.781 302.595 116.553 302.588 116.324C303.505 116.324 304.422 116.324 305.338 116.324Z" fill="#BDB3F4"/>
<path d="M356.213 116.324C356.203 119.135 356.186 121.946 356.182 124.757C356.171 132.982 356.165 141.207 356.156 149.433C356.156 149.701 356.156 149.969 356.156 150.307C355.293 150.376 354.476 150.322 353.613 150.355C353.599 150.086 353.578 149.884 353.578 149.683C353.579 143.249 353.581 136.814 353.584 130.38C353.585 125.694 353.587 121.009 353.588 116.324C354.463 116.324 355.338 116.324 356.213 116.324Z" fill="#BDB3F4"/>
<path d="M241.213 116.324C241.226 116.531 241.249 116.738 241.248 116.945C241.243 127.841 241.236 138.736 241.229 149.632C241.229 149.836 241.229 150.041 241.229 150.294H238.639C238.629 150.078 238.611 149.857 238.611 149.635C238.61 140.636 238.612 131.636 238.61 122.636C238.61 120.532 238.596 118.428 238.588 116.324C239.463 116.324 240.338 116.324 241.213 116.324Z" fill="#BDB3F4"/>
<path d="M255.588 116.324V150.296H252.992C252.992 150.05 252.992 149.808 252.992 149.566C253.015 141.65 253.042 133.734 253.06 125.818C253.067 122.839 253.053 119.86 253.052 116.881C253.052 116.696 253.076 116.51 253.088 116.324C253.922 116.324 254.755 116.324 255.588 116.324Z" fill="#BDB3F4"/>
<path d="M393.713 116.324C393.693 116.738 393.655 117.151 393.655 117.565C393.653 128.185 393.655 138.805 393.655 149.425C393.655 149.712 393.655 149.999 393.655 150.312H391.073C391.073 150 391.073 149.716 391.073 149.431C391.07 142.289 391.068 135.146 391.065 128.004C391.064 124.297 391.061 120.59 391.061 116.883C391.061 116.697 391.079 116.511 391.088 116.324C391.963 116.324 392.838 116.324 393.713 116.324Z" fill="#BDB3F4"/>
<path d="M284.213 116.324C284.206 116.678 284.193 117.032 284.193 117.386C284.196 128.05 284.2 138.714 284.204 149.379C284.204 149.667 284.204 149.955 284.204 150.292H281.693C281.683 150.025 281.663 149.763 281.663 149.5C281.662 144.647 281.664 139.794 281.665 134.941C281.666 128.963 281.667 122.985 281.671 117.007C281.672 116.779 281.699 116.552 281.713 116.324C282.547 116.324 283.38 116.324 284.213 116.324Z" fill="#BDB3F4"/>
<path d="M410.338 116.324C410.312 116.57 410.263 116.815 410.263 117.061C410.256 127.908 410.253 138.755 410.25 149.602C410.25 149.825 410.25 150.048 410.25 150.305H407.748C407.732 150.122 407.706 149.962 407.706 149.802C407.703 138.705 407.702 127.608 407.702 116.511C407.702 116.449 407.709 116.386 407.713 116.324C408.588 116.324 409.463 116.324 410.338 116.324Z" fill="#BDB3F4"/>
<path d="M337.463 116.324C337.459 123.886 337.455 131.448 337.449 139.01C337.447 142.531 337.441 146.051 337.436 149.572C337.436 149.797 337.436 150.022 337.436 150.294H334.95C334.95 150.053 334.95 149.812 334.95 149.571C334.95 139.571 334.948 129.572 334.948 119.573C334.948 118.49 334.958 117.407 334.963 116.324C335.797 116.324 336.63 116.324 337.463 116.324Z" fill="#BDB3F4"/>
<path d="M221.963 116.324C221.962 127.32 221.961 138.316 221.96 149.312C221.96 149.621 221.96 149.93 221.96 150.29H219.49C219.49 150.065 219.49 149.844 219.49 149.623C219.49 139.668 219.491 129.714 219.489 119.759C219.489 118.614 219.472 117.469 219.463 116.324L221.963 116.324Z" fill="#BDB3F4"/>
<path d="M453.588 116.324C453.604 116.53 453.632 116.737 453.632 116.943C453.638 127.81 453.641 138.676 453.644 149.543C453.644 149.788 453.644 150.033 453.644 150.311H451.224C451.224 150.014 451.224 149.75 451.224 149.486C451.23 140.535 451.238 131.583 451.24 122.631C451.241 120.529 451.223 118.427 451.213 116.324C452.005 116.324 452.797 116.324 453.588 116.324Z" fill="#BDB3F4"/>
<path d="M351.213 116.324C351.201 116.636 351.177 116.948 351.178 117.259C351.185 128.009 351.195 138.758 351.204 149.507C351.204 149.754 351.204 150 351.204 150.294H348.818C348.81 150.051 348.793 149.81 348.793 149.568C348.792 141.068 348.794 132.569 348.795 124.069C348.795 121.736 348.794 119.403 348.798 117.07C348.798 116.821 348.824 116.573 348.838 116.324C349.63 116.324 350.422 116.324 351.213 116.324Z" fill="#BDB3F4"/>
<path d="M276.588 116.324C276.583 120.803 276.576 125.281 276.572 129.76C276.567 136.404 276.565 143.049 276.562 149.694C276.562 149.878 276.562 150.061 276.562 150.292H274.22C274.214 150.031 274.202 149.768 274.202 149.506C274.199 141.341 274.197 133.175 274.195 125.01C274.195 122.406 274.193 119.802 274.194 117.198C274.194 116.907 274.207 116.616 274.213 116.324C275.005 116.324 275.797 116.324 276.588 116.324Z" fill="#BDB3F4"/>
<path d="M288.338 116.324C288.353 116.593 288.38 116.861 288.38 117.13C288.382 128.039 288.383 138.949 288.383 149.858C288.383 149.982 288.37 150.107 288.359 150.317C287.582 150.36 286.808 150.347 285.996 150.322C285.979 150.143 285.953 150.004 285.953 149.865C285.952 138.747 285.953 127.629 285.955 116.511C285.955 116.449 285.96 116.387 285.963 116.324C286.755 116.324 287.547 116.324 288.338 116.324Z" fill="#BDB3F4"/>
<path d="M466.338 116.324C466.341 121.219 466.347 126.114 466.346 131.008C466.346 137.215 466.341 143.422 466.337 149.63C466.337 149.835 466.337 150.04 466.337 150.294H463.98C463.967 150.11 463.944 149.931 463.944 149.751C463.937 138.753 463.933 127.755 463.93 116.758C463.93 116.613 463.952 116.469 463.963 116.324C464.755 116.324 465.547 116.324 466.338 116.324Z" fill="#BDB3F4"/>
<path d="M310.338 116.324C310.327 116.615 310.307 116.906 310.307 117.196C310.309 128.024 310.314 138.852 310.318 149.68C310.318 149.864 310.318 150.049 310.318 150.289H308C308 150.036 308 149.793 308 149.549C308.006 138.742 308.014 127.935 308.018 117.128C308.018 116.86 307.982 116.592 307.963 116.324C308.755 116.324 309.547 116.324 310.338 116.324Z" fill="#BDB3F4"/>
<path d="M192.588 116.324C192.564 116.633 192.519 116.941 192.519 117.25C192.517 127.866 192.52 138.481 192.522 149.097C192.522 149.487 192.522 149.877 192.522 150.305H190.213V116.324C191.005 116.324 191.797 116.324 192.588 116.324Z" fill="#BDB3F4"/>
<path d="M389.838 116.324C389.847 118.197 389.862 120.07 389.862 121.943C389.862 131.123 389.859 140.302 389.856 149.482C389.856 149.731 389.856 149.98 389.856 150.307C389.119 150.368 388.408 150.35 387.611 150.315C387.611 149.882 387.611 149.492 387.611 149.102C387.621 140.61 387.631 132.117 387.64 123.624C387.642 121.397 387.639 119.17 387.635 116.943C387.635 116.736 387.605 116.53 387.588 116.324C388.338 116.324 389.088 116.324 389.838 116.324Z" fill="#BDB3F4"/>
<path d="M420.713 116.324C420.723 116.656 420.741 116.988 420.741 117.32C420.741 128.064 420.739 138.808 420.738 149.552C420.738 149.779 420.738 150.007 420.738 150.288H418.474C418.474 150.06 418.474 149.839 418.474 149.618C418.47 142.497 418.465 135.376 418.461 128.255C418.458 124.444 418.454 120.634 418.452 116.824C418.452 116.657 418.46 116.491 418.464 116.324C419.214 116.324 419.963 116.324 420.713 116.324Z" fill="#BDB3F4"/>
<path d="M177.588 116.324C177.589 127.463 177.59 138.603 177.59 149.742C177.59 149.906 177.59 150.07 177.59 150.317C176.818 150.362 176.078 150.351 175.338 150.324V116.324H177.588Z" fill="#BDB3F4"/>
<path d="M417.713 116.324C417.695 116.655 417.66 116.987 417.66 117.318C417.655 126.915 417.653 136.512 417.651 146.108C417.651 147.481 417.651 148.854 417.651 150.312C416.921 150.364 416.232 150.342 415.467 150.329C415.467 150.036 415.467 149.793 415.467 149.549C415.469 139.078 415.471 128.606 415.472 118.135C415.472 117.532 415.466 116.928 415.463 116.324C416.213 116.324 416.963 116.324 417.713 116.324Z" fill="#BDB3F4"/>
<path d="M431.338 116.324C431.346 116.823 431.359 117.322 431.36 117.821C431.37 128.277 431.378 138.732 431.387 149.188C431.387 149.54 431.387 149.891 431.387 150.294H429.224C429.224 150.049 429.224 149.807 429.224 149.565C429.226 140.922 429.23 132.278 429.23 123.635C429.23 121.198 429.219 118.761 429.213 116.324C429.922 116.324 430.63 116.324 431.338 116.324Z" fill="#BDB3F4"/>
<path d="M386.213 116.324C386.2 116.76 386.174 117.196 386.174 117.632C386.173 128.227 386.175 138.822 386.177 149.417C386.177 149.704 386.177 149.99 386.177 150.308H384.115C384.115 150.03 384.115 149.787 384.115 149.544C384.119 138.782 384.124 128.02 384.126 117.258C384.126 116.947 384.102 116.636 384.088 116.324C384.797 116.324 385.505 116.324 386.213 116.324Z" fill="#BDB3F4"/>
<path d="M180.463 116.324V150.294H178.478C178.472 150.034 178.46 149.771 178.46 149.509C178.458 143.009 178.457 136.51 178.457 130.01C178.457 125.448 178.461 120.886 178.463 116.324H180.463Z" fill="#BDB3F4"/>
<path d="M440.463 116.324C440.447 116.719 440.418 117.114 440.417 117.508C440.411 128.154 440.407 138.8 440.403 149.445C440.403 149.713 440.403 149.981 440.403 150.297H438.509C438.499 150.078 438.48 149.857 438.48 149.635C438.478 144.76 438.476 139.886 438.478 135.011C438.48 129.115 438.484 123.219 438.486 117.323C438.486 116.99 438.471 116.657 438.463 116.324C439.13 116.324 439.797 116.324 440.463 116.324Z" fill="#BDB3F4"/>
<path d="M321.838 116.324C321.826 116.657 321.804 116.989 321.804 117.321C321.796 128.09 321.79 138.859 321.784 149.628C321.784 149.833 321.784 150.038 321.784 150.294H319.886C319.876 150.033 319.857 149.769 319.857 149.505C319.863 143.09 319.877 136.674 319.876 130.259C319.874 125.614 319.852 120.969 319.838 116.324C320.505 116.324 321.172 116.324 321.838 116.324Z" fill="#BDB3F4"/>
<path d="M435.963 116.324C435.956 116.678 435.941 117.031 435.941 117.385C435.944 128.025 435.948 138.665 435.952 149.305C435.952 149.615 435.952 149.925 435.952 150.299C435.282 150.383 434.652 150.322 433.933 150.342C433.933 150.019 433.933 149.756 433.933 149.492C433.936 139.31 433.937 129.128 433.941 118.946C433.942 118.072 433.956 117.198 433.963 116.324C434.63 116.324 435.297 116.324 435.963 116.324Z" fill="#BDB3F4"/>
<path d="M259.463 116.324C259.456 120.321 259.443 124.318 259.444 128.315C259.446 135.455 259.457 142.596 259.464 149.736C259.464 149.901 259.464 150.066 259.464 150.318C258.828 150.353 258.221 150.362 257.57 150.312C257.558 150.076 257.539 149.874 257.538 149.672C257.519 138.701 257.501 127.73 257.482 116.76C257.482 116.614 257.47 116.469 257.463 116.324C258.13 116.324 258.797 116.324 259.463 116.324Z" fill="#BDB3F4"/>
<path d="M301.713 116.324C301.707 117.386 301.694 118.448 301.695 119.51C301.697 129.529 301.701 139.547 301.705 149.566C301.705 149.791 301.705 150.017 301.705 150.29H299.85C299.85 150.089 299.851 149.89 299.85 149.69C299.803 138.922 299.756 128.154 299.709 117.386C299.707 117.032 299.712 116.678 299.713 116.324C300.38 116.324 301.047 116.324 301.713 116.324Z" fill="#BDB3F4"/>
<path d="M217.338 116.324C217.318 116.863 217.279 117.402 217.279 117.941C217.276 128.415 217.277 138.89 217.278 149.364C217.278 149.671 217.278 149.979 217.278 150.316H215.33C215.33 150.044 215.33 149.801 215.33 149.558C215.328 138.813 215.326 128.068 215.325 117.323C215.325 116.99 215.334 116.657 215.338 116.324C216.005 116.324 216.672 116.324 217.338 116.324Z" fill="#BDB3F4"/>
<path d="M268.838 116.324C268.86 116.675 268.899 117.026 268.899 117.377C268.9 126.375 268.896 135.373 268.895 144.37C268.894 146.12 268.899 147.87 268.901 149.619C268.901 149.825 268.901 150.03 268.901 150.223C268.417 150.363 267.718 150.38 266.965 150.271C266.954 150.044 266.934 149.801 266.933 149.559C266.924 145.727 266.912 141.894 266.91 138.062C266.906 131.063 266.908 124.065 266.911 117.067C266.911 116.819 266.945 116.572 266.963 116.324C267.588 116.324 268.213 116.324 268.838 116.324Z" fill="#BDB3F4"/>
<path d="M196.338 116.324V150.311C195.725 150.361 195.14 150.348 194.463 150.33V116.324H196.338Z" fill="#BDB3F4"/>
<path d="M226.963 116.324C226.952 116.573 226.932 116.822 226.932 117.071C226.941 127.936 226.952 138.801 226.963 149.667C226.963 149.853 226.963 150.039 226.963 150.311C226.351 150.359 225.765 150.351 225.145 150.316C225.128 150.114 225.102 149.954 225.102 149.793C225.089 138.761 225.077 127.729 225.067 116.697C225.067 116.573 225.081 116.449 225.088 116.324C225.713 116.324 226.338 116.324 226.963 116.324Z" fill="#BDB3F4"/>
<path d="M331.588 116.324C331.564 116.695 331.518 117.066 331.518 117.436C331.52 126.769 331.527 136.101 331.532 145.433C331.532 146.85 331.528 148.266 331.526 149.683C331.526 149.886 331.526 150.088 331.526 150.315H329.696C329.696 150.05 329.696 149.809 329.696 149.568C329.695 141.61 329.695 133.653 329.693 125.695C329.692 122.695 329.685 119.696 329.683 116.696C329.683 116.572 329.703 116.448 329.713 116.324C330.338 116.324 330.963 116.324 331.588 116.324Z" fill="#BDB3F4"/>
<path d="M235.963 116.324C235.945 116.51 235.91 116.695 235.91 116.881C235.901 124.629 235.894 132.376 235.888 140.124C235.886 143.311 235.886 146.498 235.884 149.684C235.884 149.87 235.868 150.056 235.858 150.293H234.099C234.099 150.049 234.098 149.807 234.099 149.565C234.105 143.588 234.116 137.61 234.117 131.632C234.118 126.696 234.108 121.76 234.103 116.823C234.103 116.657 234.093 116.491 234.088 116.324C234.713 116.324 235.338 116.324 235.963 116.324Z" fill="#BDB3F4"/>
<path d="M367.213 116.324C367.214 124.695 367.216 133.065 367.216 141.435C367.216 144.142 367.212 146.849 367.209 149.556C367.209 149.782 367.209 150.008 367.209 150.262C366.641 150.392 366.113 150.34 365.499 150.313C365.499 150.04 365.499 149.797 365.499 149.554C365.495 138.706 365.491 127.858 365.485 117.009C365.485 116.781 365.471 116.553 365.463 116.324C366.047 116.324 366.63 116.324 367.213 116.324Z" fill="#BDB3F4"/>
<path d="M414.463 116.324C414.461 122.945 414.458 129.566 414.456 136.187C414.454 140.726 414.454 145.265 414.452 149.804C414.452 149.948 414.44 150.092 414.432 150.271C413.871 150.396 413.324 150.334 412.695 150.307C412.695 150.039 412.695 149.797 412.695 149.554C412.696 139.518 412.696 129.482 412.698 119.447C412.698 118.406 412.708 117.365 412.713 116.324C413.297 116.324 413.88 116.324 414.463 116.324Z" fill="#BDB3F4"/>
<path d="M450.213 116.324C450.221 116.595 450.237 116.865 450.237 117.135C450.232 128.01 450.226 138.885 450.219 149.759C450.219 149.923 450.204 150.086 450.194 150.296H448.601C448.588 150.116 448.564 149.936 448.564 149.757C448.56 140.111 448.559 130.465 448.556 120.82C448.556 119.549 448.547 118.278 448.547 117.008C448.547 116.78 448.574 116.552 448.588 116.324C449.13 116.324 449.672 116.324 450.213 116.324Z" fill="#BDB3F4"/>
<path d="M206.963 116.324C206.948 116.656 206.92 116.988 206.919 117.32C206.916 128.047 206.915 138.775 206.913 149.502C206.913 149.749 206.913 149.995 206.913 150.294H205.372C205.372 150.073 205.373 149.851 205.372 149.63C205.367 143.194 205.363 136.757 205.357 130.321C205.352 125.655 205.345 120.99 205.338 116.324L206.963 116.324Z" fill="#BDB3F4"/>
<path d="M340.588 116.324C340.595 116.636 340.607 116.948 340.607 117.26C340.607 127.903 340.605 138.546 340.604 149.189C340.604 149.54 340.604 149.891 340.604 150.291H338.971C338.96 149.942 338.939 149.596 338.938 149.249C338.936 143.897 338.937 138.544 338.935 133.191C338.933 127.817 338.929 122.444 338.928 117.07C338.928 116.822 338.951 116.573 338.963 116.324C339.505 116.324 340.047 116.324 340.588 116.324Z" fill="#BDB3F4"/>
<path d="M292.838 116.324C292.854 116.551 292.884 116.778 292.884 117.005C292.887 127.873 292.888 138.74 292.889 149.607C292.889 149.814 292.889 150.021 292.889 150.301C292.334 150.362 291.81 150.359 291.245 150.302C291.229 150.12 291.203 149.96 291.202 149.801C291.202 138.725 291.203 127.649 291.204 116.574C291.204 116.491 291.21 116.407 291.213 116.324C291.755 116.324 292.297 116.324 292.838 116.324Z" fill="#BDB3F4"/>
<path d="M271.838 116.324C271.829 116.72 271.813 117.115 271.813 117.51C271.812 128.174 271.813 138.838 271.814 149.501C271.814 149.748 271.814 149.995 271.814 150.29H270.416C270.405 149.966 270.385 149.64 270.385 149.314C270.387 144.919 270.399 140.524 270.395 136.13C270.39 129.715 270.373 123.3 270.359 116.885C270.359 116.698 270.346 116.511 270.338 116.324C270.838 116.324 271.338 116.324 271.838 116.324Z" fill="#BDB3F4"/>
<path d="M312.838 116.324C312.844 116.824 312.855 117.323 312.855 117.822C312.854 128.485 312.852 139.148 312.85 149.812C312.85 149.955 312.85 150.098 312.85 150.292H311.457C311.457 150.046 311.457 149.804 311.457 149.561C311.454 141.564 311.452 133.567 311.449 125.569C311.448 122.654 311.444 119.738 311.443 116.822C311.443 116.656 311.456 116.49 311.463 116.324C311.922 116.324 312.38 116.324 312.838 116.324Z" fill="#BDB3F4"/>
<path d="M376.338 116.324V150.288H374.99C374.99 150.042 374.99 149.8 374.99 149.557C374.989 142.103 374.989 134.648 374.988 127.193C374.987 123.757 374.986 120.321 374.983 116.885C374.983 116.698 374.97 116.511 374.963 116.324C375.422 116.324 375.88 116.324 376.338 116.324Z" fill="#BDB3F4"/>
<path d="M278.463 116.324C278.452 116.615 278.43 116.906 278.43 117.196C278.429 127.944 278.431 138.693 278.432 149.441C278.432 149.708 278.432 149.975 278.432 150.288H277.265C277.216 146.529 277.251 142.768 277.244 139.008C277.236 135.217 277.223 131.426 277.218 127.635C277.213 123.865 277.215 120.094 277.213 116.324C277.63 116.324 278.047 116.324 278.463 116.324Z" fill="#BDB3F4"/>
<path d="M358.463 116.324C358.47 116.49 358.482 116.657 358.482 116.823C358.483 127.717 358.483 138.611 358.483 149.505C358.483 149.752 358.483 149.998 358.483 150.292H357.345C357.334 150.048 357.314 149.806 357.313 149.563C357.304 144.523 357.295 139.482 357.288 134.441C357.281 128.9 357.276 123.359 357.266 117.819C357.265 117.321 357.232 116.822 357.213 116.324C357.63 116.324 358.047 116.324 358.463 116.324Z" fill="#BDB3F4"/>
<path d="M457.588 116.324C457.602 116.885 457.627 117.446 457.627 118.007C457.624 128.545 457.619 139.083 457.615 149.621C457.615 149.827 457.615 150.033 457.615 150.29H456.463V116.324H457.588Z" fill="#BDB3F4"/>
<path d="M204.338 116.324C204.348 116.511 204.367 116.697 204.367 116.884C204.372 127.587 204.375 138.29 204.379 148.993C204.379 149.408 204.379 149.823 204.379 150.288H203.334C203.32 150.101 203.296 149.92 203.296 149.74C203.292 141.598 203.291 133.456 203.289 125.314C203.288 122.503 203.286 119.692 203.288 116.881C203.288 116.695 203.321 116.51 203.338 116.324C203.672 116.324 204.005 116.324 204.338 116.324Z" fill="#BDB3F4"/>
<path d="M344.511 173.377H352.336C352.482 173.864 352.524 225.935 352.38 226.894H344.511V173.377Z" fill="#BDB3F4"/>
<path d="M402.714 173.386V226.805C402.268 226.953 395.904 226.98 395.224 226.834V173.386H402.714Z" fill="#BDB3F4"/>
<path d="M303.039 226.904H297.076C297.063 226.728 297.039 226.551 297.039 226.375C297.036 220.252 297.036 214.129 297.035 208.006C297.034 197.654 297.034 187.303 297.032 176.952C297.032 175.994 297.016 175.035 297.012 174.077C297.012 173.853 297.034 173.629 297.047 173.377H303.039V226.904Z" fill="#BDB3F4"/>
<path d="M360.555 226.881V173.389H366.23C366.355 173.883 366.374 226.036 366.248 226.881H360.555Z" fill="#BDB3F4"/>
<path d="M446.701 173.387H452.165V226.882H446.702C446.671 209.056 446.687 191.255 446.701 173.387Z" fill="#BDB3F4"/>
<path d="M417.774 173.382H423.056V226.891H417.774V173.382Z" fill="#BDB3F4"/>
<path d="M425.236 173.377H430.183V226.886H425.24C425.232 226.877 425.218 226.862 425.205 226.847C425.191 226.831 425.167 226.816 425.166 226.799C425.152 226.592 425.13 226.385 425.13 226.178C425.138 208.644 425.148 191.11 425.16 173.576C425.16 173.519 425.202 173.462 425.236 173.377Z" fill="#BDB3F4"/>
<path d="M318.743 173.376H323.832C323.845 173.617 323.869 173.856 323.869 174.095C323.868 178.698 323.861 183.3 323.86 187.902C323.859 200.646 323.861 213.391 323.861 226.135C323.861 226.379 323.861 226.623 323.861 226.901H318.802C318.782 217.994 318.755 209.092 318.745 200.191C318.735 191.281 318.743 182.371 318.743 173.376Z" fill="#BDB3F4"/>
<path d="M256.828 226.892H251.901V173.452C252.367 173.314 256.022 173.283 256.828 173.421V226.892Z" fill="#BDB3F4"/>
<path d="M278.621 226.889H273.827V173.372H278.621V226.889Z" fill="#BDB3F4"/>
<path d="M379.173 226.897H374.541V173.376H379.173V226.897Z" fill="#BDB3F4"/>
<path d="M432.67 173.372H436.747C436.903 173.932 436.962 225.086 436.81 226.935C435.46 226.936 434.102 226.933 432.661 226.921C432.67 209.038 432.568 191.224 432.67 173.372Z" fill="#BDB3F4"/>
<path d="M288.656 226.894H284.652V173.391H288.656V226.894Z" fill="#BDB3F4"/>
<path d="M316.926 226.895H312.85V173.382H316.926V226.895Z" fill="#BDB3F4"/>
<path d="M266.033 173.385H269.531V226.825C269.15 226.945 266.744 226.977 266.033 226.866V173.385Z" fill="#BDB3F4"/>
<path d="M264.163 226.873H260.752V173.384H264.163V226.873Z" fill="#BDB3F4"/>
<path d="M404.797 173.38H408.22V226.822C407.763 226.954 405.432 226.979 404.797 226.859V173.38Z" fill="#BDB3F4"/>
<path d="M416.068 226.881H412.774C412.732 209.028 412.75 191.232 412.773 173.385H416.068V226.881Z" fill="#BDB3F4"/>
<path d="M308.501 226.902H305.307C305.253 226.861 305.234 226.852 305.221 226.836C305.209 226.82 305.199 226.799 305.196 226.779C305.181 226.677 305.157 226.575 305.157 226.473C305.154 208.853 305.152 191.234 305.153 173.615C305.153 173.556 305.182 173.497 305.211 173.39H308.487C308.552 191.228 308.522 209.043 308.501 226.902Z" fill="#BDB3F4"/>
<path d="M331.471 173.379H334.649C334.685 182.301 334.653 191.203 334.637 200.105C334.621 209.014 334.634 217.922 334.634 226.876H331.471L331.471 173.379Z" fill="#BDB3F4"/>
<path d="M388.501 173.382H391.609V226.888H388.501V173.382Z" fill="#BDB3F4"/>
<path d="M386.743 226.887H383.633C383.569 209.032 383.637 191.217 383.644 173.343C384.536 173.343 385.344 173.341 386.152 173.344C386.334 173.345 386.516 173.365 386.743 173.379V226.887Z" fill="#BDB3F4"/>
<path d="M339.344 173.368H342.435V226.882H339.344V173.368Z" fill="#BDB3F4"/>
<path d="M457.558 226.907H454.702C454.559 226.455 454.497 174.594 454.635 173.392H457.558L457.558 226.907Z" fill="#BDB3F4"/>
<path d="M369.758 173.374H372.69V226.872H369.758V173.374Z" fill="#BDB3F4"/>
<path d="M329.841 226.89H327.058C327.01 226.854 326.99 226.844 326.978 226.828C326.965 226.812 326.955 226.791 326.952 226.772C326.939 226.67 326.918 226.567 326.918 226.465C326.924 208.843 326.932 191.22 326.943 173.598C326.943 173.54 326.975 173.482 327.005 173.38H329.804C329.802 173.378 329.823 173.386 329.836 173.401C329.849 173.416 329.86 173.437 329.863 173.456C329.876 173.538 329.895 173.62 329.895 173.702C329.898 191.345 329.899 208.988 329.899 226.631C329.899 226.691 329.873 226.75 329.841 226.89Z" fill="#BDB3F4"/>
<path d="M444.033 226.887H441.316C441.188 226.468 441.152 174.113 441.282 173.381H444.033V226.887Z" fill="#BDB3F4"/>
<path d="M355.031 173.385H357.716V226.904C357.49 226.915 357.307 226.931 357.124 226.932C356.442 226.935 355.759 226.933 355.031 226.933L355.031 173.385Z" fill="#BDB3F4"/>
<path d="M295.537 226.89H293.312V173.392H295.537V226.89Z" fill="#BDB3F4"/>
<path d="M280.137 173.381H282.334V226.93C281.947 226.93 281.579 226.93 281.21 226.93C280.861 226.93 280.511 226.93 280.137 226.93L280.137 173.381Z" fill="#BDB3F4"/>
<path d="M248.452 173.367H250.316C250.433 173.79 250.5 226.043 250.386 226.889H248.452V173.367Z" fill="#BDB3F4"/>
<path d="M409.338 79.3242H471.338V81.3242H409.338V79.3242Z" fill="#BDB3F4"/>
<path d="M394.338 87.3242H471.338V89.3242H394.338V87.3242Z" fill="#BDB3F4"/>
</svg>
