<svg width="893" height="1090" viewBox="0 0 893 1090" fill="none" xmlns="http://www.w3.org/2000/svg">
<path d="M893 374.401V377.403C891.986 378.848 891.158 380.479 889.928 381.707C884.021 387.601 876.923 391.17 868.641 392.486C866.016 392.903 863.449 393.791 860.911 394.635C854.292 396.836 847.697 399.109 841.109 401.402C838.946 402.154 836.689 402.803 834.723 403.931C825.488 409.226 816.339 414.673 807.163 420.063C812.618 423.172 818.628 426.449 824.48 429.989C827.968 432.099 831.523 434.289 834.448 437.074C836.4 438.932 837.97 441.754 838.547 444.398C840.738 454.447 842.418 464.606 844.363 474.71C845.43 480.253 844.827 485.584 843.203 490.966C841.222 497.534 839.541 504.2 837.936 510.872C837.258 513.689 836.188 516.108 833.331 516.996C830.307 517.936 827.182 517.182 825.531 514.588C823.383 511.213 821.137 507.474 820.527 503.638C819.327 496.086 820.581 488.686 825.49 482.739C823.401 479.233 821.483 476.015 819.402 472.522C816.887 479.167 814.546 485.714 811.903 492.136C810.984 494.37 809.572 496.527 807.943 498.317C803.101 503.638 798.046 508.765 793.059 513.954C791.397 515.683 789.78 517.471 787.98 519.047C785.551 521.175 783.598 520.825 781.634 518.361C779.07 515.147 778.891 511.547 779.93 507.848C780.637 505.33 781.769 502.931 782.894 500.001C780.784 501.674 779.068 503.029 777.358 504.392C775.637 505.763 773.97 507.207 772.195 508.503C768.03 511.541 764.976 510.101 764.347 504.957C763.909 501.374 765.832 498.825 767.928 496.396C771.576 492.166 775.353 488.047 779.19 483.754C778.591 483.48 778.087 483.177 777.541 483.011C770.95 481.013 764.396 478.871 757.746 477.093C750.188 475.074 742.561 475.182 734.92 476.996C717.041 481.241 700.219 478.157 684.338 469.297C681.359 467.635 678.462 467.297 675.5 468.808C671.768 470.711 667.99 472.599 664.514 474.917C642.396 489.668 620.206 504.319 598.325 519.417C570.356 538.717 542.631 558.373 514.876 577.982C511.723 580.21 508.811 582.908 506.255 585.802C505.015 587.206 504.122 589.654 504.335 591.483C505.539 601.803 507.05 612.09 508.607 622.366C509.944 631.198 510.698 639.939 509.126 648.895C507.357 658.97 506.962 669.228 508.631 679.374C511.302 695.617 511.9 711.94 512.041 728.374C512.176 744.147 512.691 760.006 514.558 775.644C515.873 786.658 519.837 797.341 522.425 808.217C526.488 825.296 532.682 841.814 535.197 859.319C536.69 869.707 538.542 879.967 538.428 890.552C538.267 905.551 538.548 920.562 539.002 935.557C539.267 944.312 540.238 953.046 540.906 961.991C541.82 961.991 542.598 961.996 543.375 961.99C562.41 961.833 580.255 965.854 596.14 976.895C596.956 977.463 598.178 977.603 599.225 977.659C624.462 979.008 647.627 986.421 668.439 1000.97C671.637 1003.2 673.723 1005.94 673.982 1009.73C674.52 1017.6 674.629 1025.51 675.228 1033.37C675.574 1037.91 673.622 1041.07 670.337 1043.68C668.621 1045.04 666.873 1046.5 664.902 1047.38C656.72 1051.05 648.651 1055.14 640.167 1057.95C611.694 1067.37 582.287 1072.79 552.544 1075.85C515.76 1079.64 478.912 1083.03 442.018 1085.46C409.502 1087.59 376.894 1088.65 344.31 1089.34C266.88 1090.99 189.514 1090.03 112.467 1080.9C88.4383 1078.05 64.5253 1074.33 41.2767 1067.51C30.3014 1064.29 19.6262 1059.93 9.02843 1055.58C3.37216 1053.25 0.187242 1048.66 0.555125 1042.06C0.793979 1037.77 0.805982 1033.45 0.547923 1029.16C0.227451 1023.83 2.14488 1019.38 5.22118 1015.28C9.67178 1009.35 15.3953 1004.85 21.6499 1001C24.3541 999.328 27.1345 997.784 29.7973 996.232C29.8285 995.864 29.8915 995.659 29.8543 995.475C23.7768 965.111 17.9092 934.703 11.543 904.399C5.91853 877.626 2.25291 850.644 1.07304 823.315C0.79758 816.936 0.361882 810.563 0 804.188C0 797.184 0 790.181 0 783.178C0.403291 776.405 0.729764 769.627 1.22488 762.862C2.31412 747.988 3.76165 733.142 8.8646 718.992C31.1884 657.092 52.4266 594.797 76.4206 533.503C82.7598 517.308 88.2229 500.796 89.9495 483.317C91.5386 467.235 95.2769 451.617 100.195 436.261C106.682 416.004 116.311 397.607 131.361 382.24C143.564 369.781 158.547 362.484 175.29 359.296C183.755 357.685 190.512 354.118 196.386 348.394C206.343 338.691 216.031 328.712 225.941 318.961C232.078 312.923 236.861 305.966 240.69 298.318C249.424 280.874 253.053 262.189 254.711 242.895C256.29 224.512 252.956 207.206 244.556 190.959C239.93 182.01 234.344 173.559 229.258 164.844C210.011 131.864 205.579 97.123 218.762 61.1074C229.871 30.7607 251.094 10.4589 283.118 3.11724C305.752 -2.07209 328.518 -0.32071 350.901 4.97726C367.818 8.98119 384.443 14.0823 399.223 23.8397C418.313 36.4421 431.552 53.2027 437.755 75.4966C440.951 86.9808 441.514 98.7297 442.993 110.413C444.137 119.453 441.776 126.885 435.346 133.259C433.75 134.841 432.719 137.007 431.494 138.947C430.351 140.755 430.334 142.491 431.311 144.551C437.084 156.734 442.689 168.996 448.384 181.216C451.122 187.088 450.046 190.838 444.162 193.687C440.047 195.681 435.679 197.171 431.367 198.729C429.335 199.464 428.618 200.584 429.448 202.581C430.559 205.254 431.402 208.104 432.924 210.522C434.49 213.011 434.581 214.731 432.141 216.559C429.143 218.804 427.803 221.515 429.937 225.231C431.037 227.147 430.365 229.051 428.491 230.158C425.574 231.882 424.494 234.609 424.279 237.675C423.774 244.85 423.358 252.035 423.13 259.223C422.934 265.432 421.136 268.15 415.227 269.97C408.516 272.036 401.599 272.311 394.73 271.383C387.753 270.44 380.856 268.902 374.018 267.642C360.991 292.019 359.11 317.667 367.784 344.132C371.197 344.782 374.835 345.386 378.432 346.175C389.228 348.543 398.636 354.147 407.047 360.769C416.862 368.498 422.661 379.341 424.879 391.8C425.337 394.376 426.33 396.366 428.126 398.281C439.277 410.175 450.481 422.027 461.329 434.195C470.508 444.492 479.278 455.157 488.113 465.755C490.006 468.026 491.803 468.517 494.753 467.894C526.889 461.105 558.05 451.104 588.664 439.372C606.934 432.37 625.017 424.876 643.125 417.46C654.477 412.811 666.507 411.344 678.48 409.926C705.372 406.74 732.247 403.522 758.91 398.697C760.987 398.321 763.675 398.629 765.422 399.695C768.872 401.802 772.117 402.041 775.924 401.081C789.071 397.766 801.526 392.677 813.628 386.684C818.491 384.275 823.297 381.939 828.858 381.653C831.241 381.53 833.633 381.159 835.972 380.669C845.344 378.707 854.688 376.603 864.063 374.653C870.612 373.291 877.238 372.279 883.75 370.769C889.945 369.333 889.921 369.146 892.999 374.398L893 374.401ZM183.728 546.9C183.197 547.977 182.9 548.483 182.688 549.022C172.571 574.764 162.2 600.41 152.428 626.282C143.324 650.386 134.565 674.6 123.144 697.758C118.91 706.343 114.934 715.109 111.606 724.078C104.79 742.446 103.174 761.852 101.483 781.163C100.237 795.404 99.5468 809.696 98.6808 823.969C97.555 842.536 96.1723 861.096 95.4989 879.681C94.6665 902.669 94.3923 925.678 93.9926 948.68C93.8281 958.158 93.9656 967.641 93.9656 977.22C94.7091 977.145 95.029 977.188 95.2781 977.075C109.766 970.538 125.053 966.56 140.611 963.894C159.013 960.74 177.548 958.355 196.042 955.759C198.039 955.479 198.807 954.781 199.403 952.86C204.192 937.413 208.801 921.898 214.108 906.628C225.281 874.485 240.877 844.247 255.038 813.401C263.745 794.432 270.887 775 274.568 754.418C276.258 744.965 277.597 735.414 276.287 725.786C274.53 712.879 270.14 700.715 264.22 689.243C257.631 676.475 250.242 664.118 243.151 651.61C229.699 627.879 216.208 604.171 202.741 580.45C196.481 569.423 190.237 558.388 183.728 546.899V546.9Z" fill="black"/>
</svg>
