<?xml version="1.0" encoding="UTF-8"?>
<svg id="Layer_1" data-name="Layer 1" xmlns="http://www.w3.org/2000/svg" viewBox="0 0 1488 1816.06">
  <defs>
    <style>
      .cls-1 {
        fill: #000;
        stroke-width: 0px;
      }
    </style>
  </defs>
  <path class="cls-1" d="M1488,623.79v5.001c-1.689,2.408-3.069,5.126-5.119,7.172-9.842,9.819-21.67,15.766-35.47,17.958-4.374.695-8.652,2.175-12.88,3.581-11.029,3.667-22.019,7.455-32.997,11.274-3.604,1.254-7.364,2.335-10.64,4.214-15.389,8.823-30.634,17.897-45.924,26.878,9.09,5.18,19.105,10.64,28.855,16.537,5.813,3.516,11.736,7.165,16.61,11.805,3.253,3.096,5.869,7.797,6.83,12.202,3.651,16.743,6.45,33.67,9.692,50.504,1.778,9.235.772,18.117-1.933,27.085-3.301,10.943-6.102,22.048-8.777,33.165-1.129,4.694-2.912,8.723-7.673,10.203-5.038,1.566-10.246.31-12.997-4.012-3.579-5.623-7.322-11.853-8.338-18.244-2-12.583.089-24.911,8.269-34.82-3.481-5.842-6.676-11.203-10.143-17.022-4.191,11.071-8.092,21.979-12.496,32.679-1.531,3.721-3.884,7.315-6.598,10.297-8.069,8.866-16.492,17.409-24.802,26.054-2.769,2.881-5.464,5.86-8.463,8.486-4.048,3.545-7.301,2.961-10.575-1.144-4.271-5.354-4.57-11.353-2.839-17.516,1.178-4.195,3.064-8.191,4.94-13.074-3.517,2.788-6.376,5.046-9.226,7.316-2.867,2.284-5.644,4.691-8.603,6.849-6.94,5.063-12.028,2.663-13.077-5.908-.73-5.969,2.475-10.216,5.967-14.263,6.079-7.047,12.372-13.91,18.766-21.063-.997-.456-1.837-.961-2.747-1.237-10.983-3.33-21.903-6.899-32.985-9.86-12.594-3.365-25.303-3.185-38.034-.163-29.792,7.073-57.822,1.935-84.285-12.827-4.964-2.769-9.791-3.332-14.726-.815-6.219,3.171-12.514,6.317-18.306,10.179-36.856,24.576-73.831,48.986-110.29,74.142-46.605,32.156-92.802,64.905-139.05,97.575-5.255,3.712-10.107,8.207-14.366,13.029-2.066,2.34-3.554,6.419-3.199,9.465,2.006,17.195,4.524,34.335,7.118,51.456,2.229,14.714,3.485,29.278.865,44.2-2.947,16.785-3.606,33.876-.825,50.781,4.451,27.063,5.448,54.258,5.682,81.64.225,26.279,1.084,52.701,4.195,78.757,2.191,18.349,8.796,36.149,13.108,54.27,6.77,28.455,17.091,55.976,21.282,85.141,2.487,17.307,5.574,34.402,5.384,52.037-.269,24.99.199,50.001.956,74.984.442,14.587,2.059,29.138,3.173,44.042,1.523,0,2.819.009,4.114-.001,31.718-.262,61.453,6.437,87.922,24.833,1.36.946,3.395,1.18,5.141,1.273,42.051,2.247,80.651,14.599,115.33,38.833,5.328,3.724,8.805,8.291,9.236,14.6.896,13.116,1.078,26.284,2.077,39.39.576,7.554-2.676,12.819-8.151,17.169-2.859,2.271-5.771,4.699-9.055,6.172-13.635,6.117-27.079,12.935-41.216,17.613-47.444,15.698-96.446,24.722-146.005,29.825-61.293,6.311-122.693,11.957-184.17,15.999-54.18,3.562-108.514,5.318-162.81,6.472-129.021,2.742-257.935,1.154-386.318-14.062-40.038-4.745-79.884-10.939-118.623-22.312-18.288-5.369-36.076-12.62-53.735-19.882-9.425-3.876-14.732-11.52-14.119-22.521.398-7.145.418-14.35-.012-21.491-.534-8.881,2.661-16.294,7.787-23.125,7.416-9.883,16.953-17.371,27.375-23.798,4.506-2.779,9.139-5.351,13.576-7.937.052-.614.157-.955.095-1.262-10.127-50.59-19.904-101.253-30.512-151.742-9.372-44.608-15.48-89.563-17.446-135.095-.459-10.629-1.185-21.247-1.788-31.869,0-11.668,0-23.336,0-35.004.672-11.284,1.216-22.577,2.041-33.849,1.815-24.782,4.227-49.516,12.73-73.093,37.198-103.132,72.587-206.922,112.568-309.045,10.563-26.982,19.666-54.493,22.543-83.615,2.648-26.795,8.877-52.815,17.072-78.401,10.809-33.749,26.854-64.401,51.932-90.004,20.333-20.758,45.3-32.916,73.198-38.227,14.106-2.685,25.364-8.628,35.152-18.165,16.591-16.166,32.734-32.792,49.248-49.039,10.225-10.06,18.195-21.65,24.576-34.393,14.553-29.063,20.6-60.194,23.362-92.341,2.631-30.627-2.924-59.461-16.92-86.53-7.709-14.911-17.016-28.991-25.491-43.511-32.071-54.949-39.457-112.831-17.489-172.837,18.51-50.561,53.874-84.386,107.235-96.618,37.715-8.646,75.649-5.728,112.947,3.099,28.188,6.671,55.89,15.17,80.518,31.427,31.81,20.997,53.869,48.922,64.206,86.066,5.325,19.134,6.263,38.709,8.727,58.174,1.907,15.062-2.027,27.445-12.741,38.064-2.66,2.636-4.378,6.246-6.42,9.477-1.904,3.013-1.932,5.905-.305,9.338,9.621,20.297,18.96,40.728,28.45,61.087,4.561,9.784,2.769,16.031-7.036,20.779-6.857,3.321-14.135,5.804-21.32,8.4-3.386,1.224-4.58,3.091-3.197,6.418,1.851,4.453,3.255,9.201,5.791,13.23,2.61,4.148,2.761,7.013-1.304,10.058-4.995,3.741-7.229,8.258-3.673,14.45,1.833,3.192.713,6.363-2.41,8.208-4.86,2.873-6.659,7.416-7.018,12.525-.841,11.953-1.535,23.925-1.914,35.901-.327,10.344-3.322,14.873-13.169,17.905-11.183,3.443-22.708,3.901-34.154,2.354-11.626-1.571-23.118-4.133-34.512-6.233-21.707,40.616-24.842,83.347-10.387,127.442,5.687,1.082,11.748,2.088,17.742,3.403,17.99,3.945,33.666,13.282,47.68,24.316,16.355,12.877,26.019,30.942,29.714,51.7.764,4.293,2.418,7.608,5.41,10.799,18.581,19.817,37.251,39.563,55.326,59.837,15.295,17.155,29.908,34.924,44.63,52.582,3.154,3.784,6.149,4.601,11.064,3.563,53.548-11.311,105.472-27.974,156.484-47.521,30.443-11.666,60.574-24.151,90.748-36.507,18.915-7.746,38.961-10.19,58.911-12.553,44.81-5.307,89.592-10.67,134.02-18.709,3.461-.626,7.94-.113,10.851,1.664,5.749,3.51,11.156,3.909,17.5,2.309,21.906-5.524,42.659-14.002,62.825-23.988,8.103-4.013,16.111-7.905,25.378-8.382,3.971-.205,7.956-.823,11.853-1.639,15.618-3.269,31.187-6.774,46.809-10.023,10.912-2.269,21.952-3.956,32.803-6.471,10.324-2.393,10.284-2.704,15.412,6.046ZM306.146,911.192c-.885,1.795-1.379,2.638-1.732,3.536-16.858,42.889-34.14,85.618-50.423,128.724-15.17,40.159-29.764,80.503-48.795,119.086-7.055,14.305-13.681,28.91-19.226,43.852-11.358,30.604-14.05,62.936-16.867,95.11-2.077,23.728-3.227,47.539-4.67,71.32-1.876,30.935-4.18,61.858-5.302,92.822-1.387,38.301-1.844,76.637-2.51,114.961-.274,15.791-.045,31.591-.045,47.551,1.239-.126,1.772-.054,2.187-.242,24.141-10.891,49.614-17.52,75.538-21.962,30.663-5.254,61.547-9.228,92.364-13.553,3.328-.467,4.607-1.629,5.6-4.83,7.98-25.736,15.66-51.586,24.504-77.028,18.617-53.553,44.604-103.933,68.2-155.327,14.509-31.603,26.41-63.979,32.543-98.272,2.817-15.749,5.047-31.662,2.864-47.703-2.927-21.506-10.242-41.772-20.106-60.886-10.979-21.273-23.292-41.861-35.107-62.7-22.415-39.538-44.895-79.038-67.336-118.561-10.431-18.371-20.834-36.757-31.681-55.899Z"/>
</svg>