<svg width="392" height="54" viewBox="0 0 392 54" fill="none" xmlns="http://www.w3.org/2000/svg">
<path d="M43.9179 36.3308V0H57.6332V52.0887H42.24L13.8611 15.7579H13.7152V52.0887H0V0H16.4145L43.772 36.3308H43.9179Z" fill="#B8B2F2"/>
<path d="M101.243 40.4162H114.959C113.159 44.8906 110.168 48.1979 105.985 50.3378C101.803 52.4778 96.6716 53.5478 90.5921 53.5478C86.6526 53.5478 83.1022 53.1344 79.9409 52.3076C76.7796 51.4808 74.056 50.2162 71.7701 48.514C69.5329 46.8117 67.8064 44.6231 66.5905 41.9482C65.3746 39.2732 64.7666 36.1362 64.7666 32.5372C64.7666 28.9382 65.3746 25.8012 66.5905 23.1262C67.8064 20.4513 69.5329 18.2627 71.7701 16.5604C74.056 14.8582 76.7796 13.5936 79.9409 12.7668C83.1022 11.94 86.6526 11.5266 90.5921 11.5266C98.9088 11.5266 105.158 13.545 109.341 17.5818C113.572 21.5699 115.688 27.3089 115.688 34.7988V35.966H78.0441V36.1119C78.0441 37.0846 78.2873 38.1303 78.7737 39.2489C79.3087 40.3189 80.0868 41.3402 81.1082 42.313C82.1295 43.237 83.4427 44.0152 85.0477 44.6475C86.6526 45.2311 88.5008 45.5229 90.5921 45.5229C95.8448 45.5229 99.3952 43.8207 101.243 40.4162ZM78.0441 28.3789H102.411V28.233C102.411 27.6007 102.192 26.7982 101.754 25.8255C101.365 24.8528 100.684 23.9044 99.7113 22.9803C98.7872 22.0076 97.5227 21.2051 95.9177 20.5729C94.3614 19.892 92.4889 19.5515 90.3003 19.5515C87.9658 19.5515 85.9717 19.9163 84.3181 20.6458C82.7132 21.3753 81.4486 22.2751 80.5246 23.3451C79.6491 24.3664 79.0169 25.3391 78.6278 26.2632C78.2387 27.1873 78.0441 27.8439 78.0441 28.233V28.3789Z" fill="#B8B2F2"/>
<path d="M132.454 52.0887L117.863 12.9857H132.016L140.989 39.6866H141.135L150.181 12.9857H162.583L171.63 39.6866H171.776L180.749 12.9857H194.902L180.311 52.0887H164.918L156.455 26.8468H156.309L147.847 52.0887H132.454Z" fill="#B8B2F2"/>
<path d="M226.839 52.0887V0H275.499V9.92166H240.992V20.7188H273.748V30.2027H240.992V42.167H275.791V52.0887H226.839Z" fill="#B8B2F2"/>
<path d="M283.037 52.0887V12.9857H295.439V20.6458H295.585C298.065 17.4845 300.4 15.2473 302.588 13.9341C304.826 12.6209 307.695 11.9644 311.197 11.9644C313.094 11.9644 314.65 12.0859 315.866 12.3291V24.3664C313.094 23.5883 310.735 23.1992 308.789 23.1992C304.509 23.1992 301.275 24.2448 299.087 26.3362C296.947 28.3789 295.877 31.3456 295.877 35.2365V52.0887H283.037Z" fill="#B8B2F2"/>
<path d="M354.061 36.2578V33.0479C352.991 33.5829 351.872 33.972 350.705 34.2151C349.538 34.4097 348.127 34.5799 346.474 34.7258L339.033 35.3824C336.698 35.5769 334.971 36.0633 333.853 36.8415C332.783 37.571 332.248 38.7869 332.248 40.4891C332.248 42.1914 332.977 43.5288 334.436 44.5016C335.944 45.4743 337.914 45.9606 340.346 45.9606C341.999 45.9606 343.629 45.7661 345.234 45.377C346.887 44.9393 348.371 44.3313 349.684 43.5532C351.046 42.7264 352.116 41.705 352.894 40.4891C353.672 39.2246 354.061 37.8142 354.061 36.2578ZM333.415 24.9501H321.013C321.402 22.0806 322.302 19.746 323.712 17.9465C325.123 16.0984 326.874 14.7123 328.965 13.7882C331.105 12.8641 333.391 12.2562 335.823 11.9644C338.303 11.6725 341.075 11.5266 344.139 11.5266C348.565 11.5266 352.237 11.8671 355.155 12.548C358.122 13.2289 360.408 14.1773 362.013 15.3932C363.666 16.5604 364.809 17.9222 365.442 19.4786C366.123 21.0349 366.463 22.8101 366.463 24.8041V44.2097C366.463 47.2738 366.949 49.9001 367.922 52.0887H355.082C354.547 50.4351 354.255 49.049 354.207 47.9304C353.185 48.9517 351.921 49.8515 350.413 50.6296C348.954 51.3592 347.374 51.9185 345.671 52.3076C344.018 52.7453 342.364 53.0614 340.71 53.256C339.057 53.4505 337.452 53.5478 335.896 53.5478C330.497 53.5478 326.241 52.5264 323.129 50.4837C320.065 48.441 318.533 45.2311 318.533 40.8539C318.533 38.568 318.995 36.6712 319.919 35.1635C320.843 33.6072 322.059 32.4156 323.566 31.5888C325.074 30.7134 326.752 30.0811 328.6 29.692C330.497 29.2543 332.54 28.9625 334.728 28.8166L348.371 27.8682C350.413 27.7223 351.799 27.3818 352.529 26.8468C353.258 26.3118 353.623 25.2905 353.623 23.7828C353.623 22.1778 352.845 21.0106 351.289 20.281C349.781 19.5029 347.203 19.1138 343.556 19.1138C340.492 19.1138 338.23 19.4542 336.771 20.1351C335.361 20.816 334.242 22.421 333.415 24.9501Z" fill="#B8B2F2"/>
<path d="M376.984 52.0887V39.6866H391.137V52.0887H376.984Z" fill="#B8B2F2"/>
</svg>
