<svg width="749" height="69" viewBox="0 0 749 69" fill="none" xmlns="http://www.w3.org/2000/svg">
<path d="M43.9179 37.2062V0.875438H57.6332V52.9641H42.24L13.8611 16.6334H13.7152V52.9641H0V0.875438H16.4145L43.772 37.2062H43.9179Z" fill="url(#paint0_linear_306_185)"/>
<path d="M101.243 41.2916H114.959C113.159 45.7661 110.168 49.0733 105.985 51.2133C101.803 53.3532 96.6716 54.4232 90.5921 54.4232C86.6526 54.4232 83.1022 54.0098 79.9409 53.183C76.7796 52.3562 74.056 51.0917 71.7701 49.3894C69.5329 47.6872 67.8064 45.4986 66.5905 42.8236C65.3746 40.1487 64.7666 37.0117 64.7666 33.4126C64.7666 29.8136 65.3746 26.6766 66.5905 24.0017C67.8064 21.3267 69.5329 19.1381 71.7701 17.4359C74.056 15.7336 76.7796 14.4691 79.9409 13.6423C83.1022 12.8155 86.6526 12.4021 90.5921 12.4021C98.9088 12.4021 105.158 14.4204 109.341 18.4572C113.572 22.4453 115.688 28.1843 115.688 35.6742V36.8414H78.0441V36.9874C78.0441 37.9601 78.2873 39.0057 78.7737 40.1244C79.3087 41.1943 80.0868 42.2157 81.1082 43.1884C82.1295 44.1125 83.4427 44.8906 85.0477 45.5229C86.6526 46.1065 88.5008 46.3983 90.5921 46.3983C95.8448 46.3983 99.3952 44.6961 101.243 41.2916ZM78.0441 29.2543H102.411V29.1084C102.411 28.4761 102.192 27.6736 101.754 26.7009C101.365 25.7282 100.684 24.7798 99.7113 23.8558C98.7872 22.883 97.5227 22.0806 95.9177 21.4483C94.3614 20.7674 92.4889 20.4269 90.3003 20.4269C87.9658 20.4269 85.9717 20.7917 84.3181 21.5212C82.7132 22.2508 81.4486 23.1505 80.5246 24.2205C79.6491 25.2419 79.0169 26.2146 78.6278 27.1387C78.2387 28.0627 78.0441 28.7193 78.0441 29.1084V29.2543Z" fill="url(#paint1_linear_306_185)"/>
<path d="M132.454 52.9641L117.863 13.8611H132.016L140.989 40.5621H141.135L150.181 13.8611H162.583L171.63 40.5621H171.776L180.749 13.8611H194.902L180.311 52.9641H164.918L156.455 27.7223H156.309L147.847 52.9641H132.454Z" fill="url(#paint2_linear_306_185)"/>
<path d="M226.839 52.9641V0.875438H240.992V52.9641H226.839Z" fill="url(#paint3_linear_306_185)"/>
<path d="M282.8 52.9641V30.7863C282.8 25.4364 279.931 22.7614 274.192 22.7614C270.933 22.7614 268.283 23.6855 266.24 25.5337C264.197 27.3332 263.176 30.1784 263.176 34.0692V52.9641H250.336V13.8611H262.738V19.5515H262.884C264.149 17.752 266.24 16.1956 269.158 14.8825C272.076 13.5207 275.31 12.8398 278.861 12.8398C280.758 12.8398 282.654 13.0587 284.551 13.4964C286.448 13.8855 288.223 14.615 289.877 15.685C291.579 16.7063 292.965 18.1654 294.035 20.0622C295.105 21.9103 295.64 24.1962 295.64 26.9198V52.9641H282.8Z" fill="url(#paint4_linear_306_185)"/>
<path d="M308.568 13.8611V1.75088H321.408V13.8611H331.767V22.4696H321.408V40.708C321.408 42.2643 321.7 43.3343 322.283 43.9179C322.916 44.5016 324.059 44.7934 325.712 44.7934C327.123 44.7934 329.165 44.6961 331.84 44.5016H331.986V53.1101C330.576 53.3046 328.874 53.4748 326.88 53.6207C324.885 53.7666 323.232 53.8396 321.919 53.8396C318.952 53.8396 316.569 53.5721 314.769 53.0371C312.97 52.5021 311.632 51.7483 310.757 50.7755C309.881 49.8028 309.298 48.6356 309.006 47.2738C308.714 45.912 308.568 44.2341 308.568 42.24V22.4696H300.47V13.8611H308.568Z" fill="url(#paint5_linear_306_185)"/>
<path d="M371.114 41.2916H384.829C383.03 45.7661 380.038 49.0733 375.856 51.2133C371.673 53.3532 366.542 54.4232 360.463 54.4232C356.523 54.4232 352.973 54.0098 349.811 53.183C346.65 52.3562 343.926 51.0917 341.641 49.3894C339.403 47.6872 337.677 45.4986 336.461 42.8236C335.245 40.1487 334.637 37.0117 334.637 33.4126C334.637 29.8136 335.245 26.6766 336.461 24.0017C337.677 21.3267 339.403 19.1381 341.641 17.4359C343.926 15.7336 346.65 14.4691 349.811 13.6423C352.973 12.8155 356.523 12.4021 360.463 12.4021C368.779 12.4021 375.029 14.4204 379.212 18.4572C383.443 22.4453 385.559 28.1843 385.559 35.6742V36.8414H347.915V36.9874C347.915 37.9601 348.158 39.0057 348.644 40.1244C349.179 41.1943 349.957 42.2157 350.979 43.1884C352 44.1125 353.313 44.8906 354.918 45.5229C356.523 46.1065 358.371 46.3983 360.463 46.3983C365.715 46.3983 369.266 44.6961 371.114 41.2916ZM347.915 29.2543H372.281V29.1084C372.281 28.4761 372.062 27.6736 371.624 26.7009C371.235 25.7282 370.554 24.7798 369.582 23.8558C368.658 22.883 367.393 22.0806 365.788 21.4483C364.232 20.7674 362.359 20.4269 360.171 20.4269C357.836 20.4269 355.842 20.7917 354.189 21.5212C352.584 22.2508 351.319 23.1505 350.395 24.2205C349.52 25.2419 348.887 26.2146 348.498 27.1387C348.109 28.0627 347.915 28.7193 347.915 29.1084V29.2543Z" fill="url(#paint6_linear_306_185)"/>
<path d="M392.111 52.9641V0H404.95V52.9641H392.111Z" fill="url(#paint7_linear_306_185)"/>
<path d="M413.697 52.9641V0H426.537V52.9641H413.697Z" fill="url(#paint8_linear_306_185)"/>
<path d="M435.284 52.9641V13.8611H448.124V52.9641H435.284ZM435.284 9.04621V0H448.124V9.04621H435.284Z" fill="url(#paint9_linear_306_185)"/>
<path d="M468.325 32.6102C468.325 34.7501 468.665 36.5253 469.346 37.9358C470.076 39.3462 471.024 40.4405 472.191 41.2187C473.407 41.9968 474.72 42.5561 476.131 42.8966C477.541 43.1884 479.025 43.3343 480.581 43.3343C482.186 43.3343 483.694 43.1884 485.104 42.8966C486.514 42.5561 487.803 41.9968 488.971 41.2187C490.186 40.4405 491.135 39.3462 491.816 37.9358C492.545 36.5253 492.91 34.7501 492.91 32.6102C492.91 30.4702 492.545 28.695 491.816 27.2846C491.135 25.8741 490.186 24.7798 488.971 24.0017C487.803 23.2235 486.514 22.6885 485.104 22.3967C483.694 22.0562 482.186 21.886 480.581 21.886C479.025 21.886 477.541 22.0562 476.131 22.3967C474.72 22.6885 473.407 23.2235 472.191 24.0017C471.024 24.7312 470.076 25.8255 469.346 27.2846C468.665 28.695 468.325 30.4702 468.325 32.6102ZM493.348 18.6031V13.8611H505.75V49.8272C505.75 56.393 503.658 61.1349 499.476 64.0531C495.342 67.0198 489.068 68.5032 480.654 68.5032C477.736 68.5032 475.012 68.3573 472.483 68.0655C469.954 67.8223 467.522 67.263 465.188 66.3876C462.902 65.5121 460.981 64.1747 459.424 62.3751C457.868 60.6243 456.944 58.3627 456.652 55.5905H470.367C470.805 57.2927 471.802 58.5329 473.358 59.3111C474.963 60.0893 477.541 60.4783 481.092 60.4783C482.842 60.4783 484.399 60.3324 485.761 60.0406C487.171 59.7488 488.411 59.1895 489.481 58.3627C490.551 57.5845 491.378 56.4416 491.962 54.9339C492.594 53.4748 492.91 51.6024 492.91 49.3165V46.1795C491.159 48.1735 488.946 49.6326 486.271 50.5567C483.645 51.4808 480.654 51.9428 477.298 51.9428C473.602 51.9428 470.343 51.4321 467.522 50.4108C464.701 49.3408 462.367 47.8817 460.519 46.0336C458.671 44.1854 457.284 42.0941 456.36 39.7596C455.485 37.4251 455.047 34.969 455.047 32.3913C455.047 29.6677 455.509 27.1387 456.433 24.8041C457.357 22.421 458.768 20.3297 460.665 18.5302C462.561 16.7306 464.969 15.3445 467.887 14.3718C470.854 13.3505 474.331 12.8398 478.319 12.8398C481.383 12.8398 484.229 13.3018 486.855 14.2259C489.481 15.15 491.597 16.6091 493.202 18.6031H493.348Z" fill="url(#paint10_linear_306_185)"/>
<path d="M547.94 41.2916H561.655C559.856 45.7661 556.865 49.0733 552.682 51.2133C548.499 53.3532 543.368 54.4232 537.289 54.4232C533.35 54.4232 529.799 54.0098 526.638 53.183C523.477 52.3562 520.753 51.0917 518.467 49.3894C516.23 47.6872 514.503 45.4986 513.287 42.8236C512.071 40.1487 511.464 37.0117 511.464 33.4126C511.464 29.8136 512.071 26.6766 513.287 24.0017C514.503 21.3267 516.23 19.1381 518.467 17.4359C520.753 15.7336 523.477 14.4691 526.638 13.6423C529.799 12.8155 533.35 12.4021 537.289 12.4021C545.606 12.4021 551.855 14.4204 556.038 18.4572C560.269 22.4453 562.385 28.1843 562.385 35.6742V36.8414H524.741V36.9874C524.741 37.9601 524.984 39.0057 525.471 40.1244C526.005 41.1943 526.784 42.2157 527.805 43.1884C528.826 44.1125 530.14 44.8906 531.745 45.5229C533.349 46.1065 535.198 46.3983 537.289 46.3983C542.542 46.3983 546.092 44.6961 547.94 41.2916ZM524.741 29.2543H549.107V29.1084C549.107 28.4761 548.889 27.6736 548.451 26.7009C548.062 25.7282 547.381 24.7798 546.408 23.8558C545.484 22.883 544.22 22.0806 542.615 21.4483C541.058 20.7674 539.186 20.4269 536.997 20.4269C534.663 20.4269 532.669 20.7917 531.015 21.5212C529.41 22.2508 528.146 23.1505 527.221 24.2205C526.346 25.2419 525.714 26.2146 525.325 27.1387C524.936 28.0627 524.741 28.7193 524.741 29.1084V29.2543Z" fill="url(#paint11_linear_306_185)"/>
<path d="M601.401 52.9641V30.7863C601.401 25.4364 598.532 22.7614 592.793 22.7614C589.534 22.7614 586.884 23.6855 584.841 25.5337C582.798 27.3332 581.777 30.1784 581.777 34.0692V52.9641H568.937V13.8611H581.339V19.5515H581.485C582.75 17.752 584.841 16.1956 587.759 14.8825C590.677 13.5207 593.911 12.8398 597.462 12.8398C599.359 12.8398 601.255 13.0587 603.152 13.4964C605.049 13.8855 606.824 14.615 608.478 15.685C610.18 16.7063 611.566 18.1654 612.636 20.0622C613.706 21.9103 614.241 24.1962 614.241 26.9198V52.9641H601.401Z" fill="url(#paint12_linear_306_185)"/>
<path d="M670.941 28.3059H657.664C656.934 25.8255 655.67 24.0746 653.87 23.0533C652.071 21.9833 649.785 21.4483 647.013 21.4483C643.024 21.4483 639.936 22.494 637.747 24.5853C635.559 26.628 634.465 29.5704 634.465 33.4126C634.465 37.2549 635.559 40.2216 637.747 42.313C639.936 44.3556 643.024 45.377 647.013 45.377C649.882 45.377 652.29 44.6718 654.235 43.2613C656.18 41.8023 657.323 39.8569 657.664 37.4251H670.941C670.358 40.7809 669.336 43.5775 667.877 45.8147C666.467 48.052 664.667 49.8028 662.479 51.0674C660.339 52.2832 657.883 53.1344 655.11 53.6207C652.387 54.1557 649.323 54.4232 645.918 54.4232C642.173 54.4232 638.769 54.0098 635.705 53.183C632.689 52.3562 630.087 51.0917 627.899 49.3894C625.759 47.6872 624.105 45.4986 622.938 42.8236C621.771 40.1487 621.187 37.0117 621.187 33.4126C621.187 29.8136 621.795 26.6766 623.011 24.0017C624.227 21.3267 625.953 19.1381 628.191 17.4359C630.477 15.7336 633.2 14.4691 636.361 13.6423C639.523 12.8155 643.073 12.4021 647.013 12.4021C649.736 12.4021 652.362 12.6452 654.892 13.1316C657.421 13.618 659.779 14.4448 661.968 15.612C664.205 16.7793 666.102 18.4329 667.658 20.5728C669.263 22.6642 670.358 25.2419 670.941 28.3059Z" fill="url(#paint13_linear_306_185)"/>
<path d="M711.373 41.2916H725.088C723.289 45.7661 720.297 49.0733 716.115 51.2133C711.932 53.3532 706.801 54.4232 700.722 54.4232C696.782 54.4232 693.232 54.0098 690.07 53.183C686.909 52.3562 684.186 51.0917 681.9 49.3894C679.662 47.6872 677.936 45.4986 676.72 42.8236C675.504 40.1487 674.896 37.0117 674.896 33.4126C674.896 29.8136 675.504 26.6766 676.72 24.0017C677.936 21.3267 679.662 19.1381 681.9 17.4359C684.186 15.7336 686.909 14.4691 690.07 13.6423C693.232 12.8155 696.782 12.4021 700.722 12.4021C709.038 12.4021 715.288 14.4204 719.471 18.4572C723.702 22.4453 725.818 28.1843 725.818 35.6742V36.8414H688.174V36.9874C688.174 37.9601 688.417 39.0057 688.903 40.1244C689.438 41.1943 690.216 42.2157 691.238 43.1884C692.259 44.1125 693.572 44.8906 695.177 45.5229C696.782 46.1065 698.63 46.3983 700.722 46.3983C705.974 46.3983 709.525 44.6961 711.373 41.2916ZM688.174 29.2543H712.54V29.1084C712.54 28.4761 712.321 27.6736 711.884 26.7009C711.494 25.7282 710.814 24.7798 709.841 23.8558C708.917 22.883 707.652 22.0806 706.047 21.4483C704.491 20.7674 702.618 20.4269 700.43 20.4269C698.095 20.4269 696.101 20.7917 694.448 21.5212C692.843 22.2508 691.578 23.1505 690.654 24.2205C689.779 25.2419 689.146 26.2146 688.757 27.1387C688.368 28.0627 688.174 28.7193 688.174 29.1084V29.2543Z" fill="url(#paint14_linear_306_185)"/>
<path d="M734.412 52.9641V40.5621H748.565V52.9641H734.412Z" fill="url(#paint15_linear_306_185)"/>
<defs>
<linearGradient id="paint0_linear_306_185" x1="-4.96094" y1="26.197" x2="755.081" y2="26.197" gradientUnits="userSpaceOnUse">
<stop stop-color="#B8B2F2"/>
<stop offset="1" stop-color="#DCC58D"/>
</linearGradient>
<linearGradient id="paint1_linear_306_185" x1="-4.96094" y1="26.197" x2="755.081" y2="26.197" gradientUnits="userSpaceOnUse">
<stop stop-color="#B8B2F2"/>
<stop offset="1" stop-color="#DCC58D"/>
</linearGradient>
<linearGradient id="paint2_linear_306_185" x1="-4.96094" y1="26.197" x2="755.081" y2="26.197" gradientUnits="userSpaceOnUse">
<stop stop-color="#B8B2F2"/>
<stop offset="1" stop-color="#DCC58D"/>
</linearGradient>
<linearGradient id="paint3_linear_306_185" x1="-4.96094" y1="26.197" x2="755.081" y2="26.197" gradientUnits="userSpaceOnUse">
<stop stop-color="#B8B2F2"/>
<stop offset="1" stop-color="#DCC58D"/>
</linearGradient>
<linearGradient id="paint4_linear_306_185" x1="-4.96094" y1="26.197" x2="755.081" y2="26.197" gradientUnits="userSpaceOnUse">
<stop stop-color="#B8B2F2"/>
<stop offset="1" stop-color="#DCC58D"/>
</linearGradient>
<linearGradient id="paint5_linear_306_185" x1="-4.96094" y1="26.197" x2="755.081" y2="26.197" gradientUnits="userSpaceOnUse">
<stop stop-color="#B8B2F2"/>
<stop offset="1" stop-color="#DCC58D"/>
</linearGradient>
<linearGradient id="paint6_linear_306_185" x1="-4.96094" y1="26.197" x2="755.081" y2="26.197" gradientUnits="userSpaceOnUse">
<stop stop-color="#B8B2F2"/>
<stop offset="1" stop-color="#DCC58D"/>
</linearGradient>
<linearGradient id="paint7_linear_306_185" x1="-4.96094" y1="26.197" x2="755.081" y2="26.197" gradientUnits="userSpaceOnUse">
<stop stop-color="#B8B2F2"/>
<stop offset="1" stop-color="#DCC58D"/>
</linearGradient>
<linearGradient id="paint8_linear_306_185" x1="-4.96094" y1="26.197" x2="755.081" y2="26.197" gradientUnits="userSpaceOnUse">
<stop stop-color="#B8B2F2"/>
<stop offset="1" stop-color="#DCC58D"/>
</linearGradient>
<linearGradient id="paint9_linear_306_185" x1="-4.96094" y1="26.197" x2="755.081" y2="26.197" gradientUnits="userSpaceOnUse">
<stop stop-color="#B8B2F2"/>
<stop offset="1" stop-color="#DCC58D"/>
</linearGradient>
<linearGradient id="paint10_linear_306_185" x1="-4.96094" y1="26.197" x2="755.081" y2="26.197" gradientUnits="userSpaceOnUse">
<stop stop-color="#B8B2F2"/>
<stop offset="1" stop-color="#DCC58D"/>
</linearGradient>
<linearGradient id="paint11_linear_306_185" x1="-4.96094" y1="26.197" x2="755.081" y2="26.197" gradientUnits="userSpaceOnUse">
<stop stop-color="#B8B2F2"/>
<stop offset="1" stop-color="#DCC58D"/>
</linearGradient>
<linearGradient id="paint12_linear_306_185" x1="-4.96094" y1="26.197" x2="755.081" y2="26.197" gradientUnits="userSpaceOnUse">
<stop stop-color="#B8B2F2"/>
<stop offset="1" stop-color="#DCC58D"/>
</linearGradient>
<linearGradient id="paint13_linear_306_185" x1="-4.96094" y1="26.197" x2="755.081" y2="26.197" gradientUnits="userSpaceOnUse">
<stop stop-color="#B8B2F2"/>
<stop offset="1" stop-color="#DCC58D"/>
</linearGradient>
<linearGradient id="paint14_linear_306_185" x1="-4.96094" y1="26.197" x2="755.081" y2="26.197" gradientUnits="userSpaceOnUse">
<stop stop-color="#B8B2F2"/>
<stop offset="1" stop-color="#DCC58D"/>
</linearGradient>
<linearGradient id="paint15_linear_306_185" x1="-4.96094" y1="26.197" x2="755.081" y2="26.197" gradientUnits="userSpaceOnUse">
<stop stop-color="#B8B2F2"/>
<stop offset="1" stop-color="#DCC58D"/>
</linearGradient>
</defs>
</svg>
