<svg width="721" height="93" viewBox="0 0 721 93" fill="none" xmlns="http://www.w3.org/2000/svg">
<path d="M2.44062 2.97119V18.0394H19.3127C20.197 18.0394 21.1167 17.9863 22.0717 17.8802C23.0267 17.7387 24.0348 17.4381 25.096 16.9782C26.1925 16.5184 27.1121 15.7402 27.8549 14.6437C28.6331 13.5472 29.0222 12.1147 29.0222 10.3461C29.0222 8.61292 28.7038 7.23344 28.0672 6.20767C27.4305 5.1819 26.6169 4.4391 25.6265 3.97927C24.6715 3.51945 23.6634 3.23648 22.6023 3.13036C21.5765 3.02425 20.3562 2.97119 18.9413 2.97119H2.44062ZM2.44062 20.1617V36.6093H19.525C20.4446 36.6093 21.4173 36.5563 22.4431 36.4502C23.5042 36.3087 24.6361 35.9726 25.8388 35.4421C27.0768 34.9115 28.1202 34.0449 28.9691 32.8423C29.8534 31.6397 30.2955 30.0656 30.2955 28.1202C30.2955 26.2455 29.9241 24.7599 29.1813 23.6634C28.4386 22.5315 27.5012 21.7357 26.3693 21.2759C25.2374 20.7807 24.0879 20.48 22.9206 20.3739C21.7534 20.2324 20.4093 20.1617 18.8883 20.1617H2.44062ZM0 38.7316V0.84891H20.4269C24.0348 0.84891 26.7761 1.66245 28.6508 3.28953C30.5255 4.88124 31.4628 7.18038 31.4628 10.1869C31.4628 12.2738 30.8792 14.1132 29.7119 15.7049C28.58 17.2612 26.6877 18.3223 24.0348 18.8883V18.9944C25.768 19.1713 27.2182 19.5957 28.3855 20.2678C29.5527 20.9045 30.437 21.6826 31.0383 22.6023C31.675 23.5219 32.1172 24.477 32.3648 25.4674C32.6124 26.4224 32.7362 27.3774 32.7362 28.3324C32.7362 29.4997 32.5416 30.6669 32.1525 31.8342C31.7988 33.0014 31.1445 34.1156 30.1894 35.1768C29.2698 36.2379 27.961 37.1045 26.2632 37.7766C24.6008 38.4133 22.5315 38.7316 20.0555 38.7316H0Z" fill="#B8B2F2"/>
<path d="M38.2902 38.7316V0.84891H68.2143V2.97119H40.7308V18.0394H67.1001V20.1617H40.7308V36.6093H68.5326V38.7316H38.2902Z" fill="#B8B2F2"/>
<path d="M80.6889 38.7316L98.0916 0.84891H100.851L118.253 38.7316H115.494L109.923 26.5285H89.0189L83.4479 38.7316H80.6889ZM99.4711 3.60787L89.9739 24.4062H108.968L99.4711 3.60787Z" fill="#B8B2F2"/>
<path d="M141.08 38.7316L128.611 0.84891H131.37L142.618 35.336H142.725L154.875 0.84891H157.952L170.102 35.336H170.208L181.456 0.84891H184.215L171.747 38.7316H168.669L156.466 4.24456H156.36L144.157 38.7316H141.08Z" fill="#B8B2F2"/>
<path d="M186.58 38.7316V0.84891H189.021V38.7316H186.58Z" fill="#B8B2F2"/>
<path d="M191.409 2.97119V0.84891H224.411V2.97119H209.13V38.7316H206.69V2.97119H191.409Z" fill="#B8B2F2"/>
<path d="M226.788 38.7316V0.84891H229.865L258.144 35.336H258.25V0.84891H260.691V38.7316H257.614L229.334 4.24456H229.228V38.7316H226.788Z" fill="#B8B2F2"/>
<path d="M267.047 38.7316V0.84891H296.971V2.97119H269.487V18.0394H295.857V20.1617H269.487V36.6093H297.289V38.7316H267.047Z" fill="#B8B2F2"/>
<path d="M299.753 26.2102H302.194C302.229 29.8534 303.414 32.6477 305.748 34.5932C308.118 36.5032 311.779 37.4582 316.731 37.4582C318.995 37.4582 320.94 37.246 322.567 36.8216C324.195 36.3617 325.503 35.7427 326.494 34.9646C327.519 34.1864 328.262 33.3021 328.722 32.3117C329.182 31.2859 329.412 30.1894 329.412 29.0222C329.412 27.9257 329.253 26.9883 328.934 26.2102C328.651 25.432 328.138 24.7422 327.396 24.1409C326.688 23.5396 325.68 23.0091 324.371 22.5492C323.098 22.0894 321.453 21.6473 319.437 21.2228L312.381 19.7372C308.171 18.8529 305.2 17.6857 303.467 16.2354C301.769 14.7852 300.92 12.6452 300.92 9.81554C300.92 6.87972 302.158 4.50984 304.634 2.70591C307.146 0.901969 310.683 0 315.246 0C320.198 0 324.035 0.955025 326.759 2.86508C329.518 4.73976 330.968 7.64021 331.11 11.5664H328.669C328.598 10.3638 328.333 9.21423 327.873 8.11772C327.449 7.02121 326.759 6.03081 325.804 5.14653C324.884 4.22687 323.593 3.50176 321.931 2.97119C320.304 2.40525 318.305 2.12228 315.935 2.12228C313.707 2.12228 311.797 2.31682 310.205 2.70591C308.613 3.09499 307.34 3.64325 306.385 4.35067C305.43 5.02273 304.74 5.83627 304.316 6.79129C303.891 7.71095 303.679 8.73672 303.679 9.8686C303.679 11.9555 304.298 13.5472 305.536 14.6437C306.774 15.7402 309.144 16.6422 312.646 17.3496L320.445 18.8883C324.442 19.6665 327.396 20.7983 329.306 22.2839C331.216 23.7695 332.171 25.9626 332.171 28.863C332.171 30.2425 331.905 31.5689 331.375 32.8423C330.88 34.0803 330.048 35.2122 328.881 36.2379C327.714 37.2637 326.14 38.0772 324.159 38.6785C322.178 39.2799 319.773 39.5805 316.943 39.5805C313.937 39.5805 311.319 39.2799 309.091 38.6785C306.898 38.0419 305.112 37.1399 303.732 35.9726C302.353 34.77 301.345 33.3552 300.708 31.7281C300.071 30.101 299.753 28.2617 299.753 26.2102Z" fill="#B8B2F2"/>
<path d="M335.142 26.2102H337.582C337.618 29.8534 338.802 32.6477 341.137 34.5932C343.507 36.5032 347.168 37.4582 352.12 37.4582C354.384 37.4582 356.329 37.246 357.956 36.8216C359.583 36.3617 360.892 35.7427 361.882 34.9646C362.908 34.1864 363.651 33.3021 364.111 32.3117C364.57 31.2859 364.8 30.1894 364.8 29.0222C364.8 27.9257 364.641 26.9883 364.323 26.2102C364.04 25.432 363.527 24.7422 362.784 24.1409C362.077 23.5396 361.069 23.0091 359.76 22.5492C358.487 22.0894 356.842 21.6473 354.826 21.2228L347.769 19.7372C343.56 18.8529 340.589 17.6857 338.856 16.2354C337.158 14.7852 336.309 12.6452 336.309 9.81554C336.309 6.87972 337.547 4.50984 340.023 2.70591C342.534 0.901969 346.071 0 350.634 0C355.586 0 359.424 0.955025 362.148 2.86508C364.907 4.73976 366.357 7.64021 366.498 11.5664H364.058C363.987 10.3638 363.722 9.21423 363.262 8.11772C362.837 7.02121 362.148 6.03081 361.193 5.14653C360.273 4.22687 358.982 3.50176 357.319 2.97119C355.692 2.40525 353.694 2.12228 351.324 2.12228C349.096 2.12228 347.185 2.31682 345.594 2.70591C344.002 3.09499 342.729 3.64325 341.774 4.35067C340.819 5.02273 340.129 5.83627 339.704 6.79129C339.28 7.71095 339.068 8.73672 339.068 9.8686C339.068 11.9555 339.687 13.5472 340.925 14.6437C342.163 15.7402 344.533 16.6422 348.034 17.3496L355.834 18.8883C359.831 19.6665 362.784 20.7983 364.694 22.2839C366.604 23.7695 367.559 25.9626 367.559 28.863C367.559 30.2425 367.294 31.5689 366.763 32.8423C366.268 34.0803 365.437 35.2122 364.27 36.2379C363.103 37.2637 361.529 38.0772 359.548 38.6785C357.567 39.2799 355.162 39.5805 352.332 39.5805C349.325 39.5805 346.708 39.2799 344.48 38.6785C342.287 38.0419 340.5 37.1399 339.121 35.9726C337.741 34.77 336.733 33.3552 336.097 31.7281C335.46 30.101 335.142 28.2617 335.142 26.2102Z" fill="#B8B2F2"/>
<path d="M384.785 19.7903C384.785 22.0894 385.175 24.3001 385.953 26.4224C386.731 28.5447 387.88 30.437 389.401 32.0995C390.922 33.7619 392.779 35.0707 394.972 36.0257C397.201 36.9807 399.694 37.4582 402.453 37.4582C405.212 37.4582 407.688 36.9807 409.881 36.0257C412.11 35.0707 413.985 33.7619 415.505 32.0995C417.026 30.4017 418.176 28.5093 418.954 26.4224C419.732 24.3001 420.121 22.0894 420.121 19.7903C420.121 17.4911 419.732 15.2804 418.954 13.1581C418.176 11.0359 417.026 9.14349 415.505 7.48103C413.985 5.81858 412.11 4.50984 409.881 3.55482C407.688 2.59979 405.212 2.12228 402.453 2.12228C399.694 2.12228 397.201 2.59979 394.972 3.55482C392.779 4.50984 390.922 5.81858 389.401 7.48103C387.88 9.14349 386.731 11.0359 385.953 13.1581C385.175 15.2804 384.785 17.4911 384.785 19.7903ZM382.345 19.7903C382.345 17.7387 382.699 15.5811 383.406 13.3173C384.113 11.0535 385.245 8.91357 386.802 6.89741C388.393 4.84587 390.498 3.18342 393.115 1.91005C395.733 0.636684 398.846 0 402.453 0C406.097 0 409.227 0.636684 411.845 1.91005C414.462 3.18342 416.549 4.84587 418.105 6.89741C419.662 8.91357 420.793 11.0535 421.501 13.3173C422.208 15.5811 422.562 17.7387 422.562 19.7903C422.562 21.8418 422.208 23.9994 421.501 26.2632C420.793 28.527 419.662 30.6846 418.105 32.7362C416.549 34.7523 414.462 36.3971 411.845 37.6705C409.227 38.9438 406.097 39.5805 402.453 39.5805C398.846 39.5805 395.715 38.9438 393.062 37.6705C390.445 36.3617 388.358 34.6993 386.802 32.6831C385.245 30.6669 384.113 28.527 383.406 26.2632C382.699 23.9994 382.345 21.8418 382.345 19.7903Z" fill="#B8B2F2"/>
<path d="M427.306 38.7316V0.84891H454.789V2.97119H429.746V18.0394H453.41V20.1617H429.746V38.7316H427.306Z" fill="#B8B2F2"/>
<path d="M241.039 91.1268V56.852H226.183V53.2441H259.821V56.852H244.965V91.1268H241.039Z" fill="#B8B2F2"/>
<path d="M263.21 91.1268V53.2441H267.136V69.2673H294.514V53.2441H298.44V91.1268H294.514V72.8752H267.136V91.1268H263.21Z" fill="#B8B2F2"/>
<path d="M306.075 91.1268V53.2441H336.211V56.852H310.001V69.6918H335.256V73.2996H310.001V87.5189H336.636V91.1268H306.075Z" fill="#B8B2F2"/>
<path d="M386.132 64.0677H382.206C382.064 62.5114 381.658 61.2026 380.986 60.1415C380.349 59.045 379.5 58.1961 378.439 57.5948C377.378 56.9935 376.157 56.569 374.778 56.3214C373.434 56.0384 371.948 55.8969 370.321 55.8969C367.173 55.8969 364.591 56.4983 362.575 57.7009C360.594 58.8681 359.604 60.4952 359.604 62.5821C359.604 64.8813 360.612 66.526 362.628 67.5164C364.679 68.4714 368.287 69.3734 373.451 70.2223C375.538 70.576 377.342 70.9651 378.863 71.3896C380.42 71.7787 381.834 72.3269 383.108 73.0343C384.381 73.7418 385.389 74.6968 386.132 75.8994C386.875 77.0667 387.246 78.5169 387.246 80.2501C387.246 82.4785 386.786 84.3709 385.867 85.9272C384.982 87.4482 383.78 88.6685 382.259 89.5881C380.738 90.4724 379.058 91.1091 377.218 91.4982C375.379 91.8873 373.451 92.0818 371.435 92.0818C368.924 92.0818 366.66 91.8519 364.644 91.3921C362.663 90.9322 360.912 90.1718 359.391 89.1106C357.87 88.0495 356.668 86.6523 355.783 84.9191C354.899 83.1859 354.386 81.0813 354.245 78.6053H358.171C358.348 80.5154 358.772 82.1248 359.444 83.4335C360.152 84.7069 361.089 85.715 362.256 86.4578C363.424 87.2006 364.75 87.7311 366.236 88.0495C367.757 88.3324 369.49 88.4739 371.435 88.4739C372.992 88.4739 374.442 88.3501 375.786 88.1025C377.13 87.8549 378.35 87.4482 379.447 86.8822C380.543 86.3163 381.41 85.5558 382.047 84.6008C382.683 83.6104 383.002 82.3901 383.002 80.9398C383.002 79.6311 382.666 78.5523 381.994 77.7034C381.357 76.8545 380.473 76.1824 379.341 75.6872C378.209 75.1566 376.971 74.7499 375.627 74.4669C374.318 74.1839 372.62 73.8833 370.533 73.5649L369.207 73.3527C364.467 72.6099 360.965 71.478 358.702 69.957C356.473 68.4361 355.359 66.2077 355.359 63.2719C355.359 61.2911 355.766 59.5932 356.579 58.1784C357.428 56.7635 358.56 55.6317 359.975 54.7827C361.425 53.8985 363.017 53.2618 364.75 52.8727C366.519 52.4836 368.376 52.2891 370.321 52.2891C372.373 52.2891 374.318 52.5013 376.157 52.9257C377.997 53.3148 379.659 53.9692 381.145 54.8889C382.63 55.7731 383.815 56.9934 384.7 58.5498C385.584 60.0708 386.061 61.9101 386.132 64.0677Z" fill="#B8B2F2"/>
<path d="M392.391 91.1268V53.2441H396.317V91.1268H392.391Z" fill="#B8B2F2"/>
<path d="M403.728 91.1268V53.2441H408.45L434.926 85.6089H435.032V53.2441H438.958V91.1268H434.395L407.761 58.762H407.655V91.1268H403.728Z" fill="#B8B2F2"/>
<path d="M481.133 91.1268L480.603 83.9641H480.496C478.516 86.7938 476.305 88.863 473.864 90.1718C471.424 91.4451 468.382 92.0818 464.738 92.0818C461.59 92.0818 458.778 91.622 456.302 90.7023C453.826 89.7473 451.74 88.3855 450.042 86.6169C448.344 84.8484 447.053 82.7438 446.169 80.3032C445.32 77.8625 444.895 75.1566 444.895 72.1854C444.895 69.3204 445.355 66.6852 446.275 64.2799C447.23 61.8393 448.591 59.717 450.36 57.9131C452.129 56.1092 454.269 54.7297 456.78 53.7747C459.291 52.7843 462.086 52.2891 465.163 52.2891C467.745 52.2891 470.097 52.6251 472.22 53.2971C474.377 53.9692 476.252 54.9065 477.844 56.1092C479.435 57.3118 480.709 58.6913 481.664 60.2476C482.619 61.8039 483.22 63.4664 483.468 65.235H479.223C478.48 62.1577 476.835 59.8408 474.289 58.2845C471.777 56.6928 468.735 55.8969 465.163 55.8969C460.069 55.8969 456.126 57.3472 453.331 60.2476C450.537 63.1481 449.14 67.1273 449.14 72.1854C449.14 77.3497 450.431 81.3643 453.013 84.2294C455.63 87.0591 459.433 88.4739 464.42 88.4739C467.144 88.4739 469.478 88.1202 471.424 87.4128C473.369 86.7054 474.961 85.7327 476.199 84.4947C477.437 83.2567 478.392 81.8595 479.064 80.3032C479.736 78.7468 480.231 77.049 480.549 75.2097H466.649V71.6018H484.157V91.1268H481.133Z" fill="#B8B2F2"/>
<path d="M525.2 53.2441V76.483C525.2 78.5346 524.988 80.427 524.564 82.1601C524.174 83.8933 523.396 85.5204 522.229 87.0414C521.062 88.5624 519.329 89.7827 517.029 90.7023C514.766 91.622 511.848 92.0818 508.275 92.0818C504.703 92.0818 501.767 91.622 499.468 90.7023C497.204 89.7827 495.488 88.5624 494.321 87.0414C493.154 85.5204 492.358 83.8933 491.933 82.1601C491.544 80.427 491.35 78.5346 491.35 76.483V53.2441H495.276V76.483C495.276 78.8529 495.63 80.8337 496.337 82.4254C497.045 84.0171 498 85.2551 499.202 86.1394C500.405 86.9883 501.767 87.5896 503.288 87.9434C504.809 88.2971 506.471 88.4739 508.275 88.4739C510.079 88.4739 511.741 88.2971 513.262 87.9434C514.783 87.5896 516.145 86.9883 517.348 86.1394C518.55 85.2551 519.505 84.0171 520.213 82.4254C520.92 80.8337 521.274 78.8529 521.274 76.483V53.2441H525.2Z" fill="#B8B2F2"/>
<path d="M532.433 91.1268V53.2441H536.359V87.5189H560.394V91.1268H532.433Z" fill="#B8B2F2"/>
<path d="M587.812 76.0055L579.483 57.1703L571.046 76.0055H587.812ZM594.445 91.1268L589.404 79.6134H569.455L564.308 91.1268H560.064L577.254 53.2441H581.817L599.007 91.1268H594.445Z" fill="#B8B2F2"/>
<path d="M602.811 91.1268V53.2441H623.45C625.183 53.2441 626.775 53.4209 628.225 53.7747C629.675 54.093 630.966 54.6413 632.098 55.4194C633.23 56.1976 634.114 57.2587 634.751 58.6028C635.423 59.947 635.759 61.574 635.759 63.4841C635.759 65.6064 635.105 67.5341 633.796 69.2673C632.523 71.0005 630.701 72.1324 628.331 72.6629V72.7691C630.878 73.1582 632.593 74.1662 633.478 75.7933C634.397 77.4204 634.928 79.9141 635.069 83.2744C635.105 83.9464 635.14 84.6892 635.175 85.5027C635.246 86.2809 635.335 87.0768 635.441 87.8903C635.547 88.7038 635.671 89.3936 635.812 89.9595C635.989 90.5255 636.183 90.9146 636.396 91.1268H632.151C631.833 90.7377 631.585 89.9065 631.408 88.6331C631.267 87.3244 631.178 85.5735 631.143 83.3805C631.108 80.0556 630.383 77.7387 628.968 76.43C627.588 75.1213 625.254 74.4669 621.964 74.4669H606.737V91.1268H602.811ZM606.737 56.852V70.859H623.344C624.475 70.859 625.519 70.7352 626.474 70.4876C627.464 70.24 628.331 69.8509 629.074 69.3204C629.852 68.7544 630.453 67.9939 630.878 67.0389C631.302 66.0485 631.514 64.8636 631.514 63.4841C631.514 62.14 631.285 61.0258 630.825 60.1415C630.365 59.2572 629.764 58.5852 629.021 58.1253C628.313 57.6301 627.5 57.2941 626.58 57.1172C625.66 56.9404 624.705 56.852 623.715 56.852H606.737Z" fill="#B8B2F2"/>
<path d="M641.925 91.1268V53.2441H645.851V91.1268H641.925Z" fill="#B8B2F2"/>
<path d="M664.51 91.1268V56.852H649.654V53.2441H683.292V56.852H668.436V91.1268H664.51Z" fill="#B8B2F2"/>
<path d="M699.415 91.1268V75.2097L682.384 53.2441H687.478L701.378 71.2835L715.279 53.2441H720.373L703.342 75.2097V91.1268H699.415Z" fill="#B8B2F2"/>
</svg>
